<?xml version="1.0" encoding="utf-8"?>
<!-- Generator: Adobe Illustrator 24.0.1, SVG Export Plug-In . SVG Version: 6.00 Build 0)  -->
<svg version="1.1" id="Layer_1" xmlns="http://www.w3.org/2000/svg" xmlns:xlink="http://www.w3.org/1999/xlink" x="0px" y="0px"
	 viewBox="0 0 138.5 121.1" style="enable-background:new 0 0 138.5 121.1;" xml:space="preserve">
<style type="text/css">
	.st0{fill:#FFFFFF;}
</style>
<g id="apply_training" transform="translate(-82 -129)">
	<path id="Path_902" class="st0" d="M199,176.8h-21.7c-2.2,0-4.1,1.8-4.1,4.1c0,2.2,1.8,4.1,4.1,4.1H199c2.2,0,4.1-1.8,4.1-4.1
		S201.3,176.8,199,176.8L199,176.8z M199,161.6h-21.7c-2.2,0-4.1,1.8-4.1,4.1c0,2.2,1.8,4.1,4.1,4.1H199c2.2,0,4.1-1.8,4.1-4.1
		C203.1,163.4,201.3,161.6,199,161.6L199,161.6z M199,146.4h-43.4c-2.2,0-4.1,1.8-4.1,4.1c0,2.2,1.8,4.1,4.1,4.1H199
		c2.2,0,4.1-1.8,4.1-4.1S201.3,146.4,199,146.4z M203.1,150.4c0-2.2-1.8-4.1-4.1-4.1l0,0h-43.4c-2.2,0-4.1,1.8-4.1,4.1
		c0,2.2,1.8,4.1,4.1,4.1H199C201.3,154.5,203.1,152.7,203.1,150.4L203.1,150.4L203.1,150.4z M199,161.6h-21.7
		c-2.2,0-4.1,1.8-4.1,4.1c0,2.2,1.8,4.1,4.1,4.1H199c2.2,0,4.1-1.8,4.1-4.1C203.1,163.4,201.3,161.6,199,161.6L199,161.6z
		 M199,176.8h-21.7c-2.2,0-4.1,1.8-4.1,4.1c0,2.2,1.8,4.1,4.1,4.1H199c2.2,0,4.1-1.8,4.1-4.1S201.3,176.8,199,176.8L199,176.8z
		 M207.7,129h-60.8c-7,0-12.7,5.7-12.7,12.7v39l-11.3-5.6c-0.4-0.2-0.8-0.4-1.2-0.5c7.4-7.7,7.1-19.9-0.6-27.2
		c-7.7-7.4-19.9-7.1-27.2,0.6s-7.1,19.9,0.6,27.2c0.2,0.2,0.4,0.4,0.7,0.6C87,180.3,82,188.9,82,198.2v13c0,5.5,3.5,10.3,8.7,12.1
		V246c0,2.2,1.8,4.1,4.1,4.1l0,0h26.1c2.2,0,4.1-1.8,4.1-4.1l0,0v-45.6l13,6.5c5.4,2.7,11.9,0.6,14.8-4.7h14.5l-15.4,42.3
		c-0.8,2.1,0.3,4.4,2.4,5.2s4.4-0.3,5.2-2.4l16.4-45.1h2.8l16.6,45.1c0.7,2.1,3,3.2,5.2,2.5c2.1-0.7,3.2-3,2.5-5.2
		c0-0.1,0-0.1-0.1-0.2l-15.6-42.3h20.4c7,0,12.7-5.7,12.7-12.7l0,0v-47.8C220.5,134.7,214.8,129,207.7,129L207.7,129z M107.8,150.1
		c6.2,0,11.2,5,11.2,11.1s-5,11.2-11.2,11.2s-11.2-5-11.2-11.2l0,0C96.6,155.1,101.6,150.1,107.8,150.1z M145.7,197.9v0.1
		c-0.6,1.6-2.3,2.3-3.9,1.8c-0.1,0-0.2-0.1-0.3-0.1c-7.7-3.9-18.9-9.4-18.9-9.4c-2-1-4.4-0.2-5.4,1.8c-0.3,0.6-0.4,1.2-0.4,1.8V242
		h-18v-22c0-2.2-1.8-4.1-4.1-4.1l0,0c-2.6,0-4.6-2.1-4.6-4.6v-13c0-9.8,7.9-17.7,17.7-17.7l0,0h3.6c2.7,0,5.4,0.6,7.9,1.8
		c0,0,20.1,10,25.3,12.6C145.6,195.5,146.1,196.8,145.7,197.9L145.7,197.9z M212.3,189.5c0,1.2-0.5,2.4-1.3,3.3
		c-0.9,0.9-2.1,1.3-3.3,1.4h-54.2c0,0,0,0,0-0.1l10.1-20.1c1-2,0.2-4.4-1.8-5.5c-2-1-4.4-0.2-5.5,1.8c0,0,0,0,0,0.1l-8.6,17.2
		c-1.6-0.8-3.5-1.7-5.5-2.7v-43c0-2.6,2.1-4.6,4.6-4.6h60.8c1.2,0,2.4,0.5,3.3,1.4c0.9,0.9,1.4,2.1,1.4,3.3V189.5L212.3,189.5z
		 M199,146.4h-43.4c-2.2,0-4.1,1.8-4.1,4.1c0,2.2,1.8,4.1,4.1,4.1H199c2.2,0,4.1-1.8,4.1-4.1S201.3,146.4,199,146.4L199,146.4z
		 M199,161.6h-21.7c-2.2,0-4.1,1.8-4.1,4.1c0,2.2,1.8,4.1,4.1,4.1H199c2.2,0,4.1-1.8,4.1-4.1C203.1,163.4,201.3,161.6,199,161.6
		L199,161.6z M199,176.8h-21.7c-2.2,0-4.1,1.8-4.1,4.1c0,2.2,1.8,4.1,4.1,4.1H199c2.2,0,4.1-1.8,4.1-4.1S201.3,176.8,199,176.8
		L199,176.8z"/>
	<g id="Group_350" transform="translate(82 129)">
		<path id="Path_903" class="st0" d="M125.7,0H64.9c-7,0-12.7,5.7-12.7,12.7v39l-11.3-5.6c-0.4-0.2-0.8-0.4-1.2-0.5
			c7.4-7.7,7.1-19.9-0.6-27.2C31.4,11,19.2,11.3,11.9,19s-7.1,19.9,0.6,27.2c0.2,0.2,0.4,0.4,0.7,0.6C5,51.3,0,59.9,0,69.2v13
			c0,5.5,3.5,10.3,8.7,12.1V117c0,2.2,1.8,4.1,4.1,4.1l0,0h26.1c2.2,0,4.1-1.8,4.1-4.1l0,0V71.4l13,6.5c5.4,2.7,11.9,0.6,14.8-4.7
			h14.5l-15.4,42.3c-0.8,2.1,0.3,4.4,2.4,5.2s4.4-0.3,5.2-2.4l16.4-45.1h2.8l16.6,45.1c0.7,2.1,3,3.2,5.2,2.5c2.1-0.7,3.2-3,2.5-5.2
			c0-0.1,0-0.1-0.1-0.2l-15.6-42.3h20.4c7,0,12.7-5.7,12.7-12.7l0,0V12.7C138.5,5.7,132.8,0,125.7,0L125.7,0z M25.8,21.1
			c6.2,0,11.2,5,11.2,11.1s-5,11.2-11.2,11.2s-11.2-5-11.2-11.2l0,0C14.6,26.1,19.6,21.1,25.8,21.1z M63.7,68.9L63.7,68.9
			c-0.6,1.7-2.3,2.4-3.9,1.9c-0.1,0-0.2-0.1-0.3-0.1c-7.7-3.9-18.9-9.4-18.9-9.4c-2-1-4.4-0.2-5.4,1.8c-0.3,0.6-0.4,1.2-0.4,1.8V113
			h-18V91c0-2.2-1.8-4.1-4.1-4.1l0,0c-2.6,0-4.6-2.1-4.6-4.6v-13c0-9.8,7.9-17.7,17.7-17.7l0,0h3.6c2.7,0,5.4,0.6,7.9,1.8
			c0,0,20.1,10,25.3,12.6C63.6,66.5,64.1,67.8,63.7,68.9L63.7,68.9z M130.3,60.5c0,1.2-0.5,2.4-1.3,3.3c-0.9,0.9-2.1,1.3-3.3,1.4
			H71.5c0,0,0,0,0-0.1l10-20.1c1-2,0.2-4.4-1.8-5.5c-2-1-4.4-0.2-5.5,1.8c0,0,0,0,0,0.1l-8.6,17.2c-1.6-0.8-3.5-1.7-5.5-2.7v-43
			c0-2.6,2.1-4.6,4.6-4.6h60.8c1.2,0,2.4,0.5,3.3,1.4c0.9,0.9,1.4,2.1,1.4,3.3L130.3,60.5L130.3,60.5z"/>
		<path id="Path_904" class="st0" d="M121.1,21.4c0,2.2-1.8,4.1-4,4.1l0,0H73.6c-2.2,0-4.1-1.8-4.1-4.1c0-2.2,1.8-4.1,4.1-4.1H117
			C119.3,17.4,121.1,19.2,121.1,21.4z"/>
		<path id="Path_905" class="st0" d="M121.1,36.6c0,2.2-1.8,4.1-4.1,4.1l0,0H95.3c-2.2,0-4.1-1.8-4.1-4.1s1.8-4.1,4.1-4.1H117
			C119.3,32.6,121.1,34.4,121.1,36.6L121.1,36.6z"/>
		<path id="Path_906" class="st0" d="M121.1,51.8c0,2.2-1.8,4.1-4.1,4.1l0,0H95.3c-2.2,0-4.1-1.8-4.1-4.1s1.8-4.1,4.1-4.1H117
			C119.3,47.8,121.1,49.6,121.1,51.8z"/>
	</g>
</g>
</svg>
