<?xml version="1.0" encoding="utf-8"?>
<!-- Generator: Adobe Illustrator 24.0.1, SVG Export Plug-In . SVG Version: 6.00 Build 0)  -->
<svg version="1.1" id="Layer_1" xmlns="http://www.w3.org/2000/svg" xmlns:xlink="http://www.w3.org/1999/xlink" x="0px" y="0px"
	 viewBox="0 0 675.6 887" style="enable-background:new 0 0 675.6 887;" xml:space="preserve">
<style type="text/css">
	.st0{fill:#FFFFFF;}
</style>
<polygon class="st0" points="241.5,633 278.2,669.8 155.9,792.1 85.6,721.7 122.3,685 155.9,718.6 "/>
<polygon class="st0" points="241.5,477.1 278.2,513.9 155.9,636.2 85.6,565.9 122.3,529.1 155.9,562.7 "/>
<polygon class="st0" points="241.5,321.2 278.2,358 155.9,480.3 85.6,409.9 122.3,373.2 155.9,406.8 "/>
<rect x="311.8" y="365.6" class="st0" width="259.8" height="52"/>
<rect x="311.8" y="521.5" class="st0" width="259.8" height="52"/>
<rect x="311.8" y="677.4" class="st0" width="259.8" height="52"/>
<path class="st0" d="M519.7,104V52H411.3c-10.7-30.3-39.6-52-73.5-52S275,21.7,264.3,52H155.9v52H0v783h675.6V104H519.7L519.7,104z
	 M207.9,104h103.9V78c0-14.3,11.6-26,26-26s26,11.7,26,26v26h103.9v52H207.9V104z M623.6,835H52V156h103.9v52h363.8v-52h103.9V835
	L623.6,835z"/>
<g>
	<path class="st0" d="M519.7,104V52H411.3c-10.7-30.3-39.6-52-73.5-52S275,21.7,264.3,52H155.9v52H0v783h675.6V104H519.7L519.7,104z
		 M207.9,104h103.9V78c0-14.3,11.6-26,26-26s26,11.7,26,26v26h103.9v52H207.9V104z M623.6,835H52V156h103.9v52h363.8v-52h103.9V835
		L623.6,835z"/>
	<polygon class="st0" points="278.2,358 155.9,480.3 85.6,409.9 122.3,373.2 155.9,406.8 241.5,321.2 	"/>
	<polygon class="st0" points="278.2,513.9 155.9,636.2 85.6,565.9 122.3,529.1 155.9,562.7 241.5,477.1 	"/>
	<polygon class="st0" points="278.2,669.8 155.9,792.1 85.6,721.7 122.3,685 155.9,718.6 241.5,633 	"/>
	<rect x="311.8" y="365.6" class="st0" width="259.8" height="52"/>
	<rect x="311.8" y="521.5" class="st0" width="259.8" height="52"/>
	<rect x="311.8" y="677.4" class="st0" width="259.8" height="52"/>
</g>
</svg>
