<?xml version="1.0" encoding="utf-8"?>
<!-- Generator: Adobe Illustrator 24.0.1, SVG Export Plug-In . SVG Version: 6.00 Build 0)  -->
<svg version="1.1" id="Layer_1" xmlns="http://www.w3.org/2000/svg" xmlns:xlink="http://www.w3.org/1999/xlink" x="0px" y="0px"
	 viewBox="0 0 675.6 887" style="enable-background:new 0 0 675.6 887;" xml:space="preserve">
<style type="text/css">
	.st0{fill:url(#SVGID_1_);}
	.st1{fill:url(#SVGID_2_);}
	.st2{fill:url(#SVGID_3_);}
	.st3{fill:url(#SVGID_4_);}
	.st4{fill:url(#SVGID_5_);}
	.st5{fill:url(#SVGID_6_);}
	.st6{fill:url(#SVGID_7_);}
	.st7{fill:#FF7C00;}
</style>
<linearGradient id="SVGID_1_" gradientUnits="userSpaceOnUse" x1="181.9" y1="262.6378" x2="181.9" y2="103.8806" gradientTransform="matrix(1 0 0 -1 0 902.2)">
	<stop  offset="0" style="stop-color:#FF7300"/>
	<stop  offset="0.1771" style="stop-color:#F97C01"/>
	<stop  offset="0.4705" style="stop-color:#EA9602"/>
	<stop  offset="0.5521" style="stop-color:#E59E03"/>
	<stop  offset="0.8652" style="stop-color:#E5C500"/>
</linearGradient>
<polygon class="st0" points="241.5,633 278.2,669.8 155.9,792.1 85.6,721.7 122.3,685 155.9,718.6 "/>
<linearGradient id="SVGID_2_" gradientUnits="userSpaceOnUse" x1="181.9" y1="418.5282" x2="181.9" y2="259.781" gradientTransform="matrix(1 0 0 -1 0 902.2)">
	<stop  offset="0" style="stop-color:#FF7300"/>
	<stop  offset="0.1771" style="stop-color:#F97C01"/>
	<stop  offset="0.4705" style="stop-color:#EA9602"/>
	<stop  offset="0.5521" style="stop-color:#E59E03"/>
	<stop  offset="0.8652" style="stop-color:#E5C500"/>
</linearGradient>
<polygon class="st1" points="241.5,477.1 278.2,513.9 155.9,636.2 85.6,565.9 122.3,529.1 155.9,562.7 "/>
<linearGradient id="SVGID_3_" gradientUnits="userSpaceOnUse" x1="181.9" y1="574.4282" x2="181.9" y2="415.681" gradientTransform="matrix(1 0 0 -1 0 902.2)">
	<stop  offset="0" style="stop-color:#FF7300"/>
	<stop  offset="0.1771" style="stop-color:#F97C01"/>
	<stop  offset="0.4705" style="stop-color:#EA9602"/>
	<stop  offset="0.5521" style="stop-color:#E59E03"/>
	<stop  offset="0.8652" style="stop-color:#E5C500"/>
</linearGradient>
<polygon class="st2" points="241.5,321.2 278.2,358 155.9,480.3 85.6,409.9 122.3,373.2 155.9,406.8 "/>
<linearGradient id="SVGID_4_" gradientUnits="userSpaceOnUse" x1="441.7" y1="534.4757" x2="441.7" y2="482.6047" gradientTransform="matrix(1 0 0 -1 0 902.2)">
	<stop  offset="0" style="stop-color:#FF7300"/>
	<stop  offset="0.1771" style="stop-color:#F97C01"/>
	<stop  offset="0.4705" style="stop-color:#EA9602"/>
	<stop  offset="0.5521" style="stop-color:#E59E03"/>
	<stop  offset="0.8652" style="stop-color:#E5C500"/>
</linearGradient>
<rect x="311.8" y="365.6" class="st3" width="259.8" height="52"/>
<linearGradient id="SVGID_5_" gradientUnits="userSpaceOnUse" x1="441.7" y1="378.5757" x2="441.7" y2="326.7047" gradientTransform="matrix(1 0 0 -1 0 902.2)">
	<stop  offset="0" style="stop-color:#FF7300"/>
	<stop  offset="0.1771" style="stop-color:#F97C01"/>
	<stop  offset="0.4705" style="stop-color:#EA9602"/>
	<stop  offset="0.5521" style="stop-color:#E59E03"/>
	<stop  offset="0.8652" style="stop-color:#E5C500"/>
</linearGradient>
<rect x="311.8" y="521.5" class="st4" width="259.8" height="52"/>
<linearGradient id="SVGID_6_" gradientUnits="userSpaceOnUse" x1="441.7" y1="222.6757" x2="441.7" y2="170.8047" gradientTransform="matrix(1 0 0 -1 0 902.2)">
	<stop  offset="0" style="stop-color:#FF7300"/>
	<stop  offset="0.1771" style="stop-color:#F97C01"/>
	<stop  offset="0.4705" style="stop-color:#EA9602"/>
	<stop  offset="0.5521" style="stop-color:#E59E03"/>
	<stop  offset="0.8652" style="stop-color:#E5C500"/>
</linearGradient>
<rect x="311.8" y="677.4" class="st5" width="259.8" height="52"/>
<linearGradient id="SVGID_7_" gradientUnits="userSpaceOnUse" x1="337.8" y1="865.6774" x2="337.8" y2="-19.5241" gradientTransform="matrix(1 0 0 -1 0 902.2)">
	<stop  offset="0" style="stop-color:#FF7300"/>
	<stop  offset="0.1771" style="stop-color:#F97C01"/>
	<stop  offset="0.4705" style="stop-color:#EA9602"/>
	<stop  offset="0.5521" style="stop-color:#E59E03"/>
	<stop  offset="0.8652" style="stop-color:#E5C500"/>
</linearGradient>
<path class="st6" d="M519.7,104V52H411.3c-10.7-30.3-39.6-52-73.5-52S275,21.7,264.3,52H155.9v52H0v783h675.6V104L519.7,104
	L519.7,104z M207.9,104h103.9V78c0-14.3,11.6-26,26-26c14.4,0,26,11.7,26,26v26h103.9v52H207.9V104z M623.6,835H52V156h103.9v52
	h363.8v-52h103.9L623.6,835L623.6,835z"/>
<g>
	<path class="st7" d="M519.7,104V52H411.3c-10.7-30.3-39.6-52-73.5-52S275,21.7,264.3,52H155.9v52H0v783h675.6V104L519.7,104
		L519.7,104z M207.9,104h103.9V78c0-14.3,11.6-26,26-26c14.4,0,26,11.7,26,26v26h103.9v52H207.9V104z M623.6,835H52V156h103.9v52
		h363.8v-52h103.9L623.6,835L623.6,835z"/>
	<polygon class="st7" points="278.2,358 155.9,480.3 85.6,409.9 122.3,373.2 155.9,406.8 241.5,321.2 	"/>
	<polygon class="st7" points="278.2,513.9 155.9,636.2 85.6,565.9 122.3,529.1 155.9,562.7 241.5,477.1 	"/>
	<polygon class="st7" points="278.2,669.8 155.9,792.1 85.6,721.7 122.3,685 155.9,718.6 241.5,633 	"/>
	<rect x="311.8" y="365.6" class="st7" width="259.8" height="52"/>
	<rect x="311.8" y="521.5" class="st7" width="259.8" height="52"/>
	<rect x="311.8" y="677.4" class="st7" width="259.8" height="52"/>
</g>
</svg>
