<?xml version="1.0" encoding="utf-8"?>
<!-- Generator: Adobe Illustrator 24.0.1, SVG Export Plug-In . SVG Version: 6.00 Build 0)  -->
<svg version="1.1" id="Layer_5" xmlns="http://www.w3.org/2000/svg" xmlns:xlink="http://www.w3.org/1999/xlink" x="0px" y="0px"
	 viewBox="0 0 512 512" style="enable-background:new 0 0 512 512;" xml:space="preserve">
<style type="text/css">
	.st0{fill:url(#SVGID_1_);}
	.st1{fill:url(#SVGID_2_);}
	.st2{fill:url(#SVGID_3_);}
	.st3{fill:url(#SVGID_4_);}
	.st4{fill:url(#SVGID_5_);}
	.st5{fill:url(#SVGID_6_);}
	.st6{fill:url(#SVGID_7_);}
	.st7{fill:url(#SVGID_8_);}
	.st8{fill:url(#SVGID_9_);}
	.st9{fill:url(#SVGID_10_);}
	.st10{fill:url(#SVGID_11_);}
	.st11{fill:url(#SVGID_12_);}
	.st12{fill:url(#SVGID_13_);}
	.st13{fill:none;}
</style>
<linearGradient id="SVGID_1_" gradientUnits="userSpaceOnUse" x1="140.15" y1="375.915" x2="140.15" y2="394.4277">
	<stop  offset="0" style="stop-color:#FF7300"/>
	<stop  offset="0.1771" style="stop-color:#F97C01"/>
	<stop  offset="0.4705" style="stop-color:#EA9602"/>
	<stop  offset="0.5521" style="stop-color:#E59E03"/>
	<stop  offset="0.8652" style="stop-color:#E5C500"/>
	<stop  offset="0.9944" style="stop-color:#BF6F00"/>
</linearGradient>
<rect x="132.2" y="376" class="st0" width="16" height="16"/>
<linearGradient id="SVGID_2_" gradientUnits="userSpaceOnUse" x1="188.15" y1="311.915" x2="188.15" y2="330.4277">
	<stop  offset="0" style="stop-color:#FF7300"/>
	<stop  offset="0.1771" style="stop-color:#F97C01"/>
	<stop  offset="0.4705" style="stop-color:#EA9602"/>
	<stop  offset="0.5521" style="stop-color:#E59E03"/>
	<stop  offset="0.8652" style="stop-color:#E5C500"/>
	<stop  offset="0.9944" style="stop-color:#BF6F00"/>
</linearGradient>
<rect x="132.2" y="312" class="st1" width="112" height="16"/>
<linearGradient id="SVGID_3_" gradientUnits="userSpaceOnUse" x1="188.15" y1="343.915" x2="188.15" y2="362.4277">
	<stop  offset="0" style="stop-color:#FF7300"/>
	<stop  offset="0.1771" style="stop-color:#F97C01"/>
	<stop  offset="0.4705" style="stop-color:#EA9602"/>
	<stop  offset="0.5521" style="stop-color:#E59E03"/>
	<stop  offset="0.8652" style="stop-color:#E5C500"/>
	<stop  offset="0.9944" style="stop-color:#BF6F00"/>
</linearGradient>
<rect x="132.2" y="344" class="st2" width="112" height="16"/>
<linearGradient id="SVGID_4_" gradientUnits="userSpaceOnUse" x1="204.15" y1="375.915" x2="204.15" y2="394.4277">
	<stop  offset="0" style="stop-color:#FF7300"/>
	<stop  offset="0.1771" style="stop-color:#F97C01"/>
	<stop  offset="0.4705" style="stop-color:#EA9602"/>
	<stop  offset="0.5521" style="stop-color:#E59E03"/>
	<stop  offset="0.8652" style="stop-color:#E5C500"/>
	<stop  offset="0.9944" style="stop-color:#BF6F00"/>
</linearGradient>
<rect x="164.2" y="376" class="st3" width="80" height="16"/>
<linearGradient id="SVGID_5_" gradientUnits="userSpaceOnUse" x1="196.15" y1="183.4065" x2="196.15" y2="312.9955">
	<stop  offset="0" style="stop-color:#FF7300"/>
	<stop  offset="0.1771" style="stop-color:#F97C01"/>
	<stop  offset="0.4705" style="stop-color:#EA9602"/>
	<stop  offset="0.5521" style="stop-color:#E59E03"/>
	<stop  offset="0.8652" style="stop-color:#E5C500"/>
	<stop  offset="0.9944" style="stop-color:#BF6F00"/>
</linearGradient>
<path class="st4" d="M132.2,184v112h128V184H132.2z M244.2,280h-96v-80h96V280z"/>
<linearGradient id="SVGID_6_" gradientUnits="userSpaceOnUse" x1="284.15" y1="279.915" x2="284.15" y2="298.4277">
	<stop  offset="0" style="stop-color:#FF7300"/>
	<stop  offset="0.1771" style="stop-color:#F97C01"/>
	<stop  offset="0.4705" style="stop-color:#EA9602"/>
	<stop  offset="0.5521" style="stop-color:#E59E03"/>
	<stop  offset="0.8652" style="stop-color:#E5C500"/>
	<stop  offset="0.9944" style="stop-color:#BF6F00"/>
</linearGradient>
<rect x="276.2" y="280" class="st5" width="16" height="16"/>
<linearGradient id="SVGID_7_" gradientUnits="userSpaceOnUse" x1="220.15" y1="407.6608" x2="220.15" y2="481.7116">
	<stop  offset="0" style="stop-color:#FF7300"/>
	<stop  offset="0.1771" style="stop-color:#F97C01"/>
	<stop  offset="0.4705" style="stop-color:#EA9602"/>
	<stop  offset="0.5521" style="stop-color:#E59E03"/>
	<stop  offset="0.8652" style="stop-color:#E5C500"/>
	<stop  offset="0.9944" style="stop-color:#BF6F00"/>
</linearGradient>
<path class="st6" d="M132.2,408v64h176v-64H132.2z M292.2,456h-144v-32h144V456z"/>
<linearGradient id="SVGID_8_" gradientUnits="userSpaceOnUse" x1="316.15" y1="183.915" x2="316.15" y2="202.4277">
	<stop  offset="0" style="stop-color:#FF7300"/>
	<stop  offset="0.1771" style="stop-color:#F97C01"/>
	<stop  offset="0.4705" style="stop-color:#EA9602"/>
	<stop  offset="0.5521" style="stop-color:#E59E03"/>
	<stop  offset="0.8652" style="stop-color:#E5C500"/>
	<stop  offset="0.9944" style="stop-color:#BF6F00"/>
</linearGradient>
<rect x="276.2" y="184" class="st7" width="80" height="16"/>
<linearGradient id="SVGID_9_" gradientUnits="userSpaceOnUse" x1="316.15" y1="215.915" x2="316.15" y2="234.4277">
	<stop  offset="0" style="stop-color:#FF7300"/>
	<stop  offset="0.1771" style="stop-color:#F97C01"/>
	<stop  offset="0.4705" style="stop-color:#EA9602"/>
	<stop  offset="0.5521" style="stop-color:#E59E03"/>
	<stop  offset="0.8652" style="stop-color:#E5C500"/>
	<stop  offset="0.9944" style="stop-color:#BF6F00"/>
</linearGradient>
<rect x="276.2" y="216" class="st8" width="80" height="16"/>
<linearGradient id="SVGID_10_" gradientUnits="userSpaceOnUse" x1="316.15" y1="247.915" x2="316.15" y2="266.4277">
	<stop  offset="0" style="stop-color:#FF7300"/>
	<stop  offset="0.1771" style="stop-color:#F97C01"/>
	<stop  offset="0.4705" style="stop-color:#EA9602"/>
	<stop  offset="0.5521" style="stop-color:#E59E03"/>
	<stop  offset="0.8652" style="stop-color:#E5C500"/>
	<stop  offset="0.9944" style="stop-color:#BF6F00"/>
</linearGradient>
<rect x="276.2" y="248" class="st9" width="80" height="16"/>
<linearGradient id="SVGID_11_" gradientUnits="userSpaceOnUse" x1="348.15" y1="279.915" x2="348.15" y2="298.4277">
	<stop  offset="0" style="stop-color:#FF7300"/>
	<stop  offset="0.1771" style="stop-color:#F97C01"/>
	<stop  offset="0.4705" style="stop-color:#EA9602"/>
	<stop  offset="0.5521" style="stop-color:#E59E03"/>
	<stop  offset="0.8652" style="stop-color:#E5C500"/>
	<stop  offset="0.9944" style="stop-color:#BF6F00"/>
</linearGradient>
<rect x="308.2" y="280" class="st10" width="80" height="16"/>
<linearGradient id="SVGID_12_" gradientUnits="userSpaceOnUse" x1="324.15" y1="311.576" x2="324.15" y2="404.1396">
	<stop  offset="0" style="stop-color:#FF7300"/>
	<stop  offset="0.1771" style="stop-color:#F97C01"/>
	<stop  offset="0.4705" style="stop-color:#EA9602"/>
	<stop  offset="0.5521" style="stop-color:#E59E03"/>
	<stop  offset="0.8652" style="stop-color:#E5C500"/>
	<stop  offset="0.9944" style="stop-color:#BF6F00"/>
</linearGradient>
<path class="st11" d="M260.2,312v80h128v-80H260.2z M372.2,376h-96v-48h96V376z"/>
<linearGradient id="SVGID_13_" gradientUnits="userSpaceOnUse" x1="259.785" y1="5.3726" x2="259.785" y2="579.2664">
	<stop  offset="0" style="stop-color:#FF7300"/>
	<stop  offset="0.1771" style="stop-color:#F97C01"/>
	<stop  offset="0.4705" style="stop-color:#EA9602"/>
	<stop  offset="0.5521" style="stop-color:#E59E03"/>
	<stop  offset="0.8652" style="stop-color:#E5C500"/>
	<stop  offset="0.9944" style="stop-color:#BF6F00"/>
</linearGradient>
<path class="st12" d="M60.2,168h-16c0,17.7,14.3,32,32,32v-16C67.3,184,60.2,176.8,60.2,168z M100.2,112c0,3,0.2,6,0.6,9l15.9-2
	c-0.3-2.3-0.4-4.6-0.4-7c0-30.9,25.1-56,56-56V40C132.5,40,100.2,72.3,100.2,112z M292.2,88v16c10.2,0,19.5,4.7,25.6,12.8l12.8-9.6
	C321.4,95,307.4,88,292.2,88z M292.2,88v16c10.2,0,19.5,4.7,25.6,12.8l12.8-9.6C321.4,95,307.4,88,292.2,88z M100.2,112
	c0,3,0.2,6,0.6,9l15.9-2c-0.3-2.3-0.4-4.6-0.4-7c0-30.9,25.1-56,56-56V40C132.5,40,100.2,72.3,100.2,112z M60.2,168h-16
	c0,17.7,14.3,32,32,32v-16C67.3,184,60.2,176.8,60.2,168z M420.2,9.9L361,95.4C346.7,71.3,320.7,56,292.2,56
	c-10.1,0-19.9,1.9-29.2,5.5C244.8,28.8,209.9,8,172.2,8c-54.8,0-99.9,42.6-103.7,96.5c-31.7,3.8-56.3,30.9-56.3,63.5
	c0,35.3,28.7,64,64,64h24v272h235.3l84.7-84.7V256h48V136h39.3L420.2,9.9z M100.2,216h-24c-26.5,0-48-21.5-48-48
	c0-26.5,21.5-48,48-48h8v-8c0-48.5,39.5-88,88-88c34.2,0,65.6,20.1,79.9,51.3l3.5,7.6l7.4-3.8c9.2-4.7,19-7.1,29.2-7.1
	c25.2,0,48,14.8,58.6,38.2L332.9,136h39.3v16h-272V216z M340.2,476.7V424h52.7L340.2,476.7z M404.2,408h-80v80h-208V168h256v88h32
	V408z M452.2,120v120h-64V120h-24.7l56.7-81.9l56.7,81.9H452.2z M292.2,88v16c10.2,0,19.5,4.7,25.6,12.8l12.8-9.6
	C321.4,95,307.4,88,292.2,88z M100.2,112c0,3,0.2,6,0.6,9l15.9-2c-0.3-2.3-0.4-4.6-0.4-7c0-30.9,25.1-56,56-56V40
	C132.5,40,100.2,72.3,100.2,112z M60.2,168h-16c0,17.7,14.3,32,32,32v-16C67.3,184,60.2,176.8,60.2,168z"/>
<g>
	<path class="st13" d="M420.2,9.9L361,95.4C346.7,71.3,320.7,56,292.2,56c-10.1,0-19.9,1.9-29.2,5.5C244.8,28.8,209.9,8,172.2,8
		c-54.8,0-99.9,42.6-103.7,96.5c-31.7,3.8-56.3,30.9-56.3,63.5c0,35.3,28.7,64,64,64h24v272h235.3l84.7-84.7V256h48V136h39.3
		L420.2,9.9z M100.2,216h-24c-26.5,0-48-21.5-48-48c0-26.5,21.5-48,48-48h8v-8c0-48.5,39.5-88,88-88c34.2,0,65.6,20.1,79.9,51.3
		l3.5,7.6l7.4-3.8c9.2-4.7,19-7.1,29.2-7.1c25.2,0,48,14.8,58.6,38.2L332.9,136h39.3v16h-272V216z M340.2,476.7V424h52.7
		L340.2,476.7z M404.2,408h-80v80h-208V168h256v88h32V408z M452.2,120v120h-64V120h-24.7l56.7-81.9l56.7,81.9H452.2z"/>
	<path class="st13" d="M132.2,408v64h176v-64H132.2z M292.2,456h-144v-32h144V456z"/>
	<path class="st13" d="M132.2,184v112h128V184H132.2z M244.2,280h-96v-80h96V280z"/>
	<rect x="276.2" y="184" class="st13" width="80" height="16"/>
	<rect x="276.2" y="216" class="st13" width="80" height="16"/>
	<rect x="276.2" y="248" class="st13" width="80" height="16"/>
	<rect x="276.2" y="280" class="st13" width="16" height="16"/>
	<rect x="308.2" y="280" class="st13" width="80" height="16"/>
	<path class="st13" d="M260.2,312v80h128v-80H260.2z M372.2,376h-96v-48h96V376z"/>
	<rect x="132.2" y="312" class="st13" width="112" height="16"/>
	<rect x="132.2" y="344" class="st13" width="112" height="16"/>
	<rect x="132.2" y="376" class="st13" width="16" height="16"/>
	<rect x="164.2" y="376" class="st13" width="80" height="16"/>
	<path class="st13" d="M76.2,184v16c-17.7,0-32-14.3-32-32h16C60.2,176.8,67.3,184,76.2,184z"/>
	<path class="st13" d="M172.2,40v16c-30.9,0-56,25.1-56,56c0,2.4,0.1,4.7,0.4,7l-15.9,2c-0.4-3-0.6-6-0.6-9
		C100.2,72.3,132.5,40,172.2,40z"/>
	<path class="st13" d="M330.5,107.2l-12.8,9.6c-6.1-8.1-15.4-12.8-25.6-12.8V88C307.4,88,321.4,95,330.5,107.2z"/>
</g>
</svg>
