<?xml version="1.0" encoding="utf-8"?>
<!-- Generator: Adobe Illustrator 24.0.1, SVG Export Plug-In . SVG Version: 6.00 Build 0)  -->
<svg version="1.1" id="Layer_5" xmlns="http://www.w3.org/2000/svg" xmlns:xlink="http://www.w3.org/1999/xlink" x="0px" y="0px"
	 viewBox="0 0 512 512" style="enable-background:new 0 0 512 512;" xml:space="preserve">
<style type="text/css">
	.st0{fill:url(#SVGID_1_);}
	.st1{fill:url(#SVGID_2_);}
	.st2{fill:none;}
</style>
<linearGradient id="SVGID_1_" gradientUnits="userSpaceOnUse" x1="256.0085" y1="88.8315" x2="256.0085" y2="363.7104">
	<stop  offset="0" style="stop-color:#FF7300"/>
	<stop  offset="0.1771" style="stop-color:#F97C01"/>
	<stop  offset="0.4705" style="stop-color:#EA9602"/>
	<stop  offset="0.5521" style="stop-color:#E59E03"/>
	<stop  offset="0.8652" style="stop-color:#E5C500"/>
	<stop  offset="0.9944" style="stop-color:#BF6F00"/>
</linearGradient>
<path class="st0" d="M256,117.1c-25.4,0-46,20.6-46,46c0,25.4,20.6,46,46,46c25.4,0,46-20.6,46-46C302,137.7,281.4,117.1,256,117.1z
	 M256,195.1c-17.7,0-32-14.3-32-32c0-17.6,14.3-32,32-32c17.7,0,32,14.3,32,32C288,180.8,273.7,195.1,256,195.1z M256,117.1
	c-25.4,0-46,20.6-46,46c0,25.4,20.6,46,46,46c25.4,0,46-20.6,46-46C302,137.7,281.4,117.1,256,117.1z M256,195.1
	c-17.7,0-32-14.3-32-32c0-17.6,14.3-32,32-32c17.7,0,32,14.3,32,32C288,180.8,273.7,195.1,256,195.1z M338.9,125.8
	c-21.2-22.5-50.7-35.4-81.6-35.7c-0.4,0-0.8,0-1.2,0c-30.5,0-59.7,12.2-81.1,34c-22.1,22.2-34.6,52.2-34.8,83.6
	c-0.7,65.5,50.7,119.3,114.6,120c0.4,0,0.8,0,1.2,0c63.3,0,115.2-52.5,115.9-117.5C372.3,178.8,360.5,148.5,338.9,125.8z M256,313.7
	c-0.4,0-0.7,0-1.1,0c-20.4-0.2-40.2-6.7-56.8-18.6c1.3-31,26.9-55.4,57.9-55.4c31,0,56.5,24.4,57.9,55.4
	C297,307.1,276.8,313.7,256,313.7z M326.7,284.2c-6.4-34-36.1-58.6-70.7-58.6c-34.6,0-64.3,24.6-70.7,58.6
	c-41.4-41.5-41.6-108.6-0.5-150.3c19-19.4,45.1-30.1,72.3-29.8c27.2,0.3,53,11.6,71.6,31.4C368.4,177.5,367.5,243.3,326.7,284.2z
	 M256,117.1c-25.4,0-46,20.6-46,46c0,25.4,20.6,46,46,46c25.4,0,46-20.6,46-46C302,137.7,281.4,117.1,256,117.1z M256,195.1
	c-17.7,0-32-14.3-32-32c0-17.6,14.3-32,32-32c17.7,0,32,14.3,32,32C288,180.8,273.7,195.1,256,195.1z"/>
<linearGradient id="SVGID_2_" gradientUnits="userSpaceOnUse" x1="256" y1="48.3228" x2="256" y2="523.8679">
	<stop  offset="0" style="stop-color:#FF7300"/>
	<stop  offset="0.1771" style="stop-color:#F97C01"/>
	<stop  offset="0.4705" style="stop-color:#EA9602"/>
	<stop  offset="0.5521" style="stop-color:#E59E03"/>
	<stop  offset="0.8652" style="stop-color:#E5C500"/>
	<stop  offset="0.9944" style="stop-color:#BF6F00"/>
</linearGradient>
<path class="st1" d="M422.6,210.3c-2.8-42.1-20.7-81.7-50.4-111.6C341.4,67.8,299.6,50.5,256,50.5s-85.4,17.4-116.2,48.2
	c-29.7,29.9-47.6,69.5-50.4,111.6c-1.5,23,1.9,46.1,9.9,67.7c7.9,21.6,20.7,41.9,38,60.4l113.5,120.9c1.3,1.4,3.2,2.2,5.1,2.2
	c1.9,0,3.8-0.8,5.1-2.2l113.5-120.9c17.4-18.5,30.2-38.8,38-60.4C420.7,256.4,424,233.3,422.6,210.3z M399.5,273.2
	c-7.2,19.8-19,38.5-35.1,55.6L256,444.3L147.6,328.8c-16.1-17.1-27.9-35.8-35.1-55.6c-7.4-19.8-10.5-40.9-9.1-62
	c2.5-38.7,19-75.2,46.3-102.7c28.2-28.2,66.4-44.1,106.3-44.1s78.1,15.9,106.3,44.1c27.3,27.5,43.8,64,46.3,102.7
	C409.9,232.3,406.8,253.5,399.5,273.2z"/>
<g>
	<path class="st2" d="M422.6,210.3c-2.8-42.1-20.7-81.7-50.4-111.6C341.4,67.8,299.6,50.5,256,50.5s-85.4,17.4-116.2,48.2
		c-29.7,29.9-47.6,69.5-50.4,111.6c-1.5,23,1.9,46.1,9.9,67.7c7.9,21.6,20.7,41.9,38,60.4l113.5,120.9c1.3,1.4,3.2,2.2,5.1,2.2
		c1.9,0,3.8-0.8,5.1-2.2l113.5-120.9c17.4-18.5,30.2-38.8,38-60.4C420.7,256.4,424,233.3,422.6,210.3z M399.5,273.2
		c-7.2,19.8-19,38.5-35.1,55.6L256,444.3L147.6,328.8c-16.1-17.1-27.9-35.8-35.1-55.6c-7.4-19.8-10.5-40.9-9.1-62
		c2.5-38.7,19-75.2,46.3-102.7c28.2-28.2,66.4-44.1,106.3-44.1s78.1,15.9,106.3,44.1c27.3,27.5,43.8,64,46.3,102.7
		C409.9,232.3,406.8,253.5,399.5,273.2z"/>
	<path class="st2" d="M338.9,125.8c-21.2-22.5-50.7-35.4-81.6-35.7c-0.4,0-0.8,0-1.2,0c-30.5,0-59.7,12.2-81.1,34
		c-22.1,22.2-34.6,52.2-34.8,83.6c-0.7,65.5,50.7,119.3,114.6,120c0.4,0,0.8,0,1.2,0c63.3,0,115.2-52.5,115.9-117.5
		C372.3,178.8,360.5,148.5,338.9,125.8z M256,313.7c-0.4,0-0.7,0-1.1,0c-20.4-0.2-40.2-6.7-56.8-18.6c1.3-31,26.9-55.4,57.9-55.4
		c31,0,56.5,24.4,57.9,55.4C297,307.1,276.8,313.7,256,313.7z M326.7,284.2c-6.4-34-36.1-58.6-70.7-58.6
		c-34.6,0-64.3,24.6-70.7,58.6c-41.4-41.5-41.6-108.6-0.5-150.3c19-19.4,45.1-30.1,72.3-29.8c27.2,0.3,53,11.6,71.6,31.4
		C368.4,177.5,367.5,243.3,326.7,284.2z"/>
	<path class="st2" d="M256,117.1c-25.4,0-46,20.6-46,46c0,25.4,20.6,46,46,46c25.4,0,46-20.6,46-46C302,137.7,281.4,117.1,256,117.1
		z M256,195.1c-17.7,0-32-14.3-32-32c0-17.6,14.3-32,32-32c17.7,0,32,14.3,32,32C288,180.8,273.7,195.1,256,195.1z"/>
</g>
</svg>
