<svg id="Group_324" data-name="Group 324" xmlns="http://www.w3.org/2000/svg" width="40.891" height="30.667" viewBox="0 0 40.891 30.667">
  <g id="Group_323" data-name="Group 323">
    <g id="Group_322" data-name="Group 322">
      <path id="Path_867" data-name="Path 867" d="M97.913,121.729c5.612,4.753,15.461,13.115,18.355,15.722a1.706,1.706,0,0,0,2.472,0c2.9-2.609,12.744-10.972,18.357-15.725a.852.852,0,0,0,.12-1.176,3.382,3.382,0,0,0-2.674-1.313H100.467a3.385,3.385,0,0,0-2.674,1.313A.854.854,0,0,0,97.913,121.729Z" transform="translate(-97.06 -119.24)" fill="#fff"/>
      <path id="Path_868" data-name="Path 868" d="M135.388,142.971a.842.842,0,0,0-.908.124c-6.224,5.275-14.167,12.038-16.667,14.289a3.452,3.452,0,0,1-4.755,0c-2.664-2.4-11.583-9.981-16.664-14.289a.852.852,0,0,0-1.4.649v21.423a3.411,3.411,0,0,0,3.408,3.408h34.075a3.411,3.411,0,0,0,3.408-3.408V143.744A.85.85,0,0,0,135.388,142.971Z" transform="translate(-94.99 -137.906)" fill="#fff"/>
    </g>
  </g>
</svg>
