<svg xmlns="http://www.w3.org/2000/svg" width="213.885" height="187.032" viewBox="0 0 213.885 187.032">
  <g id="apply_training" data-name="apply training" transform="translate(-82 -129)">
    <path id="Path_902" data-name="Path 902" d="M262.764,202.809H229.21a6.268,6.268,0,0,0,0,12.535h33.554a6.268,6.268,0,0,0,0-12.535Zm0-23.49H229.21a6.268,6.268,0,0,0,0,12.535h33.554a6.268,6.268,0,0,0,0-12.535Zm0-23.49H195.656a6.268,6.268,0,0,0,0,12.535h67.108a6.268,6.268,0,0,0,0-12.535Zm6.268,6.268a6.263,6.263,0,0,0-6.268-6.268H195.656a6.268,6.268,0,0,0,0,12.535h67.108A6.263,6.263,0,0,0,269.032,162.1Zm-6.268,17.223H229.21a6.268,6.268,0,0,0,0,12.535h33.554a6.268,6.268,0,0,0,0-12.535Zm0,23.49H229.21a6.268,6.268,0,0,0,0,12.535h33.554a6.268,6.268,0,0,0,0-12.535ZM276.191,129H182.229a19.724,19.724,0,0,0-19.694,19.694v60.28l-17.452-8.662c-.586-.306-1.2-.56-1.783-.841a29.765,29.765,0,1,0-41.045,1.809A39.636,39.636,0,0,0,82,235.93v20.127a19.74,19.74,0,0,0,13.427,18.675v35.032a6.263,6.263,0,0,0,6.268,6.267h40.255a6.263,6.263,0,0,0,6.268-6.267v-70.42l20.051,10.038a17.186,17.186,0,0,0,22.8-7.185h22.471l-23.771,65.4a6.262,6.262,0,0,0,11.771,4.28l25.35-69.707h4.382l25.605,69.707a6.271,6.271,0,1,0,11.771-4.331l-24.025-65.4h31.567a19.691,19.691,0,0,0,19.694-19.694V148.694A19.691,19.691,0,0,0,276.191,129ZM121.822,161.662A17.223,17.223,0,1,1,104.6,178.885,17.234,17.234,0,0,1,121.822,161.662ZM180.369,235.5c-.025.051-.025.1-.051.153a4.63,4.63,0,0,1-6.446,2.522c-11.924-5.962-29.121-14.573-29.121-14.573a6.267,6.267,0,0,0-9.07,5.605v74.268h-27.72V269.484a6.263,6.263,0,0,0-6.268-6.268,7.165,7.165,0,0,1-7.159-7.159V235.93a27.286,27.286,0,0,1,27.287-27.287h5.529A27.478,27.478,0,0,1,139.5,211.5s31.083,15.465,39.006,19.389A3.762,3.762,0,0,1,180.369,235.5ZM283.35,222.5a7.13,7.13,0,0,1-2.089,5.07,7.238,7.238,0,0,1-5.07,2.089H192.446a.153.153,0,0,1-.025-.1l15.541-31.108a6.267,6.267,0,1,0-11.21-5.605l-13.274,26.522c-2.471-1.223-5.35-2.675-8.433-4.2v-66.5a7.165,7.165,0,0,1,7.159-7.159h93.962a7.238,7.238,0,0,1,5.07,2.089,7.086,7.086,0,0,1,2.089,5.07V222.5Zm-20.586-66.675H195.656a6.268,6.268,0,0,0,0,12.535h67.108a6.268,6.268,0,0,0,0-12.535Zm0,23.49H229.21a6.268,6.268,0,0,0,0,12.535h33.554a6.268,6.268,0,0,0,0-12.535Zm0,23.49H229.21a6.268,6.268,0,0,0,0,12.535h33.554a6.268,6.268,0,0,0,0-12.535Z" transform="translate(0)" fill="#e27115"/>
    <g id="Group_350" data-name="Group 350" transform="translate(82 129)">
      <path id="Path_903" data-name="Path 903" d="M276.191,129H182.229a19.724,19.724,0,0,0-19.694,19.694v60.28l-17.452-8.662c-.586-.306-1.2-.56-1.783-.841a29.765,29.765,0,1,0-41.045,1.809A39.636,39.636,0,0,0,82,235.93v20.127a19.74,19.74,0,0,0,13.427,18.675v35.032a6.263,6.263,0,0,0,6.268,6.267h40.255a6.263,6.263,0,0,0,6.268-6.267v-70.42l20.051,10.038a17.186,17.186,0,0,0,22.8-7.185h22.471l-23.771,65.4a6.262,6.262,0,0,0,11.771,4.28l25.35-69.707h4.382l25.605,69.707a6.271,6.271,0,1,0,11.771-4.331l-24.025-65.4h31.567a19.691,19.691,0,0,0,19.694-19.694V148.694A19.691,19.691,0,0,0,276.191,129ZM121.822,161.662A17.223,17.223,0,1,1,104.6,178.885,17.234,17.234,0,0,1,121.822,161.662ZM180.369,235.5c-.025.051-.025.1-.051.153a4.63,4.63,0,0,1-6.446,2.522c-11.924-5.962-29.121-14.573-29.121-14.573a6.267,6.267,0,0,0-9.07,5.605v74.268h-27.72V269.484a6.263,6.263,0,0,0-6.268-6.268,7.165,7.165,0,0,1-7.159-7.159V235.93a27.286,27.286,0,0,1,27.287-27.287h5.529A27.478,27.478,0,0,1,139.5,211.5s31.083,15.465,39.006,19.389A3.762,3.762,0,0,1,180.369,235.5ZM283.35,222.5a7.13,7.13,0,0,1-2.089,5.07,7.238,7.238,0,0,1-5.07,2.089H192.446a.153.153,0,0,1-.025-.1l15.541-31.108a6.267,6.267,0,1,0-11.21-5.605l-13.274,26.522c-2.471-1.223-5.35-2.675-8.433-4.2v-66.5a7.165,7.165,0,0,1,7.159-7.159h93.962a7.238,7.238,0,0,1,5.07,2.089,7.086,7.086,0,0,1,2.089,5.07V222.5Z" transform="translate(-82 -129)" fill="none"/>
      <path id="Path_904" data-name="Path 904" d="M583.143,240.568a6.263,6.263,0,0,1-6.268,6.268H509.767a6.268,6.268,0,0,1,0-12.535h67.108A6.279,6.279,0,0,1,583.143,240.568Z" transform="translate(-396.111 -207.472)" fill="none"/>
      <path id="Path_905" data-name="Path 905" d="M681.289,332.768a6.263,6.263,0,0,1-6.267,6.268H641.468a6.268,6.268,0,1,1,0-12.535h33.554A6.263,6.263,0,0,1,681.289,332.768Z" transform="translate(-494.257 -276.182)" fill="none"/>
      <path id="Path_906" data-name="Path 906" d="M681.289,424.967a6.263,6.263,0,0,1-6.267,6.268H641.468a6.268,6.268,0,1,1,0-12.535h33.554A6.279,6.279,0,0,1,681.289,424.967Z" transform="translate(-494.257 -344.891)" fill="none"/>
    </g>
  </g>
</svg>
