<?xml version="1.0" encoding="utf-8"?>
<!-- Generator: Adobe Illustrator 24.0.1, SVG Export Plug-In . SVG Version: 6.00 Build 0)  -->
<svg version="1.1" id="Layer_1" xmlns="http://www.w3.org/2000/svg" xmlns:xlink="http://www.w3.org/1999/xlink" x="0px" y="0px"
	 viewBox="0 0 697.6 727.8" style="enable-background:new 0 0 697.6 727.8;" xml:space="preserve">
<style type="text/css">
	.st0{fill:#FF7C00;}
</style>
<g>
	<path class="st0" d="M335.1,78.2c-73.5,0-133.1,59.6-133.1,133.1s59.6,133.1,133.1,133.1s133.1-59.6,133.1-133.1
		C468.3,137.8,408.6,78.2,335.1,78.2z M335.1,303.9c-51.2,0-92.6-41.4-92.6-92.6c0-50.9,41.4-92.6,92.6-92.6s92.6,41.4,92.6,92.6
		S386.4,303.9,335.1,303.9z"/>
	<path class="st0" d="M411.8,646.7h81.8c-47.3,26.1-101.2,40.9-158.4,40.9h-3.5C146.8,685.6-2,529.9,0,340.3
		c0.6-90.9,36.8-177.7,100.7-241.9C162.6,35.3,247.1,0,335.4,0h3.5c89.4,0.9,174.8,38.2,236.2,103.4
		c62.5,65.7,96.7,153.4,95.5,244.3c-0.7,67.5-20.5,130.3-54.1,183.1v-88.7H614c35.2-104.9,12.6-224.9-68.5-310.7
		c-53.8-57.3-128.5-90-207.2-90.9S184,70.6,129.1,126.7c-118.9,120.7-118.4,314.9,1.4,435c18.6-98.3,104.5-169.5,204.6-169.5
		c71.6,0,136,36.4,173.6,93.2V539h-17.6c-24.7-62.3-85.4-106-156-106c-89.7,0-163.8,70.6-167.6,160.3c48,34.4,105.3,53.3,164.4,53.8
		h3.2c26.1,0,51.9-3.6,76.7-10.5V646.7z"/>
	<polygon class="st0" points="697.6,555 697.6,630.8 600.6,630.8 600.6,727.8 524.7,727.8 524.7,630.8 427.7,630.8 427.7,555 
		524.7,555 524.7,458 600.6,458 600.6,555 	"/>
	<path class="st0" d="M575.1,103.4C513.7,38.2,428.3,0.9,338.9,0h-3.5c-88.3,0-172.8,35.3-234.7,98.4C36.7,162.7,0.6,249.5,0,340.3
		c-2,189.6,146.7,345.3,331.7,347.3h3.5c57.2,0,111.2-14.8,158.4-40.9h-81.8v-10.1c-24.8,6.9-50.6,10.5-76.7,10.5h-3.2
		c-59-0.6-116.3-19.4-164.4-53.8c3.8-89.7,77.9-160.3,167.6-160.3c70.6,0,131.3,43.7,156,106h17.7v-53.6
		c-37.7-56.8-102-93.2-173.7-93.2c-100.1,0-186.1,71.2-204.6,169.6c-119.8-120.1-120.4-314.3-1.4-435c55-56.1,130.5-87.1,209.2-86.2
		c78.7,0.9,153.4,33.6,207.2,90.9c81.1,85.7,103.7,205.7,68.4,310.5h2.5v88.7c33.5-52.8,53.3-115.6,54.1-183.1
		C671.7,256.7,637.6,169,575.1,103.4z"/>
	<path class="st0" d="M335.1,78.2c-73.5,0-133.1,59.6-133.1,133.1s59.6,133.1,133.1,133.1s133.1-59.6,133.1-133.1
		C468.3,137.8,408.6,78.2,335.1,78.2z M335.1,303.9c-51.2,0-92.6-41.4-92.6-92.6c0-50.9,41.4-92.6,92.6-92.6s92.6,41.4,92.6,92.6
		S386.4,303.9,335.1,303.9z"/>
	<g>
		<g>
			<polygon class="st0" points="697.6,555 697.6,630.8 600.6,630.8 600.6,727.8 524.7,727.8 524.7,630.8 427.7,630.8 427.7,555 
				524.7,555 524.7,458 600.6,458 600.6,555 			"/>
		</g>
	</g>
</g>
</svg>
