<svg xmlns="http://www.w3.org/2000/svg" width="37.735" height="46.127" viewBox="0 0 37.735 46.127">
  <g id="bell" transform="translate(-42.6)">
    <g id="Group_349" data-name="Group 349" transform="translate(42.6)">
      <path id="Path_901" data-name="Path 901" d="M78.989,33.234c-1.2-1.788-2.84-4.245-2.84-11.222V18.868A14.694,14.694,0,0,0,65.664,4.815V4.2a4.191,4.191,0,1,0-8.382,0v.619A14.694,14.694,0,0,0,46.8,18.868v3.145c0,6.977-1.641,9.434-2.84,11.222A5.922,5.922,0,0,0,42.6,36.693c0,3.42,7.124,4.619,12.9,5.031a6.242,6.242,0,0,0,11.93,0c5.778-.413,12.9-1.612,12.9-5.031A5.825,5.825,0,0,0,78.989,33.234ZM59.374,4.2a2.1,2.1,0,0,1,4.2,0v.167a13.2,13.2,0,0,0-4.186,0l-.01-.167Zm2.1,39.828a4.166,4.166,0,0,1-3.656-2.172c1.484.059,2.771.079,3.656.079s2.172-.02,3.656-.079A4.166,4.166,0,0,1,61.477,44.024Zm0-4.2c-9.6,0-16.774-1.661-16.774-3.145a4.015,4.015,0,0,1,.993-2.29c1.268-1.9,3.194-4.776,3.194-12.392V18.858a12.578,12.578,0,1,1,25.157,0V22c0,7.616,1.926,10.485,3.194,12.392a3.949,3.949,0,0,1,.993,2.29C78.242,38.167,71.078,39.828,61.477,39.828Z" transform="translate(-42.6)" fill="#fff"/>
    </g>
  </g>
</svg>
