<?xml version="1.0" encoding="utf-8"?>
<!-- Generator: Adobe Illustrator 24.0.1, SVG Export Plug-In . SVG Version: 6.00 Build 0)  -->
<svg version="1.1" id="Layer_1" xmlns="http://www.w3.org/2000/svg" xmlns:xlink="http://www.w3.org/1999/xlink" x="0px" y="0px"
	 viewBox="0 0 37.7 46.1" style="enable-background:new 0 0 37.7 46.1;" xml:space="preserve">
<style type="text/css">
	.st0{fill:#F34100;}
</style>
<g id="bell" transform="translate(-42.6)">
	<g id="Group_349" transform="translate(42.6)">
		<path id="Path_901" class="st0" d="M36.4,33.2c-1.2-1.8-2.8-4.2-2.8-11.2v-3.1c0-6.5-4.3-12.2-10.5-14.1V4.2
			c0-2.3-1.9-4.2-4.2-4.2c-2.3,0-4.2,1.9-4.2,4.2c0,0,0,0,0,0v0.6c-6.2,1.9-10.5,7.6-10.5,14V22c0,7-1.6,9.4-2.8,11.2
			c-0.8,1-1.3,2.2-1.4,3.5c0,3.4,7.1,4.6,12.9,5c1,3.3,4.5,5.1,7.8,4.1c2-0.6,3.5-2.2,4.1-4.1c5.8-0.4,12.9-1.6,12.9-5
			C37.7,35.4,37.2,34.2,36.4,33.2z M16.8,4.2c0-1.2,0.9-2.1,2.1-2.1C20,2.1,21,3,21,4.2v0.2c-1.4-0.2-2.8-0.2-4.2,0L16.8,4.2
			L16.8,4.2z M18.9,44c-1.5,0-2.9-0.8-3.7-2.2c1.5,0.1,2.8,0.1,3.7,0.1s2.2,0,3.7-0.1C21.8,43.2,20.4,44,18.9,44L18.9,44z
			 M18.9,39.8c-9.6,0-16.8-1.7-16.8-3.1c0.1-0.8,0.4-1.7,1-2.3c1.3-1.9,3.2-4.8,3.2-12.4v-3.1c0-6.9,5.6-12.6,12.6-12.6
			s12.6,5.6,12.6,12.6V22c0,7.6,1.9,10.5,3.2,12.4c0.6,0.6,0.9,1.4,1,2.3C35.6,38.2,28.5,39.8,18.9,39.8L18.9,39.8z"/>
	</g>
</g>
</svg>
