<svg xmlns="http://www.w3.org/2000/svg" width="37.167" height="37.165" viewBox="0 0 37.167 37.165">
  <path id="Path_866" data-name="Path 866" d="M123.185,113.405a21.089,21.089,0,0,1-6.627-1.055,2.912,2.912,0,0,0-2.946.621l-4.179,3.156A23.094,23.094,0,0,1,99.05,105.744l3.062-4.07a3.006,3.006,0,0,0,.74-3.044,21.157,21.157,0,0,1-1.059-6.638A2.986,2.986,0,0,0,98.81,89.01H91.984A2.985,2.985,0,0,0,89,91.991a34.223,34.223,0,0,0,34.185,34.185,2.987,2.987,0,0,0,2.982-2.982v-6.807A2.985,2.985,0,0,0,123.185,113.405Z" transform="translate(-89 -89.01)" fill="#fff"/>
</svg>
