<?xml version="1.0" encoding="utf-8"?>
<!-- Generator: Adobe Illustrator 24.0.1, SVG Export Plug-In . SVG Version: 6.00 Build 0)  -->
<svg version="1.1" id="Layer_1" xmlns="http://www.w3.org/2000/svg" xmlns:xlink="http://www.w3.org/1999/xlink" x="0px" y="0px"
	 viewBox="0 0 965.1 677.4" style="enable-background:new 0 0 965.1 677.4;" xml:space="preserve">
<style type="text/css">
	.st0{fill:#FF7C00;}
</style>
<g id="relocation" transform="translate(-91.26 -260.8)">
	<g id="Group_355" transform="translate(91.259 260.8)">
		<path id="Path_930" class="st0" d="M763.6,550.4c0.7,9.8-7,18.8-16.7,19.5h-0.7c-4.2,0.7-9.1,0.7-13.2,0H422.3
			c-101,0-202,0-303.7,0c-92.6,0-146.3-86.4-103.8-169.2c14.6-29.3,42.5-49.5,75.2-53.6c27.2-3.5,55-4.2,82.9-2.1
			c37.6,1.4,75.9-0.7,114.2-0.7c44.6,0,89.8,0,134.4,0c51.5,0,103.8,1.4,156,0c41.1-1.4,73.1-36.2,71.7-76.6
			c-1.4-39-32-69.6-71-71.7c-7.7-0.7-15.3,0-23,0H157c-5.6,0-11.1,0-16,0c-9.8,0-17.4-8.4-17.4-18.1c-1.4-9.8,5.6-18.8,15.3-20.2
			c3.5-0.7,7.7-0.7,11.1-0.7c141.4,0,282.8-0.7,424.2,0c74.5,0,128.2,67.6,112.1,137.9c-13.9,58.5-62.7,91.2-130.2,89.8
			c-54.3-1.4-109.4,0-163.7,0c-65.5,0-130.9-1.4-196.4-0.7c-27.9,0-55,0-82.9,0c-41.1,1.4-73.1,35.5-72.4,75.9
			c1.4,39.7,32.7,71.7,72.4,72.4c8.4,0,16,0,24.4,0h593.4c4.9,0,9.8,0,14.6,0c10.4,0,18.1,8.4,18.1,18.8
			C763.6,549.7,763.6,550.4,763.6,550.4z"/>
		<path id="Path_931" class="st0" d="M898,221c-59.9-30.6-133-7-163.7,52.9c-14.6,27.9-17.4,60.6-8.4,91.2
			c9.1,31.3,29.3,56.4,45.3,84.3c23,40.4,46.7,79.4,71,121.2c35.5-59.2,69-116.3,103.1-173.4c1.4-2.1,2.8-4.9,4.2-7
			c32.7-59.2,11.1-133.7-48.1-166.5C900.8,222.4,899.4,221.7,898,221z M922.4,329.6c-1.4,44.6-31.3,78-79.4,80.1
			c-42.5,0-80.1-35.5-79.4-76.6c0.7-52.9,37.6-81.5,80.1-82.2C886.2,250.2,924.5,287.1,922.4,329.6L922.4,329.6z"/>
		<path id="Path_932" class="st0" d="M99.8,151.3c0,24.4-19.5,44.6-44.6,44.6s-44.6-19.5-44.6-44.6c0-24.4,19.5-44.6,43.9-44.6
			C79.6,106.8,99.8,126.3,99.8,151.3L99.8,151.3z"/>
	</g>
	<path id="Path_933" class="st0" d="M101.5,412.8c-0.7-24.4,18.8-45.3,43.9-45.3c24.4-0.7,45.3,18.8,45.3,43.9
		c0.7,24.4-18.8,45.3-43.9,45.3c-0.7,0-1.4,0-1.4,0C121.7,456,102.2,436.5,101.5,412.8z"/>
	<path id="Path_934" class="st0" d="M854.5,811.2c0.7,9.8-7,18.8-16.7,19.5H837c-4.2,0.7-9.1,0.7-13.2,0H513.9c-101,0-202,0-303.7,0
		c-93.3,0-147-87.1-103.8-169.2c14.6-29.3,42.5-49.5,75.2-53.6c27.2-3.5,55-4.2,82.9-2.1c37.6,1.4,75.9-0.7,114.2-0.7
		c44.6,0,89.8,0,134.4,0c51.5,0,103.8,1.4,156,0c41.1-1.4,73.1-36.2,71.7-76.6c-1.4-39-32-69.6-71-71.7c-7.7-0.7-15.3,0-23,0H249.2
		c-5.6,0-11.1,0-16,0c-9.8,0-17.4-8.4-17.4-18.1c-1.4-9.8,5.6-18.8,15.3-20.2c3.5-0.7,7.7-0.7,11.1-0.7c141.4,0,282.8-0.7,424.2,0
		c74.5,0,128.2,67.6,112.1,137.9c-13.9,58.5-62.7,91.2-130.2,89.8c-54.3-1.4-109.4,0-163.7,0c-65.5,0-130.9-1.4-196.4-0.7
		c-27.9,0-55,0-82.9,0c-41.1,1.4-73.1,35.5-72.4,75.9c1.4,39.7,32.7,71.7,72.4,72.4c8.4,0,16,0,24.4,0h593.4c4.9,0,9.8,0,14.6,0
		c10.4,0,18.1,8.4,18.1,18.8C854.5,810.5,854.5,811.2,854.5,811.2z"/>
	<path id="Path_935" class="st0" d="M989.6,481.8c-59.9-30.6-133-7-163.7,52.9c-14.6,27.9-17.4,60.6-8.4,91.2
		c9.1,31.3,29.3,56.4,45.3,84.3c23,40.4,46.7,79.4,71,121.2c35.5-59.2,69-116.3,103.1-173.4c1.4-2.1,2.8-4.9,4.2-7
		c32.7-59.2,11.1-133.7-48.1-166.5C992.4,483.2,991,482.5,989.6,481.8z M1013.9,590.4c-1.4,44.6-31.3,78-79.4,80.1
		c-42.5,0-80.1-35.5-79.4-76.6c0.7-52.9,37.6-81.5,80.1-82.2C977,511,1015.3,547.9,1013.9,590.4L1013.9,590.4z"/>
</g>
</svg>
