<?xml version="1.0" encoding="utf-8"?>
<!-- Generator: Adobe Illustrator 24.0.1, SVG Export Plug-In . SVG Version: 6.00 Build 0)  -->
<svg version="1.1" id="Layer_5" xmlns="http://www.w3.org/2000/svg" xmlns:xlink="http://www.w3.org/1999/xlink" x="0px" y="0px"
	 viewBox="0 0 231.7 237.6" style="enable-background:new 0 0 231.7 237.6;" xml:space="preserve">
<style type="text/css">
	.st0{fill:#FF7C00;}
</style>
<path class="st0" d="M115.8,27c-25.4,0-46,20.6-46,46s20.6,46,46,46s46-20.6,46-46S141.2,27,115.8,27z M115.8,105
	c-17.7,0-32-14.3-32-32c0-17.6,14.3-32,32-32s32,14.3,32,32S133.5,105,115.8,105z M115.8,27c-25.4,0-46,20.6-46,46s20.6,46,46,46
	s46-20.6,46-46S141.2,27,115.8,27z M115.8,105c-17.7,0-32-14.3-32-32c0-17.6,14.3-32,32-32s32,14.3,32,32S133.5,105,115.8,105z
	 M198.7,35.7C177.5,13.2,148,0.3,117.1,0c-0.4,0-0.8,0-1.2,0C85.4,0,56.2,12.2,34.8,34C12.7,56.2,0.2,86.2,0,117.6
	c-0.7,65.5,50.7,119.3,114.6,120c0.4,0,0.8,0,1.2,0c63.3,0,115.2-52.5,115.9-117.5C232.1,88.7,220.3,58.4,198.7,35.7z M115.8,223.6
	c-0.4,0-0.7,0-1.1,0c-20.4-0.2-40.2-6.7-56.8-18.6c1.3-31,26.9-55.4,57.9-55.4s56.5,24.4,57.9,55.4
	C156.8,217,136.6,223.6,115.8,223.6z M186.5,194.1c-6.4-34-36.1-58.6-70.7-58.6s-64.3,24.6-70.7,58.6C3.7,152.6,3.5,85.5,44.6,43.8
	c19-19.4,45.1-30.1,72.3-29.8s53,11.6,71.6,31.4C228.2,87.4,227.3,153.2,186.5,194.1z M115.8,27c-25.4,0-46,20.6-46,46
	s20.6,46,46,46s46-20.6,46-46S141.2,27,115.8,27z M115.8,105c-17.7,0-32-14.3-32-32c0-17.6,14.3-32,32-32s32,14.3,32,32
	S133.5,105,115.8,105z"/>
</svg>
