<svg xmlns="http://www.w3.org/2000/svg" width="41.823" height="42.884" viewBox="0 0 41.823 42.884">
  <path id="sign_in" data-name="sign in" d="M160.995,142.073a8.3,8.3,0,1,0,8.3,8.3A8.3,8.3,0,0,0,160.995,142.073Zm0,14.078a5.776,5.776,0,1,1,5.776-5.776A5.769,5.769,0,0,1,160.995,156.151Zm0-14.078a8.3,8.3,0,1,0,8.3,8.3A8.3,8.3,0,0,0,160.995,142.073Zm0,14.078a5.776,5.776,0,1,1,5.776-5.776A5.769,5.769,0,0,1,160.995,156.151Zm14.963-12.508A20.521,20.521,0,0,0,161.23,137.2h-.217a20.494,20.494,0,0,0-14.638,6.137,21.573,21.573,0,0,0-6.281,15.089c-.126,11.822,9.151,21.532,20.684,21.659h.217c11.425,0,20.792-9.476,20.919-21.208A21.685,21.685,0,0,0,175.958,143.643Zm-14.963,33.914h-.2a17.887,17.887,0,0,1-10.252-3.357,10.461,10.461,0,0,1,20.9,0A18.061,18.061,0,0,1,160.995,177.558Zm12.761-5.324a12.986,12.986,0,0,0-25.521,0,19.266,19.266,0,0,1-.09-27.128,18.03,18.03,0,0,1,25.973.289A19.252,19.252,0,0,1,173.756,172.233Zm-12.761-30.16a8.3,8.3,0,1,0,8.3,8.3A8.3,8.3,0,0,0,160.995,142.073Zm0,14.078a5.776,5.776,0,1,1,5.776-5.776A5.769,5.769,0,0,1,160.995,156.151Z" transform="translate(-140.093 -137.2)" fill="#fff"/>
</svg>
