<?xml version="1.0" encoding="utf-8"?>
<!-- Generator: Adobe Illustrator 24.0.1, SVG Export Plug-In . SVG Version: 6.00 Build 0)  -->
<svg version="1.1" id="Layer_1" xmlns="http://www.w3.org/2000/svg" xmlns:xlink="http://www.w3.org/1999/xlink" x="0px" y="0px"
	 viewBox="0 0 100 100" style="enable-background:new 0 0 100 100;" xml:space="preserve">
<style type="text/css">
	.st0{opacity:0.5;}
	.st1{fill:#E3E1EC;}
	.st2{fill:#786EB2;}
	.st3{fill:#5A57A6;}
	.st4{opacity:0.382;fill:#786EB2;}
	.st5{fill:#463360;}
	.st6{opacity:0.3417;fill:#523D6B;}
	.st7{fill:#F4D6B1;}
	.st8{fill:#68411D;}
	.st9{opacity:0.4275;fill:#523D6B;}
	.st10{fill:#392A51;}
	.st11{fill:#2C3092;}
	.st12{fill:#E59E6E;}
	.st13{fill:#523D6B;}
	.st14{fill:#F35B55;}
	.st15{fill:#F6C1A2;}
	.st16{fill:#F5B485;}
	.st17{fill:#F4B226;}
	.st18{opacity:0.2801;fill:#F35B55;}
	.st19{opacity:0.4919;fill:#F6CBA1;}
	.st20{fill:#333333;}
	.st21{fill:#FFFFFF;}
	.st22{fill:#EAEAEA;}
	.st23{fill:#8C5C11;}
</style>
<g>
	<g class="st0">
		<path class="st1" d="M75.2,7.3c-7.2-2.7-15.9-1-21.5,4.4c-6.5,6.2-9,16.4-17,20.2c-6,2.8-13.2,1-19.6,2.4
			C7.7,36.4,0.9,45.6,0.1,55.1c-0.6,7.3,1.9,14.6,6,20.6c3.8,5.6,10.8,8.7,17.1,10.5c9.4,2.7,20,3.6,29.8,3.6
			c7.2,0,14.5-0.6,21.6-2.1c5.9-1.3,12-2.8,16.8-6.6c2.3-1.8,4.8-4.4,5.7-7.2c1.1-3.5,0.7-7.9-0.2-11.4c-1.6-5.7-4.8-10.9-7.2-16.3
			c-1.5-3.5-1.5-6.8-2-10.5c-0.5-4-0.8-8.1-1.5-12c-0.6-3.6-1.7-7.1-3.5-10.2C80.8,10.1,78.7,8.6,75.2,7.3z"/>
	</g>
	<g>
		<path class="st2" d="M40.5,59.7c2,3.5,3.2,7.4,3.5,11.4c0.2,2,0.1,4.1-0.1,6.1c-0.1,1.2,0.5,3.4-1.3,3.5c-0.8,0-1.6-0.5-2.4-0.7
			c-1.8-0.6-3.7,0-5.6,0.2c-1.5,0.2-3,0.1-4.5,0.1c-1.9-0.1-3.8-0.1-5.6-0.6c-1.8-0.5-3.6-1.3-4.8-2.8c-0.8-1-1.4-2.4-1-3.6
			c0.2-0.7,0.6-1.3,1.1-1.8c0.7-0.7,1.6-1.3,2.5-1.7c1.4-0.6,3.3-0.9,3.7-2.4c0.4-1.2-0.5-2.4-1.2-3.5c-0.6-1.1-1-2.8,0.1-3.4
			c0.8-0.5,2-0.1,2.9-0.6c1.2-0.6,1-2.4,0.7-3.7c-0.4-1.6-0.7-3.3-0.9-4.9c-0.2-1.3-0.1-3,1.1-3.6c1.3-0.5,2.6,0.7,3.3,1.9
			c0.7,1.2,1.2,2.5,1.5,3.9c0.2,1,0.4,2.1,0.9,3c1,1.6,2.1,0.7,3.5,1C39.2,57.6,39.9,58.7,40.5,59.7z"/>
	</g>
	<path class="st1" d="M27.4,31.5c-1.5,0.2-3,0.2-4.4,0.2c-1.5,0-3,0.1-4.4,0.2c-2.5,0.2-4.9,0.6-7.2,1.7c-0.6,0.3-1.2,0.6-1.8,1
		c-0.5,0.4-1.1,0.8-1.5,1.3c-0.1,0.1,0.1,0.3,0.2,0.2c0.2-0.1,0.5-0.3,0.7-0.5c0.2-0.2,0.5-0.4,0.8-0.5c0.5-0.3,1-0.6,1.5-0.9
		c1.1-0.5,2.2-0.9,3.3-1.2c2.6-0.6,5.3-0.7,7.9-0.8c1.6-0.1,3.2-0.2,4.9-0.4C27.6,31.7,27.6,31.5,27.4,31.5L27.4,31.5z"/>
	<g>
		<g>
			<path class="st3" d="M42.5,80.8c-0.1-0.4-3.2-1.1-3.7-1.3c-1.2-0.5-2.5-1-3.7-1.5c-2.1-0.9-4.7-1.8-6.5-3.2
				c-0.3-0.3-0.7-0.6-0.7-1c0-0.4,0.3-0.7,0.7-0.9c0.4-0.1,0.8,0,1.2,0.1c0.1,0,0.3,0.1,0.4,0c0.2-0.1,0.3-0.4,0.2-0.6
				c-0.1-0.2-0.3-0.4-0.5-0.5c-1.5-1-3.2-1.5-4.7-2.4c-1.4-0.8-2.9-2.2-3.1-3.8c-0.3-1.6,1.3-2.7,1.5-4.2c0.1-1.2-0.6-2.3-1.2-3.4
				c-0.6-1.1-1-2.4-0.4-3.5c0.8-1.3,2.8-1.2,3.9-0.3c1.2,0.9,1.8,2.3,2.5,3.6c0.6,1,1.5,2.7,2.4,3.4c0.5,0.4,1.3,0.5,1.8,0.2
				c0.3-0.2,0.5-0.6,0.8-0.9c1-1.1,3-0.5,3.8,0.7c0.8,1.2,0.7,2.8,0.4,4.3c-0.1,0.6-0.3,1.3-0.2,1.9c0.1,0.6,0.7,1.2,1.3,1.1
				c0.4-0.1,0.7-0.4,1.1-0.4c0.5,0,0.9,0.4,1,0.8c0.1,0.4,0.1,0.9,0.1,1.4C40.5,74.2,41.3,77.4,42.5,80.8z"/>
		</g>
		<path class="st4" d="M23.9,56c1.2,3.6,2.8,7.1,4.8,10.2c0,0.1,0.1,0.3,0.1,0.4c0,0.1,0.2,0.1,0.2,0.1c0.1,0.2,0.2,0.3,0.3,0.5
			c-1.8-1.3-3.5-2.4-5-4.1c-0.1-0.1-0.2,0-0.2,0.1c1.6,1.8,3.4,3.7,5.6,4.6c0,0,0,0,0,0c2.4,3.4,5.4,6.8,8.9,9
			c0.2,0.1,0.4-0.1,0.2-0.2c-1.6-1.5-3.2-2.9-4.7-4.4c0-3-0.7-6.3-2-9c0-0.1-0.2,0-0.1,0c0.9,2.9,1.5,5.7,1.9,8.6
			c-1.4-1.4-2.6-2.8-3.8-4.5c-0.4-0.5-0.8-1.1-1.1-1.7c-0.2-2.5-1.2-5-2.4-7.1c-0.1-0.1-0.2,0-0.1,0.1c1,2,1.5,4,1.9,6.1
			c-1.8-2.8-3.2-5.8-4.3-9C24,55.8,23.8,55.9,23.9,56z"/>
	</g>
	<path class="st5" d="M64,54.7c0.7-0.6,1.4-1.3,1.9-2.1c0.6-0.9,1-2,1.1-3.1c0.1-0.8,0.3-2.3-0.2-3c-0.2-0.3-0.5-0.6-0.8-0.9
		c-0.5-0.5-0.9-1.1-1-1.7c-0.1-0.7,0.1-1.4,0.3-2.1c0.3-1.1,0.4-2.3,0.2-3.5c-0.2-1.1-0.7-2.3-1.5-3.1c-0.4-0.4-0.9-0.7-1.4-1.1
		c-1.3-1.1-2.4-2.5-3.1-4.1c-0.4-0.8-0.6-1.6-0.8-2.5c-0.1-0.3-0.1-0.7-0.2-0.9c-0.2-0.3-0.7-0.6-1-0.9c-0.8-0.7-1.4-1.6-2-2.5
		c-1.1-1.6-2.2-3.2-3.3-4.7c-0.6-0.8-0.5-1.4-1.6-1.6c-1.4-0.2-3.1-0.3-4.5,0.2c-2.5,0.7-4.8,2.1-6.4,4.1c-1.2,1.4-2,3-2.4,4.8
		c-0.4,1.7-0.7,3.5-0.9,5.2c-0.2,0.6-0.6,1.2-1.1,1.5c-1,0.6-2.5,0.1-3.5,0.8c-1.5,1-1.1,3.5-1.3,5c-0.1,0.8-0.3,1.7-1,2.2
		c-1.1,0.7-2.6,0-3.8,0.4C23,42,23.4,46.1,24.7,48c0.8,1.2,2,1.9,3.5,2.3c1.6,0.4,3,1.5,3.3,3.2c0.2,1.1,0.1,2.2,0,3.3
		c-0.1,1.6,0.2,2.9,1.2,4.1c2.3,2.6,5.9,3.8,9.4,3.5c1.3-0.1,2.7-0.4,3.8-1.1c0.8-0.5,1.4-1.2,2.1-1.9c1.1-1.2,2.4-2.3,3.9-2.8
		c1.5-0.6,3.2-0.5,4.8-0.9c0.8-0.2,1.2-0.4,2.1-0.4c0.8,0,1.5-0.1,2.2-0.4c0.7-0.3,1.3-0.7,1.9-1.2C63.2,55.3,63.6,55,64,54.7z"/>
	<path class="st6" d="M41.3,64.5c-3.2,0-6.5-1.1-8.7-3.6c-1.1-1.2-1.3-2.5-1.2-4.1c0.1-1.1,0.2-2.2,0-3.3c-0.3-1.7-1.7-2.8-3.3-3.2
		c-1.4-0.4-2.6-1-3.5-2.3c-1.3-1.9-1.7-6,1.1-6.8c1.2-0.3,2.7,0.4,3.8-0.4c0.7-0.5,0.9-1.4,1-2.2c0.2-1.5-0.3-4.1,1.3-5
		c0.9-0.6,2.1-0.4,3.1-0.6c-0.1,0.4-0.9,0.6-1.3,0.8c-0.5,0.3-0.9,0.7-1.1,1.2c-0.1,0.3-0.2,0.7-0.2,1.1c-0.1,1-0.2,2.1,0,3.1
		c0.2,0.8,0.3,2-0.2,2.7c-0.5,0.7-1.6,0.8-2.3,1.4c-1,0.8-1,2.3-0.6,3.6c0.3,1.1,0.9,2.1,1.6,2.9c0.8,0.8,1.2,1.7,2.2,2.3
		c0.7,0.4,1.5,0.7,2,1.3c0.3,0.3,0.6,0.8,0.8,1.2c0.4,1,0.6,2.2,0.7,3.3c0.1,0.7,0.2,1.4,0.4,2.1c0.3,0.8,0.7,1.5,1.3,2.1
		C39,63.1,40.1,63.9,41.3,64.5z"/>
	<path class="st6" d="M67,49.5c-0.2,1.1-0.5,2.1-1.1,3.1c-0.5,0.8-1.2,1.5-1.9,2.1c-0.4,0.3-0.8,0.7-1.2,1c-0.1,0.1-0.3,0.2-0.4,0.3
		c0.4-0.8,0.7-1.7,0.9-2.6c0.1-0.8,0.3-2.3-0.2-3c-0.2-0.3-0.5-0.6-0.8-0.9c-0.5-0.5-0.9-1.1-1-1.7c-0.1-0.7,0.1-1.4,0.3-2.1
		c0.3-1.1,0.4-2.3,0.2-3.5c-0.2-1.1-0.7-2.3-1.5-3.1c-0.4-0.4-0.9-0.7-1.4-1.1c-1.3-1.1-2.4-2.5-3.1-4.1c-0.4-0.8-0.6-1.6-0.8-2.5
		c-0.1-0.3-0.1-0.7-0.2-0.9c-0.2-0.3-0.7-0.6-1-0.9c-0.7-0.7-1.4-1.6-2-2.5c-1.1-1.6-2.2-3.2-3.3-4.7c-0.6-0.8-1.2-1.6-0.8-2.5
		c0.6-1.2,1.7-2,3-2.1c1.4-0.1,1.7,0.9,2.4,1.9c0.9,1.2,1.7,2.4,2.5,3.6c0.6,0.9,1.2,1.7,2,2.5c0.3,0.3,0.8,0.5,1,0.9
		c0.2,0.2,0.2,0.6,0.2,0.9c0.2,0.8,0.5,1.7,0.8,2.5c0.7,1.6,1.7,3,3.1,4.1c0.5,0.4,0.9,0.7,1.4,1.1c0.8,0.8,1.3,1.9,1.5,3.1
		c0.2,1.1,0.1,2.3-0.2,3.5c-0.2,0.7-0.4,1.4-0.3,2.1c0.1,0.7,0.5,1.2,1,1.7c0.3,0.3,0.6,0.6,0.8,0.9C67.3,47.3,67.2,48.7,67,49.5z"
		/>
	<g>
		<g>
			<path class="st7" d="M50.1,50.1c-2.4-0.5-3.2-3.8-3.5-5.8c-0.1-1-0.2-2-0.4-3c-0.2-1.4-0.3-2.8-0.4-4.2c-0.1-1.7,0.6-4.8,2.9-4.4
				c2.3,0.5,3.3,3.8,3.5,5.8c0.1,1.3,0.2,2.5,0.3,3.7c0.1,1.2,0.3,2.3,0.4,3.5C53.2,47.4,52.4,50.6,50.1,50.1z"/>
		</g>
		<g>
			<path class="st7" d="M52.6,42.3c-0.4,0.2-0.7,0.4-1.1,0.7c-0.4,0.2-0.7,0.4-1.1,0.5c-0.6,0.1-1.1-0.2-1.6-0.5
				c-0.9-0.5-1.7-1-2.5-1.6c-0.2-1.4-0.3-2.8-0.4-4.2c-0.1-1.7,0.6-4.8,2.9-4.4c2.3,0.5,3.3,3.8,3.5,5.8
				C52.3,39.8,52.4,41.1,52.6,42.3z"/>
			<path class="st7" d="M41.5,30.8c0,2.5,0.6,5.1,2.1,7.1c1.2,1.6,2.9,2.9,4.7,3.9c0.5,0.3,1.1,0.5,1.6,0.5c0.4,0,0.8-0.3,1.1-0.5
				c1.4-0.8,2.9-1.7,3.9-3c1-1.3,1.4-2.8,1.7-4.4c0.5-2.7,0.8-6.1-1-8.4c-1.4-1.8-3.9-2.6-6.2-2.6C45.7,23.4,41.5,25.8,41.5,30.8z"
				/>
		</g>
	</g>
	<path class="st8" d="M46.1,30.5c0.1,0,0.2-0.1,0.3-0.1c0.1,0,0.2-0.1,0.3-0.1c0.2,0,0.4-0.1,0.6-0.1c0.4,0,0.8,0.2,1.2,0.4
		c0.1,0,0.2-0.1,0.1-0.1c-0.4-0.3-0.8-0.5-1.3-0.5c-0.2,0-0.5,0-0.7,0.1C46.4,30.2,46.2,30.2,46.1,30.5C46,30.4,46,30.5,46.1,30.5
		L46.1,30.5z"/>
	<path class="st7" d="M43.8,33.2c0.2,1.2-0.5,2.3-1.4,2.5c-1,0.1-1.9-0.7-2.1-2c-0.2-1.2,0.5-2.3,1.4-2.5
		C42.7,31.1,43.6,32,43.8,33.2z"/>
	<path class="st9" d="M51.5,28.1c-0.4,0.5-0.9,0.9-1.3,1.3c-1,0.9-2.2,1.6-3.5,2c-1.3,0.4-3.1,0.6-4.4,0.2c-1-0.3-0.7-1.3-0.9-2.2
		c-0.1-0.4-0.2-0.8-0.2-1.2c-0.1-0.8-0.2-1.6-0.1-2.4c0-0.4,0.1-0.8,0.2-1.1c0.9-2.8,3.5-6.3,6.8-5.9c1.2,0.1,2.4,1,3.5,1.4
		c0.7,0.3,1.5,0.7,1.9,1.4c0.2,0.4,0.3,1,0.3,1.5C53.7,24.9,52.8,26.7,51.5,28.1z"/>
	<path class="st5" d="M50.8,28.1c-0.4,0.5-0.9,0.9-1.3,1.3c-1,0.9-2.2,1.6-3.5,2c-1.3,0.4-3.1,0.6-4.4,0.2c-1-0.3-0.7-1.3-0.9-2.2
		c-0.1-0.4-0.2-0.8-0.2-1.2c-0.1-0.8-0.2-1.6-0.1-2.4c0-0.4,0.1-0.8,0.2-1.1c0.9-2.8,3.5-6.3,6.8-5.9c1.2,0.1,2.4,1,3.5,1.4
		c0.7,0.3,1.5,0.7,1.9,1.4c0.2,0.4,0.3,1,0.3,1.5C53,24.9,52.1,26.6,50.8,28.1z"/>
	<path class="st9" d="M52,25.9c1.5,1,3.2,2,4.1,3.5c0.6,0.9,0.9,2.1,0.8,3.2c-0.1,1.1-0.5,2.1-0.5,3.2c0,1.7,1.4,3.3,3.1,3.7
		c0.2,0,0.4-0.2,0.2-0.4c-0.5-0.7-0.8-1.6-0.7-2.4c0.1-1.1,0.8-2.1,0.8-3.2c0-0.8-0.4-1.5-0.8-2.1c-0.5-0.8-0.8-2.2-0.6-3.2
		c0.2-0.7,0.4-1.5,0.5-2.2c0.2-1.7-0.4-3.4-1.4-4.8c-1.2-1.7-2.9-3-4.8-3.7c-1-0.4-2.6-0.9-3.7-0.6c-0.9,0.2-1.1,2.3-1.1,3.2
		c0,1.1,0.3,2.2,0.9,3.1c0.7,1,1.6,1.7,2.5,2.4C51.8,25.7,51.9,25.8,52,25.9z"/>
	<path class="st5" d="M52.6,26c1.5,1,3.2,2,4.1,3.5c0.6,0.9,0.9,2.1,0.8,3.2c-0.1,1.1-0.5,2.1-0.5,3.2c0,1.7,1.4,3.3,3.1,3.7
		c0.2,0,0.4-0.2,0.2-0.4c-0.5-0.7-0.8-1.6-0.7-2.4c0.1-1.1,0.8-2.1,0.8-3.2c0-0.8-0.4-1.5-0.8-2.1c-0.5-0.8-0.8-2.2-0.6-3.2
		c0.2-0.7,0.4-1.5,0.5-2.2c0.2-1.7-0.4-3.4-1.4-4.8c-1.2-1.7-2.9-3-4.8-3.7c-1.6-0.6-3.3-0.8-5-0.5c-0.7,0.1-1.5,0.1-1.6,0.9
		c-0.1,0.6,0.4,1.3,0.6,1.8c1.1,2.3,2.7,4.3,4.8,5.8C52.3,25.8,52.5,25.9,52.6,26z"/>
	<g>
		<path class="st10" d="M41.3,31.2c0.7,0.3,1.5,0.3,2.2,0.2c0.8-0.1,1.5-0.4,2.2-0.7c0.7-0.3,1.3-0.8,1.9-1.2c0.6-0.5,1.1-1,1.5-1.6
			c0.1-0.1-0.1-0.2-0.2-0.2c-0.5,0.5-1,1-1.6,1.4c-0.5,0.5-1.1,0.8-1.8,1.2c-0.7,0.3-1.4,0.6-2.1,0.7c-0.4,0.1-0.7,0.1-1.1,0.1
			c-0.4,0-0.7,0-1.1,0C41.3,31.1,41.2,31.2,41.3,31.2L41.3,31.2z"/>
		<path class="st10" d="M41.6,31.2c0.3,0,0.6-0.1,0.9-0.2c0.3-0.1,0.6-0.2,0.9-0.3c0.6-0.3,1.2-0.6,1.7-0.9c1.1-0.7,2.1-1.6,2.7-2.7
			c0.1-0.2-0.1-0.4-0.3-0.2c-0.8,1-1.7,1.9-2.7,2.6c-0.5,0.3-1,0.7-1.6,0.9c-0.3,0.1-0.6,0.3-0.9,0.4c-0.3,0.1-0.6,0.2-0.9,0.4
			C41.4,31.1,41.5,31.2,41.6,31.2L41.6,31.2z"/>
		<path class="st10" d="M41.5,31.2c0.3-0.1,0.6-0.3,0.8-0.6c0.2-0.3,0.5-0.6,0.7-0.9c0.5-0.7,1-1.4,1.4-2.2c0.1-0.2-0.2-0.4-0.3-0.2
			c-0.5,0.7-0.9,1.4-1.3,2.1c-0.2,0.3-0.4,0.6-0.6,0.9c-0.2,0.3-0.4,0.5-0.7,0.7C41.3,31.1,41.4,31.3,41.5,31.2L41.5,31.2z"/>
	</g>
	<path class="st10" d="M56.1,39.9c0.1,1.5,1.6,2.6,2.8,3.3c1.6,0.8,3.4,1.2,4.7,2.3c0.3,0.3,0.6,0.6,0.9,1c0.2,0.4,0.4,0.8,0.5,1.2
		c0.1,0.2,0.4,0.2,0.4,0c0-0.7-0.5-1.4-0.9-2c-0.5-0.6-1.2-1-1.9-1.4c-1.6-0.8-3.4-1.2-4.7-2.3c-0.3-0.3-0.7-0.6-0.9-1
		c-0.3-0.4-0.4-0.8-0.6-1.2C56.3,39.7,56.1,39.7,56.1,39.9L56.1,39.9z"/>
	<path class="st10" d="M54.7,41.2c-0.1,0.6,0.1,1.1,0.5,1.6c0.2,0.2,0.4,0.4,0.6,0.6c0.2,0.2,0.5,0.4,0.7,0.5
		c0.2,0.1,0.4-0.1,0.2-0.3c-0.4-0.3-0.9-0.6-1.2-1c-0.3-0.4-0.5-0.8-0.6-1.3C54.9,41.1,54.7,41,54.7,41.2L54.7,41.2z"/>
	<path class="st10" d="M38.8,33.7c-0.3,0.6-0.8,1.2-1.4,1.5c-0.3,0.2-0.7,0.3-1,0.3c-0.4,0.1-0.9,0.1-1.3,0.2
		c-1.4,0.5-1.6,2.2-1.4,3.5c0.1,0.8,0.4,1.6,0.4,2.5c0,0.6-0.2,1.4-0.7,1.8c-0.5,0.5-1.3,0.4-2,0.6c-0.6,0.2-1.1,0.6-1.3,1.3
		c-0.2,0.7,0,1.5,0.3,2.2c0.2,0.4,0.4,0.8,0.6,1.2c0.2,0.4,0.4,0.8,0.5,1.3c0.1,0.2,0.4,0.2,0.4-0.1c0-0.8-0.5-1.4-0.9-2.1
		c-0.3-0.6-0.6-1.3-0.6-2c0-0.7,0.5-1.2,1.2-1.4c0.7-0.2,1.4-0.2,1.9-0.6c1.2-0.9,1-2.6,0.8-3.9c-0.2-0.8-0.3-1.6-0.2-2.4
		c0.1-0.6,0.5-1.2,1.1-1.5c0.4-0.2,0.9-0.2,1.4-0.3c0.4-0.1,0.7-0.2,1.1-0.4c0.6-0.4,1.2-1,1.4-1.7C39.1,33.6,38.9,33.5,38.8,33.7
		L38.8,33.7z"/>
	<g>
		<path class="st2" d="M59.9,51.6c0.6-0.8,1.3-1.7,2.2-2.2c0.9-0.5,2.1-0.6,3,0c0.4,0.3,0.7,0.9,1,1.4c0.8,1.6,1.6,3.3,2.2,5
			c0.7,2,1.6,4.4,3.6,5.1c1.5,0.6,3.3,0,4.8,0.7c1.7,0.8,2.3,3,2.3,5c0.1,1.9-0.1,4,0.9,5.6c1.1,1.7,3.4,3,3.2,5
			c-0.2,1.4-1.5,2.3-2.8,2.7c-5.3,1.8-11.1-0.8-16.8-0.3c-2,0.2-4.3,0.6-5.7-0.8c-0.7-0.7-1-1.6-1.2-2.5c-2.1-7.8-1.2-16.3,2.4-23.5
			"/>
	</g>
	<g>
		<g>
			<path class="st3" d="M59.4,61.2c0.1-1.5,0.3-3,0.8-4.3c0.6-1.4,1.6-2.6,3-3c1.3-0.4,2.8-0.1,4-0.7c1.1-0.6,1.5-1.8,2.1-2.9
				c0.6-1.1,1.4-2.2,2.6-2.3c1.5-0.1,2.5,1.6,2.4,3.1c-0.1,1.5-0.9,2.8-1.6,4.1c-0.9,1.7-1.5,3.9-0.6,5.7c0.6,1.4,2.2,2.9,1.5,4.5
				c-0.4,0.8-1.2,1.2-2,1.5c-0.8,0.3-1.7,0.5-2.3,1.1c-0.6,0.6-0.8,1.7-0.2,2.2c0.8,0.7,2.1,0.1,2.8,0.9c0.3,0.3,0.3,0.7,0.3,1.1
				c-0.1,1.7-1.8,2.8-3.4,3.6c-2,1-5.5,2-7,3.7c-2.3-5.5-2.8-12.4-3-18.3"/>
		</g>
		<path class="st4" d="M72,50.2c-2.3,3-4.3,6.2-5.8,9.7c-0.1,0.1-0.2,0.2-0.3,0.3c-0.1,0.1,0,0.2,0.1,0.2c-0.1,0.2-0.2,0.4-0.2,0.6
			c0-2.2,0-4.3,0.6-6.4c0-0.1-0.2-0.2-0.2-0.1c-0.6,2.3-1.1,4.9-0.6,7.2c0,0,0,0,0,0c-1.4,3.9-2.6,8.3-2.5,12.5c0,0.2,0.3,0.2,0.3,0
			c0.3-2.2,0.6-4.3,1-6.4c2.5-1.7,4.8-4.1,6.3-6.7c0-0.1-0.1-0.2-0.1-0.1c-1.9,2.4-3.9,4.4-6.1,6.4c0.4-1.9,0.9-3.8,1.5-5.6
			c0.2-0.6,0.5-1.3,0.7-1.9c2-1.6,3.4-3.7,4.5-6c0-0.1-0.1-0.2-0.1-0.1c-1.1,1.9-2.5,3.5-4,5.1c1.3-3,3-5.9,5-8.6
			C72.2,50.3,72.1,50.1,72,50.2z"/>
	</g>
	<g>
		<path class="st11" d="M65.1,79c0.3-2.2,0.7-4.4,1.4-6.5c0.6-2.1,1.5-4.2,2.5-6.2c2-4,4.6-7.7,7.8-10.9c0.9-0.9,1.8-1.8,2.8-2.6
			c1-0.9,2.1-1.6,3.4-2.1c0.2-0.1,0.1-0.5-0.1-0.4c-1.2,0.3-2.2,1-3.1,1.7c-0.9,0.7-1.8,1.5-2.6,2.4c-1.6,1.6-3.1,3.3-4.5,5.1
			c-2.7,3.6-4.9,7.7-6.3,12c-0.8,2.4-1.3,4.9-1.5,7.4C64.7,79.1,65.1,79.1,65.1,79L65.1,79z"/>
		<g>
			<path class="st11" d="M79.2,52.4c1-0.3,2-0.7,3-1c0.9-0.3,1.8-0.6,2.2-1.5c0-0.1,0.1-0.2,0-0.2c0-0.1-0.2-0.1-0.3-0.2
				c-0.9-0.1-1.8,0.3-2.5,0.9C81,51,79.9,51.8,79.2,52.4"/>
		</g>
		<g>
			<path class="st11" d="M76.1,55.2c-0.2-1.5,0-3.2,0.7-4.6c0.1-0.2,0.2-0.4,0.5-0.5c0.3,0,0.5,0.3,0.5,0.5c0.1,0.5,0,0.9-0.2,1.4
				c-0.3,1-0.7,2-1.2,3"/>
		</g>
		<g>
			<path class="st11" d="M73.3,58.6c-0.3-1.6,0-3.3,0.7-4.8c0.1-0.2,0.3-0.4,0.5-0.5c0.3,0,0.5,0.3,0.6,0.5c0.1,0.5,0,1-0.2,1.5
				c-0.3,1.1-0.8,2.1-1.3,3.1"/>
		</g>
		<g>
			<path class="st11" d="M70.4,62.9c-0.8-1.4-1.1-3.1-0.8-4.7c0-0.2,0.1-0.5,0.3-0.6c0.3-0.1,0.6,0.1,0.7,0.3
				c0.3,0.4,0.3,0.9,0.3,1.4c0,1.1,0,2.2-0.2,3.4"/>
		</g>
		<g>
			<path class="st11" d="M78.1,53.7c1.4,0.2,2.8,0,4.1-0.6c0.2-0.1,0.4-0.2,0.4-0.4c0-0.2-0.2-0.4-0.5-0.5c-0.4-0.1-0.8,0-1.2,0.1
				c-0.9,0.3-1.8,0.6-2.7,1.1"/>
		</g>
		<g>
			<path class="st11" d="M75.2,56.8c1.6,0.3,3.3,0,4.8-0.7c0.2-0.1,0.5-0.3,0.5-0.5c0-0.3-0.3-0.5-0.6-0.6c-0.5-0.1-1,0-1.5,0.2
				c-1.1,0.3-2.1,0.8-3.2,1.3"/>
		</g>
		<g>
			<path class="st11" d="M72.3,60.6c1.6,0.3,3.3,0,4.8-0.7c0.2-0.1,0.5-0.3,0.5-0.5c0-0.3-0.3-0.5-0.6-0.6c-0.5-0.1-1,0-1.5,0.2
				c-1.1,0.3-2.1,0.8-3.2,1.3"/>
		</g>
		<g>
			<path class="st11" d="M69.5,64.9c1.6,0.3,3.3,0,4.8-0.7c0.2-0.1,0.5-0.3,0.5-0.5c0-0.3-0.3-0.5-0.6-0.6c-0.5-0.1-1,0-1.5,0.2
				c-1.1,0.3-2.1,0.8-3.2,1.3"/>
		</g>
	</g>
	<g>
		<path class="st11" d="M37.1,79.1c-1.3-0.8-2.7-1.7-4-2.6c-1.3-1-2.5-2-3.7-3.1c-2.3-2.2-4.4-4.6-6.2-7.2c-0.5-0.8-1-1.6-1.5-2.4
			c-0.4-0.9-0.8-1.7-1-2.7c-0.1-0.2-0.4-0.2-0.4,0.1c0.2,1.7,1.1,3.2,2,4.6c0.9,1.3,1.9,2.6,2.9,3.9c2.1,2.5,4.4,4.8,7,6.7
			c1.5,1.1,3,2.1,4.6,3C37.1,79.5,37.3,79.2,37.1,79.1L37.1,79.1z"/>
		<g>
			<path class="st11" d="M22,65c-0.2-1-0.4-2.1-0.6-3.1C21.2,61,21,60,20.2,59.5c-0.1,0-0.1-0.1-0.2-0.1c-0.1,0-0.2,0.1-0.2,0.3
				c-0.3,0.9,0,1.8,0.5,2.6C20.8,63.1,21.4,64.3,22,65"/>
		</g>
		<g>
			<path class="st11" d="M24.3,68.5c-1.6,0-3.1-0.4-4.4-1.3c-0.2-0.1-0.4-0.3-0.4-0.5c0-0.3,0.3-0.4,0.6-0.5c0.5,0,0.9,0.2,1.3,0.4
				c1,0.5,1.9,1,2.8,1.6"/>
		</g>
		<g>
			<path class="st11" d="M27.2,71.8c-1.6,0-3.3-0.5-4.6-1.4c-0.2-0.1-0.4-0.3-0.4-0.6c0-0.3,0.3-0.5,0.6-0.5c0.5,0,1,0.2,1.4,0.4
				c1,0.5,2,1.1,2.9,1.7"/>
		</g>
		<g>
			<path class="st11" d="M31.1,75.2c-1.5,0.5-3.2,0.6-4.8,0.2c-0.2-0.1-0.5-0.2-0.6-0.4c-0.1-0.3,0.2-0.5,0.4-0.7
				c0.5-0.2,1-0.2,1.5-0.1c1.1,0.1,2.2,0.4,3.3,0.7"/>
		</g>
		<g>
			<path class="st11" d="M23.1,66.3c0.4-1.3,0.4-2.8,0-4.1c-0.1-0.2-0.2-0.4-0.4-0.5c-0.2-0.1-0.5,0.2-0.5,0.4
				c-0.2,0.4-0.1,0.8,0,1.2c0.1,0.9,0.4,1.9,0.7,2.8"/>
		</g>
		<g>
			<path class="st11" d="M25.8,69.6c0.5-1.6,0.5-3.3,0-4.9c-0.1-0.2-0.2-0.5-0.4-0.5c-0.3-0.1-0.5,0.2-0.7,0.5
				c-0.2,0.5-0.1,1-0.1,1.5c0.2,1.1,0.4,2.2,0.8,3.3"/>
		</g>
		<g>
			<path class="st11" d="M29.1,73c0.5-1.6,0.5-3.3,0-4.9c-0.1-0.2-0.2-0.5-0.4-0.5c-0.3-0.1-0.5,0.2-0.7,0.5c-0.2,0.5-0.1,1-0.1,1.5
				c0.2,1.1,0.4,2.2,0.8,3.3"/>
		</g>
		<g>
			<path class="st11" d="M32.9,76.4c0.5-1.6,0.5-3.3,0-4.9c-0.1-0.2-0.2-0.5-0.4-0.5c-0.3-0.1-0.5,0.2-0.7,0.5
				c-0.2,0.5-0.1,1-0.1,1.5c0.2,1.1,0.4,2.2,0.8,3.3"/>
		</g>
	</g>
	<g>
		<path class="st11" d="M67.5,81.7c1.2-1,2.4-2.2,3.4-3.4c1.1-1.2,2-2.5,3-3.8c1.8-2.6,3.4-5.5,4.6-8.5c0.7-1.8,1.5-3.7,1.3-5.7
			c0-0.3-0.4-0.3-0.4,0c-0.1,1.8-0.6,3.4-1.2,5.1c-0.6,1.5-1.2,2.9-2,4.3c-1.5,2.8-3.2,5.4-5.3,7.8c-1.2,1.4-2.4,2.6-3.7,3.8
			C67.1,81.6,67.4,81.8,67.5,81.7L67.5,81.7z"/>
		<g>
			<path class="st11" d="M79.1,64.5c0-1.1-0.1-2.1-0.1-3.2c0-0.9,0-1.9,0.6-2.6c0.1-0.1,0.1-0.1,0.2-0.1c0.1,0,0.2,0.1,0.3,0.2
				c0.4,0.8,0.4,1.8,0.1,2.7C79.8,62.3,79.5,63.6,79.1,64.5"/>
		</g>
		<g>
			<path class="st11" d="M77.5,68.4c1.5-0.3,3-1.1,4-2.2c0.2-0.2,0.3-0.4,0.3-0.6c-0.1-0.3-0.4-0.4-0.7-0.3
				c-0.5,0.1-0.9,0.3-1.2,0.6c-0.8,0.7-1.6,1.4-2.4,2.2"/>
		</g>
		<g>
			<path class="st11" d="M75.4,72.2c1.6-0.3,3.1-1.1,4.2-2.3c0.2-0.2,0.3-0.4,0.3-0.6c-0.1-0.3-0.4-0.4-0.7-0.3
				c-0.5,0.1-0.9,0.4-1.3,0.7c-0.9,0.7-1.7,1.5-2.5,2.3"/>
		</g>
		<g>
			<path class="st11" d="M72.3,76.4c1.6,0.2,3.3-0.1,4.7-0.9c0.2-0.1,0.4-0.3,0.5-0.5c0-0.3-0.3-0.5-0.6-0.5c-0.5-0.1-1,0.1-1.4,0.2
				c-1.1,0.4-2.1,0.8-3.1,1.4"/>
		</g>
		<g>
			<path class="st11" d="M78.3,65.9c-0.7-1.2-1-2.6-0.9-4c0-0.2,0.1-0.4,0.2-0.5c0.2-0.1,0.5,0.1,0.6,0.3c0.2,0.3,0.3,0.8,0.3,1.2
				c0.1,1,0,1.9-0.1,2.9"/>
		</g>
		<g>
			<path class="st11" d="M76.3,69.8c-0.8-1.4-1.2-3.1-1-4.8c0-0.2,0.1-0.5,0.3-0.6c0.3-0.1,0.6,0.1,0.7,0.3c0.3,0.4,0.3,0.9,0.4,1.4
				c0.1,1.1,0,2.3-0.1,3.4"/>
		</g>
		<g>
			<path class="st11" d="M73.8,73.8c-0.8-1.4-1.2-3.1-1-4.8c0-0.2,0.1-0.5,0.3-0.6c0.3-0.1,0.6,0.1,0.7,0.3c0.3,0.4,0.3,0.9,0.4,1.4
				c0.1,1.1,0,2.3-0.1,3.4"/>
		</g>
		<g>
			<path class="st11" d="M70.8,77.9c-0.8-1.4-1.2-3.1-1-4.8c0-0.2,0.1-0.5,0.3-0.6c0.3-0.1,0.6,0.1,0.7,0.3c0.3,0.4,0.3,0.9,0.4,1.4
				c0.1,1.1,0,2.3-0.1,3.4"/>
		</g>
	</g>
	<path class="st10" d="M40.6,37.4C40.6,37.4,40.6,37.4,40.6,37.4C40.6,37.4,40.5,37.4,40.6,37.4C40.5,37.4,40.5,37.4,40.6,37.4
		c-0.1,0-0.1,0-0.1,0c0,0,0,0-0.1,0c0,0,0,0.1,0,0.1c0,0,0,0,0.1,0C40.5,37.5,40.5,37.5,40.6,37.4C40.5,37.5,40.5,37.5,40.6,37.4
		C40.5,37.5,40.6,37.5,40.6,37.4C40.6,37.5,40.6,37.5,40.6,37.4C40.6,37.5,40.6,37.5,40.6,37.4C40.6,37.5,40.6,37.4,40.6,37.4
		L40.6,37.4z"/>
	<path class="st12" d="M51.5,36.1c0,0-0.1,0-0.1-0.1c0-0.1,0-0.1,0.1-0.1c0.2-0.1,0.4-0.2,0.6-0.3c0.1-0.1,0.2-0.1,0.2-0.2
		c0.1-0.1,0.1-0.2,0-0.2c0-0.1-0.1-0.1-0.2-0.2c-0.1,0-0.1-0.1-0.2-0.1l-0.1,0c-0.2-0.1-0.5-0.2-0.6-0.4c-0.1-0.2-0.1-0.5-0.1-0.7
		c0-0.1,0-0.2,0-0.2c-0.1-0.6-0.1-1.3,0-1.9c0-0.1,0.1-0.1,0.1-0.1c0.1,0,0.1,0.1,0.1,0.1c0,0.6,0,1.3,0,1.9c0,0.1,0,0.2,0,0.3
		c0,0.2,0,0.5,0.1,0.7c0.1,0.1,0.3,0.2,0.5,0.3l0.1,0c0.1,0,0.2,0,0.2,0.1c0.1,0.1,0.2,0.2,0.3,0.3c0,0.1,0,0.3-0.1,0.4
		c-0.1,0.1-0.2,0.2-0.3,0.3C52,35.8,51.8,36,51.5,36.1C51.5,36.1,51.5,36.1,51.5,36.1z"/>
	<g>
		<path class="st13" d="M52.8,37.3c0,0.5-0.2,0.9-0.5,1.2c-0.7,0.9-2,1.3-3.1,0.7c-0.2-0.1-0.5-0.3-0.7-0.5c-0.5-0.4-0.9-1.1-1-1.7
			c0.6,0.2,1.3,0.3,1.6,0.3c0.6,0.1,1.2,0.1,1.7,0c0.7-0.1,1.3-0.4,1.8-0.8C52.8,36.8,52.8,37.2,52.8,37.3z"/>
		<path class="st14" d="M52.3,38.5c-0.7,0.9-2,1.3-3.1,0.7c-0.2-0.1-0.5-0.3-0.7-0.5c0.4-0.5,1.1-0.9,2-0.9
			C51.2,37.9,51.8,38.1,52.3,38.5z"/>
	</g>
	<path class="st15" d="M56.5,34c0,0.4-0.8,0.7-1.8,0.7c-1,0-1.8-0.3-1.8-0.7c0-0.4,0.8-0.7,1.8-0.7C55.7,33.3,56.5,33.6,56.5,34z"/>
	<g>
		<g>
			<path class="st16" d="M60,58.9c-0.2-0.5-0.4-0.9-0.5-1.4c-0.1-0.5-0.2-1-0.1-1.4c0.3-1.1,2.1-1.7,3.1-2c0.5-0.1,1.1-0.1,1.5-0.3
				c0.5,1.8,1.2,3.6,1.9,5.4c0.4,0.9,0.8,1.7,1.3,2.5c0.5,0.8,1,1.5,1.5,2.2c1,1.5,1.6,3.2,1.8,5c0.1,0.8,0.1,1.7,0,2.6
				c-0.1,0.8-0.3,1.3-1,0.6c-0.3-0.3-0.6-0.4-0.9-0.7c-0.9-0.9-1.6-1.9-2.5-2.8c-0.7-0.7-1.5-1.3-2-2c-0.3-0.4-0.6-0.9-0.8-1.3
				c-0.8-1.4-1.6-2.8-2.4-4.2C60.7,60.2,60.3,59.6,60,58.9z"/>
		</g>
		<path class="st17" d="M63.7,80.5C63.6,80.5,63.6,80.6,63.7,80.5c-0.4,0.2-0.7,0.3-1.1,0.3c-3.8,0.3-7.5,0.4-11.3,0.2
			c-2-0.1-4.1-0.2-6.1-0.4c-0.9-0.1-2.2-0.1-3.1-0.5c-0.8-0.4-0.2-1.6,0-2.4c0.5-2.1,0.9-4.1,1.1-6.3c0.3-4.4-1.2-8.1-3.3-11.9
			c-0.9-1.7-1.8-3.3-2.4-5.1c-0.6-1.8-0.7-3.6-0.4-5.4c0.3-1.6,2.3-1.9,3.6-2.3c1.5-0.5,2.9-1.1,4.3-1.8c0.4-0.2,1.6-0.8,1.6-0.8
			s0.6,0.7,0.8,1c0.7,0.7,1.5,1.1,2.4,1.3c0.5,0.1,1.1,0.2,1.6,0.1c1-0.3,1.3-1.5,1.3-2.5c0,0.1,1.7,1.2,1.8,1.4
			c0.8,0.7,1.6,1.4,2.5,2c0.4,0.4,0.9,0.7,1.2,1.2c0.4,0.5,0.7,1.2,1,1.8c0.2,0.5,0.5,1,0.7,1.5c0.2,0.4,0.4,0.9,0.6,1.3
			c0,0,0,0,0,0c0.1,0.1,0.1,0.3,0.2,0.4c0.1,0.2,0.2,0.3,0.2,0.5c0,0.1,0.1,0.2,0.1,0.3c0.9,2.1,1.6,4.3,0.8,6.6
			c-0.3,0.9-0.7,1.7-1,2.5c-0.7,1.9-0.8,4.3-0.4,6.2c0.1,0.7,0.4,1.4,0.6,2.1c0.6,1.6,1.2,3.2,1.7,4.7
			C63.2,77.5,64.6,79.9,63.7,80.5z"/>
		<path class="st17" d="M55.7,45.1c1.2,0.4,2.3,0.7,3.5,1.1c0.4,0.1,0.9,0.2,1.2,0.5c1,0.6,1.6,1.7,2.1,2.8c0.5,1,1,2.1,1.5,3.1
			c0.4,0.9,0.7,1.6,0.9,2.6c-1,0.4-2,0.7-2.9,1.2c-1,0.5-1.8,1.3-2.7,1.8c0.6-0.5-3.6-8.3-4-9c-0.7-1.4-1.8-1.4-2.2-3.1
			c-0.3-1.1,0-0.6-0.2-1.9c0,0.1,0.4,0.2,0.5,0.3c0.2,0.1,0.4,0.1,0.5,0.2C54.5,44.8,55.1,44.9,55.7,45.1z"/>
		<path class="st18" d="M62,61.1c-0.3,0.9-0.7,1.7-1,2.5c-0.7,1.9-0.8,4.3-0.4,6.2c-3.1,0.9-6.3,1.2-9.5,1.3
			c-1.2,0.1-2.5,0.1-3.7-0.4c-1.5-0.6-2.4-2.1-3.1-3.5c-1.1-2.1-1.8-4.3-2.3-6.5c-0.2-1.2-0.4-2.3-0.4-3.5c0-0.6,0-1.2,0-1.7
			c0-0.5-0.2-1,0-1.6c0.2-0.4,0.6-0.7,1-0.6c0.2,0.1,0.3,0.2,0.5,0.4c1.9,2.3,2.7,5.7,5.4,7.4c2.8,1.7,6.4,1.5,9.5,0.4
			c0.7-0.2,1.5-0.6,2-1.1c0.8-0.9,0.9-2.2,0.9-3.4c0-1.6-0.2-3.7-0.8-5.1c0,0,0,0,0,0c0.3,0.4,0.5,0.9,0.6,1.3c0,0,0,0,0,0
			c0.1,0.3,0.2,0.6,0.3,0.7c0,0.1,0.1,0.1,0.1,0.2c0,0.1,0.1,0.2,0.1,0.3C62.1,56.7,62.8,58.8,62,61.1z"/>
		<g>
			<path class="st16" d="M70.4,72.3C70.4,72.3,70.4,72.3,70.4,72.3c-0.2,0.2-0.5,0.2-0.7,0.3c-0.3,0.1-0.6,0.2-0.9,0.3
				C68.1,73,67.5,73,66.8,73c-1.6-0.1-3-0.7-4.5-1.3c-0.6-0.3-1.3-0.5-2-0.7c-1.4-0.5-2.8-1-4.3-1.4c-0.7-0.2-1.4-0.4-2.2-0.5
				c-1-0.2-2.8-0.5-3.8-0.9c-1-0.4-1.2-1.1-1.6-2.1c-0.2-0.3-0.2-0.7-0.2-1.1c0.1-0.4-0.5-0.7-0.1-0.7c0.2,0,0-0.1,0.2,0
				c4,1.6,9.3,1.5,13.8,1.9c0.8,0.1,1.5,0.1,2.3,0.2c0.1,0,0.2,0,0.3,0c1.1,0.1,2.2-0.4,3.2,0c1.1,0.4,1.9,1.4,2.2,2.5
				c0.2,0.6,0.2,1.2,0.2,1.7c0,0.3,0,0.6,0,0.9C70.5,71.8,70.5,72.1,70.4,72.3z"/>
		</g>
		<path class="st19" d="M65,67.1c-0.1,0.2-0.3,0.3-0.5,0.4c-0.7,0.6-1.3,1.2-1.9,1.8c-0.7,0.7-1.3,1.5-1.8,2.4c0,0,0,0,0,0
			c-1.4-0.5-2.8-1-4.3-1.4c0.5-0.8,1.5-1.4,2.4-1.8c1.2-0.6,2.5-1.3,3.8-1.7c0.4-0.1,0.8-0.2,1.2-0.2c0.3,0,0.9-0.2,1.1,0.1
			C65.1,66.9,65.1,67,65,67.1z"/>
		<g>
			<path class="st7" d="M37,56c1.8,3.7,3.1,7.6,5,11.3c0.9,1.8,2,3.6,3.3,5.2c0.5,0.6,1,1.5,1.7,1.9c0.9,0.5,2.3,0.3,3.2,0
				c2.3-0.6,4.4-1.6,6.4-2.7c0.7-0.4,1.6-0.7,2.3-1.1c0.8-0.5,1.7-1,2.5-1.4c0.9-0.5,1.8-1,2.6-1.5c0.7-0.4,1.5-1.1,2.3-1.2
				c0.1,0,0.2,0,0.3-0.1c0.3-0.3-0.1-0.8-0.3-1c-0.2-0.1-0.3-0.2-0.5-0.4c-0.3-0.2-0.5-0.4-0.8-0.5c-1-0.4-1.7,0.1-2.6,0.4
				c-2,0.6-4.2,0.9-6.3,1.3c-2.2,0.4-4.4,0.7-6.7,0.7c-0.2,0-0.5,0-0.7-0.1c-0.2-0.1-0.3-0.4-0.3-0.6c-0.4-1.5-5.1-11.9-6.8-13.6
				c-1.5,0.9-2.9,2.1-4.2,3.3"/>
		</g>
		<path class="st17" d="M48,46.7c0.4,0.3,0.9,0.5,1.3,0.7c0.4,0.1,0.7,0.3,1.1,0.4c0.5,0.1,1,0.2,1.6,0.1c0.7-0.1,1.2-0.6,1.4-1.2
			c0.1-0.3,0.2-0.6,0.3-0.9c0-0.1-0.2-0.2-0.2-0.1c-0.2,0.5-0.3,1-0.7,1.4c-0.5,0.6-1.4,0.5-2.2,0.4c-0.4-0.1-0.7-0.2-1.1-0.3
			c-0.5-0.2-1-0.4-1.5-0.6C48,46.5,47.9,46.7,48,46.7L48,46.7z"/>
		<path class="st17" d="M45.2,58.4c0,0,0-0.1,0-0.2c-0.9-1.8-1.9-3.7-2.8-5.5c-0.6-1.2-1.2-2.5-2.1-3.6c-0.5-0.7-1.3-1.5-2.2-1.2
			c-1,0.3-1.6,1.2-1.9,2.3c-0.2,1-0.1,2.1,0,3.1c0.2,1.2,0.7,7.7,1.9,7.8c0.4,0,1.3-0.7,1.7-0.9c0.6-0.3,1.2-0.5,1.8-0.8
			c0.6-0.2,1.2-0.4,1.9-0.6c0.3-0.1,0.6-0.2,0.9-0.2C44.6,58.6,45.1,58.6,45.2,58.4z"/>
		<g>
			<path class="st20" d="M46.1,44.4c0.5,4.9,2.3,9.7,4.8,13.9c0.7,1.2,1.5,2.4,2.4,3.4c0.1,0.1,0.3,0,0.2-0.1
				c-1.4-2-2.8-4.1-3.8-6.3c-1.1-2.2-1.9-4.5-2.5-6.9c-0.3-1.3-0.6-2.7-0.9-4.1C46.2,44.3,46.1,44.3,46.1,44.4L46.1,44.4z"/>
			<path class="st20" d="M53.4,44.4c0.1,1.2,0.3,2.3,0.4,3.5c0.1,1.2,0.2,2.3,0.2,3.5c0.1,2.3,0,4.7-0.2,7c-0.1,1.3-0.3,2.6-0.4,3.9
				c0,0.1,0.1,0.1,0.2,0c0.3-1.1,0.4-2.3,0.5-3.5c0.1-1.2,0.2-2.3,0.2-3.5c0.1-2.4,0-4.8-0.2-7.1c-0.1-0.6-0.1-1.3-0.2-1.9
				c-0.1-0.7-0.2-1.3-0.3-2C53.5,44.3,53.4,44.3,53.4,44.4L53.4,44.4z"/>
		</g>
		<path class="st21" d="M56.2,65.6l-4.5,0.4c-0.7,0.1-1.3-0.5-1.4-1.2l-0.2-2.2c-0.1-0.7,0.5-1.3,1.2-1.4l4.5-0.4
			c0.7-0.1,1.3,0.5,1.4,1.2l0.2,2.2C57.5,64.9,56.9,65.5,56.2,65.6z"/>
		<path class="st22" d="M55.7,65l-3.5,0.3c-0.7,0.1-1.2-0.4-1.3-1.1l-0.1-1.2c-0.1-0.7,0.4-1.2,1.1-1.3l3.5-0.3
			c0.7-0.1,1.2,0.4,1.3,1.1l0.1,1.2C56.8,64.4,56.4,64.9,55.7,65z"/>
	</g>
	<path class="st12" d="M41.7,32.8c-0.1,0-0.1,0.1-0.2,0.1c-0.1,0.1-0.1,0.1-0.2,0.2c-0.1,0.2-0.1,0.3-0.1,0.5c0,0.2,0.1,0.4,0.2,0.5
		c0.1,0.1,0.1,0.2,0.2,0.2c0.1,0.1,0.2,0.1,0.3,0.1c0,0,0.1,0,0.1-0.1c0-0.1-0.1-0.1-0.2-0.2c-0.1-0.1-0.1-0.1-0.2-0.2
		c-0.1-0.1-0.1-0.3-0.1-0.4c0-0.1,0-0.3,0.1-0.4c0-0.1,0.1-0.1,0.1-0.2c0-0.1,0.1-0.1,0.1-0.2C41.9,32.8,41.8,32.7,41.7,32.8
		L41.7,32.8z"/>
	<path class="st8" d="M52.3,33.5c0.1-0.4,0.2-0.8,0.4-1.2c0.1-0.3,0.3-0.6,0.7-0.6c0.4,0,0.6,0.3,0.7,0.6c0.1,0.2,0.1,0.4,0.2,0.6
		c0,0.1,0,0.2,0.1,0.3c0,0.1,0,0.2,0.1,0.4c0.1,0.1,0.3,0.1,0.3,0c0.1-0.2,0-0.4,0-0.6c0-0.2-0.1-0.4-0.1-0.6
		c-0.1-0.4-0.3-0.7-0.6-0.9c-0.3-0.2-0.7-0.2-1-0.1c-0.3,0.2-0.5,0.5-0.6,0.8c-0.2,0.4-0.3,0.9-0.1,1.3
		C52.2,33.6,52.3,33.6,52.3,33.5L52.3,33.5z"/>
	<path class="st8" d="M46.2,33.8c0.1-0.4,0.2-0.8,0.4-1.2c0.1-0.3,0.3-0.6,0.7-0.6c0.4,0,0.6,0.3,0.7,0.6c0.1,0.2,0.1,0.4,0.2,0.6
		c0,0.1,0,0.2,0.1,0.3c0,0.1,0,0.2,0.1,0.4c0.1,0.1,0.3,0.1,0.3,0c0.1-0.2,0-0.4,0-0.6c0-0.2-0.1-0.4-0.1-0.6
		c-0.1-0.4-0.3-0.7-0.6-0.9c-0.3-0.2-0.7-0.2-1-0.1c-0.3,0.2-0.5,0.5-0.6,0.8c-0.2,0.4-0.3,0.9-0.1,1.3
		C46.1,33.8,46.2,33.9,46.2,33.8L46.2,33.8z"/>
	<path class="st15" d="M48,34.6c0,0.4-0.8,0.7-1.8,0.7s-1.8-0.3-1.8-0.7c0-0.4,0.8-0.7,1.8-0.7S48,34.2,48,34.6z"/>
	<path class="st10" d="M40.1,35c0.1,0.7-0.4,1.4-0.9,1.8c-0.5,0.4-1.1,0.8-1.7,1.2c-0.9,0.7-1.4,1.6-1.4,2.7c-0.1,1,0.1,2.1,0.1,3.1
		c0,0.6-0.1,1.2-0.4,1.7c-0.3,0.6-0.6,1.1-1.1,1.5c-0.5,0.5-1.1,0.7-1.6,1.2c-0.5,0.5-0.7,1.3-0.5,2c0.1,0.2,0.4,0.2,0.4,0
		c0.1-0.3,0-0.6,0.1-0.9c0.1-0.3,0.3-0.6,0.5-0.8c0.5-0.4,1-0.7,1.4-1.1c0.9-0.9,1.5-2,1.6-3.3c0.1-1.1-0.2-2.1-0.1-3.2
		c0-0.5,0.1-1,0.3-1.5c0.3-0.5,0.7-1,1.2-1.3c0.6-0.4,1.3-0.8,1.8-1.3c0.2-0.3,0.4-0.6,0.5-0.9c0.1-0.3,0.1-0.7,0-1
		C40.3,34.8,40.1,34.8,40.1,35L40.1,35z"/>
	<path class="st10" d="M42.1,39.1c-0.1,0.3-0.2,0.6-0.3,1c-0.1,0.3-0.3,0.6-0.5,0.9c-0.4,0.5-0.9,0.9-1.2,1.5
		c-0.3,0.6-0.2,1.2-0.2,1.8c0,0.3,0.1,0.6,0.1,0.9c0,0.1,0,0.3,0,0.4c0,0.2-0.1,0.3-0.1,0.5c0,0.1,0.1,0.2,0.3,0.1
		c0.3-0.2,0.3-0.5,0.4-0.8c0-0.3,0-0.6,0-1c-0.1-0.6-0.2-1.3,0.1-1.9c0.3-0.6,0.8-1,1.2-1.6c0.3-0.5,0.7-1.3,0.6-1.9
		C42.3,39,42.1,39,42.1,39.1L42.1,39.1z"/>
	<path class="st8" d="M52.3,30.4c0.1,0,0.2,0,0.3-0.1c0.1,0,0.2-0.1,0.3-0.1c0.2,0,0.4,0,0.6,0c0.4,0,0.8,0.2,1.2,0.4
		c0.1,0.1,0.2-0.1,0.1-0.1c-0.3-0.3-0.8-0.5-1.3-0.5c-0.2,0-0.5,0-0.7,0c-0.2,0-0.5,0.1-0.6,0.3C52.3,30.3,52.3,30.4,52.3,30.4
		L52.3,30.4z"/>
	<path class="st16" d="M45.2,61.3c-0.1,0-0.1-0.1-0.2-0.1c-0.1,0-0.2,0.1-0.2,0.3c0,0.1,0.1,0.3,0.2,0.4c0.3,0.4,0.6,0.8,1,1.1
		c-0.7,0-1.3-0.1-2-0.2c-0.1,0-0.3-0.1-0.4-0.1c-0.1,0-0.3,0.1-0.3,0.3c0,0.1,0.1,0.2,0.1,0.3c0.2,0.2,0.4,0.3,0.6,0.4
		c-0.1,0-0.3-0.1-0.4-0.1c-0.1,0-0.3,0.1-0.3,0.2c0,0.2,0.1,0.3,0.3,0.4c0.5,0.3,1.1,0.6,1.7,0.7c-0.2,0-0.3-0.1-0.5,0
		c-0.2,0-0.3,0.1-0.3,0.3c0,0.2,0.2,0.4,0.4,0.5c0.5,0.3,1.1,0.3,1.6,0.4c0.8,0.2,1.5,0.6,2.3,0.9c0.1,0,0.2,0.1,0.3,0
		c0,0,0.1-0.1,0.1-0.1c0.1-0.3,0-0.6-0.2-0.8c-0.1-0.1-0.2-0.2-0.2-0.3c-0.1-0.2-0.1-0.5-0.1-0.8C48.5,63.1,46.6,62.3,45.2,61.3z"/>
	<path class="st1" d="M89.1,28.4c0,1.2,0,2.3,0.1,3.5c0.1,1.1,0.2,2.2,0.4,3.3c0.3,2.3,0.8,4.5,1.5,6.7c0.6,2.2,1.4,4.3,2.3,6.4
		c0.9,2,2,4,3,6c0.6,1.1,1.1,2.2,1.5,3.4c0.5,1.2,0.8,2.3,1.1,3.5c0.1,0.3,0.4,0.1,0.4-0.1c-0.3-2.2-1.2-4.2-2.2-6.2
		c-1-2-2-3.9-3-5.9c-1.9-4.1-3.3-8.5-4.1-12.9c-0.2-1.3-0.4-2.5-0.6-3.8c-0.1-1.3-0.3-2.5-0.3-3.8C89.3,28.3,89.1,28.3,89.1,28.4
		L89.1,28.4z"/>
	<path class="st21" d="M64.1,17.7c0,0.9-0.7,1.7-1.7,1.7s-1.7-0.7-1.7-1.7c0-0.9,0.7-1.7,1.7-1.7S64.1,16.8,64.1,17.7z"/>
	<path class="st17" d="M22.5,49.4c0,0.9-0.7,1.7-1.7,1.7c-0.9,0-1.7-0.7-1.7-1.7c0-0.9,0.7-1.7,1.7-1.7
		C21.8,47.7,22.5,48.5,22.5,49.4z"/>
	<circle class="st21" cx="12.5" cy="60.9" r="1.7"/>
	<path class="st2" d="M23.9,38.3c0,0.7-0.6,1.3-1.3,1.3s-1.3-0.6-1.3-1.3c0-0.7,0.6-1.3,1.3-1.3S23.9,37.5,23.9,38.3z"/>
	<circle class="st2" cx="72.6" cy="40.3" r="1.7"/>
	<path class="st21" d="M86.2,68.7c0,0.9-0.7,1.7-1.7,1.7c-0.9,0-1.7-0.7-1.7-1.7c0-0.9,0.7-1.7,1.7-1.7
		C85.5,67.1,86.2,67.8,86.2,68.7z"/>
	<path class="st21" d="M69.3,37.2c0,0.5-0.4,0.8-0.8,0.8c-0.5,0-0.8-0.4-0.8-0.8c0-0.5,0.4-0.8,0.8-0.8
		C68.9,36.4,69.3,36.8,69.3,37.2z"/>
	<path class="st17" d="M16.8,68.5c0,0.5-0.4,0.8-0.8,0.8c-0.5,0-0.8-0.4-0.8-0.8c0-0.5,0.4-0.8,0.8-0.8
		C16.4,67.7,16.8,68.1,16.8,68.5z"/>
	<path class="st21" d="M84.8,60.8c0,0.5-0.4,0.8-0.8,0.8c-0.5,0-0.8-0.4-0.8-0.8c0-0.5,0.4-0.8,0.8-0.8C84.4,60,84.8,60.4,84.8,60.8
		z"/>
	<path class="st17" d="M70.2,45.2c0,0.5-0.4,0.8-0.8,0.8c-0.5,0-0.8-0.4-0.8-0.8c0-0.5,0.4-0.8,0.8-0.8
		C69.8,44.3,70.2,44.7,70.2,45.2z"/>
	<path class="st2" d="M93.9,65.9c0,0.5-0.4,0.8-0.8,0.8c-0.5,0-0.8-0.4-0.8-0.8c0-0.5,0.4-0.8,0.8-0.8
		C93.5,65.1,93.9,65.5,93.9,65.9z"/>
	<path class="st21" d="M14,45.1c0,0.5-0.4,0.8-0.8,0.8c-0.5,0-0.8-0.4-0.8-0.8c0-0.5,0.4-0.8,0.8-0.8C13.6,44.2,14,44.6,14,45.1z"/>
	<circle class="st17" cx="81.4" cy="57.9" r="0.8"/>
	<path class="st23" d="M60.9,56.1l-3.4,0.4c-0.3,0-0.6-0.2-0.7-0.5l-0.1-0.6c0-0.3,0.2-0.6,0.5-0.7l3.4-0.4c0.3,0,0.6,0.2,0.7,0.5
		l0.1,0.6C61.4,55.8,61.2,56.1,60.9,56.1z"/>
	<g>
		<path class="st23" d="M76.2,81.6H30.5c-0.6,0-1.2-0.5-1.2-1.2l0,0c0-0.6,0.5-1.2,1.2-1.2h45.7c0.6,0,1.2,0.5,1.2,1.2l0,0
			C77.4,81.1,76.9,81.6,76.2,81.6z"/>
		<path class="st23" d="M60.8,80.1c3.6,0.1,7.1,0.2,10.7,0.2c0.5,0,1,0,1.5,0c0.5,0,1,0.1,1.6,0c0.1,0,0.1-0.1,0-0.1
			c-0.4-0.1-0.9,0-1.4,0c-0.4,0-0.9,0-1.3,0c-0.9,0-1.8,0-2.7-0.1c-1.8,0-3.6-0.1-5.3-0.1C62.8,80.1,61.8,80.1,60.8,80.1
			C60.7,80.1,60.7,80.1,60.8,80.1L60.8,80.1z"/>
		<path class="st23" d="M32.7,81c3.6,0.1,7.1,0.2,10.7,0.2c0.5,0,1,0,1.5,0c0.5,0,1,0.1,1.6,0c0.1,0,0.1-0.1,0-0.1
			c-0.4-0.1-0.9,0-1.4,0c-0.4,0-0.9,0-1.3,0c-0.9,0-1.8,0-2.7-0.1c-1.8,0-3.6-0.1-5.3-0.1C34.7,80.9,33.7,80.9,32.7,81
			C32.7,80.9,32.7,81,32.7,81L32.7,81z"/>
		<path class="st23" d="M34.3,80.5c3.6,0.1,7.1,0.2,10.7,0.2c0.5,0,1,0,1.5,0c0.5,0,1,0.1,1.6,0c0.1,0,0.1-0.1,0-0.1
			c-0.4-0.1-0.9,0-1.4,0c-0.4,0-0.9,0-1.3,0c-0.9,0-1.8,0-2.7-0.1c-1.8,0-3.6-0.1-5.3-0.1C36.4,80.4,35.4,80.4,34.3,80.5
			C34.3,80.4,34.3,80.5,34.3,80.5L34.3,80.5z"/>
		<path class="st23" d="M50.7,80.6c3.6,0.1,7.1,0.2,10.7,0.2c0.5,0,1,0,1.5,0c0.5,0,1,0.1,1.6,0c0.1,0,0.1-0.1,0-0.1
			c-0.4-0.1-0.9,0-1.4,0c-0.4,0-0.9,0-1.3,0c-0.9,0-1.8,0-2.7-0.1c-1.8,0-3.6-0.1-5.3-0.1C52.8,80.5,51.8,80.6,50.7,80.6
			C50.7,80.6,50.7,80.6,50.7,80.6L50.7,80.6z"/>
		<path class="st23" d="M43.4,80c3.6,0.1,7.1,0.2,10.7,0.2c0.5,0,1,0,1.5,0c0.5,0,1,0.1,1.6,0c0.1,0,0.1-0.1,0-0.1
			c-0.4-0.1-0.9,0-1.4,0c-0.4,0-0.9,0-1.3,0c-0.9,0-1.8,0-2.7-0.1c-1.8,0-3.6-0.1-5.3-0.1C45.4,79.9,44.4,79.9,43.4,80
			C43.3,79.9,43.3,80,43.4,80L43.4,80z"/>
	</g>
	<path class="st21" d="M4.3,53.9c-0.7,3-0.8,6.1-0.4,9.1c0.4,3,1.4,6,2.9,8.6c0.8,1.5,1.8,3,3,4.2c0.1,0.1,0.3,0,0.2-0.2
		c-0.9-1.2-1.8-2.4-2.5-3.7c-0.8-1.3-1.4-2.6-1.9-4c-1-2.8-1.6-5.8-1.6-8.8c0-1.7,0.2-3.4,0.5-5.1C4.6,53.8,4.4,53.8,4.3,53.9
		L4.3,53.9z"/>
	<path class="st1" d="M88.2,22.4c0.2,1,0.2,1.9,0.3,2.9c0,0.2,0.2,0.2,0.3,0c0.1-1-0.1-2-0.4-2.9C88.3,22.2,88.2,22.2,88.2,22.4
		L88.2,22.4z"/>
</g>
</svg>
