<?xml version="1.0" encoding="utf-8"?>
<!-- Generator: Adobe Illustrator 24.0.1, SVG Export Plug-In . SVG Version: 6.00 Build 0)  -->
<svg version="1.1" id="Layer_1" xmlns="http://www.w3.org/2000/svg" xmlns:xlink="http://www.w3.org/1999/xlink" x="0px" y="0px"
	 viewBox="0 0 1000 1000" style="enable-background:new 0 0 1000 1000;" xml:space="preserve">
<style type="text/css">
	.st0{fill:url(#SVGID_1_);}
	.st1{fill:none;}
</style>
<linearGradient id="SVGID_1_" gradientUnits="userSpaceOnUse" x1="501.75" y1="164.5141" x2="501.75" y2="839.1965">
	<stop  offset="0" style="stop-color:#FF7300"/>
	<stop  offset="0.1771" style="stop-color:#F97C01"/>
	<stop  offset="0.4705" style="stop-color:#EA9602"/>
	<stop  offset="0.5521" style="stop-color:#E59E03"/>
	<stop  offset="1" style="stop-color:#E5C500"/>
</linearGradient>
<path class="st0" d="M791.5,418.7H659.8c-13.6,0-24.6,11-24.6,24.6c0,13.6,11,24.6,24.6,24.6h131.7c13.6,0,24.6-11,24.6-24.6
	C816.1,429.8,805.1,418.7,791.5,418.7z M791.5,326.5H659.8c-13.6,0-24.6,11-24.6,24.6c0,13.6,11,24.6,24.6,24.6h131.7
	c13.6,0,24.6-11,24.6-24.6C816.1,337.5,805.1,326.5,791.5,326.5z M791.5,234.3H528.1c-13.6,0-24.6,11-24.6,24.6
	c0,13.6,11,24.6,24.6,24.6h263.4c13.6,0,24.6-11,24.6-24.6C816.1,245.4,805.1,234.3,791.5,234.3z M816.1,258.9
	c0-13.6-11-24.6-24.6-24.6H528.1c-13.6,0-24.6,11-24.6,24.6c0,13.6,11,24.6,24.6,24.6h263.4C805.1,283.5,816.1,272.5,816.1,258.9z
	 M791.5,326.5H659.8c-13.6,0-24.6,11-24.6,24.6c0,13.6,11,24.6,24.6,24.6h131.7c13.6,0,24.6-11,24.6-24.6
	C816.1,337.5,805.1,326.5,791.5,326.5z M791.5,418.7H659.8c-13.6,0-24.6,11-24.6,24.6c0,13.6,11,24.6,24.6,24.6h131.7
	c13.6,0,24.6-11,24.6-24.6C816.1,429.8,805.1,418.7,791.5,418.7z M844.2,129H475.4c-42.6,0-77.3,34.7-77.3,77.3v236.6l-68.5-34
	c-2.3-1.2-4.7-2.2-7-3.3c20.1-21,32.5-49.4,32.5-80.7c0-64.4-52.4-116.8-116.8-116.8c-64.4,0-116.8,52.4-116.8,116.8
	c0,35,15.5,66.4,40,87.8C116.5,438,82,487.4,82,548.7v79c0,34,22.1,63,52.7,73.3v137.5c0,13.6,11,24.6,24.6,24.6h158
	c13.6,0,24.6-11,24.6-24.6V562.1l78.7,39.4c30.1,15.1,71,6.1,89.5-28.2h88.2L505,830c-4.6,12.8,1.9,26.9,14.7,31.5
	c14.6,5.3,27.6-3.8,31.5-14.7l99.5-273.6h17.2l100.5,273.6c3.8,10.4,16.7,20.1,31.6,14.6c12.8-4.7,19.3-18.8,14.6-31.6l-94.3-256.7
	h123.9c41.8,0,77.3-33.7,77.3-77.3V206.3C921.5,162.7,886,129,844.2,129z M238.3,257.2c37.3,0,67.6,30.3,67.6,67.6
	c0,37.3-30.3,67.6-67.6,67.6c-37.3,0-67.6-30.3-67.6-67.6C170.7,287.5,201.1,257.2,238.3,257.2z M468.1,547
	c-0.1,0.2-0.1,0.4-0.2,0.6c-1.7,4.7-5.5,8.6-10.1,10.5c-4.9,2-10.4,1.8-15.2-0.6c-46.8-23.4-114.3-57.2-114.3-57.2
	c-16.3-8.2-35.6,3.7-35.6,22v291.5H183.9V680.4c0-13.6-11-24.6-24.6-24.6c-15.5,0-28.1-12.6-28.1-28.1v-79
	c0-60.1,48.9-107.1,107.1-107.1h21.7c16.5,0,33,3.9,47.7,11.2c0,0,122,60.7,153.1,76.1C467.4,532.2,470.6,540,468.1,547z M872.3,496
	c0,7.5-2.9,14.6-8.2,19.9c-5.2,5.2-12.5,8.2-19.9,8.2H515.5c-0.1-0.1-0.1-0.3-0.1-0.4l61-122.1c6.1-12.1,1.2-26.9-11-33
	c-12.1-6.1-26.9-1.1-33,11l-52.1,104.1c-9.7-4.8-21-10.5-33.1-16.5v-261c0-15.5,12.6-28.1,28.1-28.1h368.8c7.4,0,14.7,3,19.9,8.2
	c5.3,5.3,8.2,12.3,8.2,19.9V496z M791.5,234.3H528.1c-13.6,0-24.6,11-24.6,24.6c0,13.6,11,24.6,24.6,24.6h263.4
	c13.6,0,24.6-11,24.6-24.6C816.1,245.4,805.1,234.3,791.5,234.3z M791.5,326.5H659.8c-13.6,0-24.6,11-24.6,24.6
	c0,13.6,11,24.6,24.6,24.6h131.7c13.6,0,24.6-11,24.6-24.6C816.1,337.5,805.1,326.5,791.5,326.5z M791.5,418.7H659.8
	c-13.6,0-24.6,11-24.6,24.6c0,13.6,11,24.6,24.6,24.6h131.7c13.6,0,24.6-11,24.6-24.6C816.1,429.8,805.1,418.7,791.5,418.7z"/>
<g>
	<path class="st1" d="M844.2,129H475.4c-42.6,0-77.3,34.7-77.3,77.3v236.6l-68.5-34c-2.3-1.2-4.7-2.2-7-3.3
		c20.1-21,32.5-49.4,32.5-80.7c0-64.4-52.4-116.8-116.8-116.8c-64.4,0-116.8,52.4-116.8,116.8c0,35,15.5,66.4,40,87.8
		C116.5,438,82,487.4,82,548.7v79c0,34,22.1,63,52.7,73.3v137.5c0,13.6,11,24.6,24.6,24.6h158c13.6,0,24.6-11,24.6-24.6V562.1
		l78.7,39.4c30.1,15.1,71,6.1,89.5-28.2h88.2L505,830c-4.6,12.8,1.9,26.9,14.7,31.5c14.6,5.3,27.6-3.8,31.5-14.7l99.5-273.6h17.2
		l100.5,273.6c3.8,10.4,16.7,20.1,31.6,14.6c12.8-4.7,19.3-18.8,14.6-31.6l-94.3-256.7h123.9c41.8,0,77.3-33.7,77.3-77.3V206.3
		C921.5,162.7,886,129,844.2,129z M238.3,257.2c37.3,0,67.6,30.3,67.6,67.6c0,37.3-30.3,67.6-67.6,67.6c-37.3,0-67.6-30.3-67.6-67.6
		C170.7,287.5,201.1,257.2,238.3,257.2z M468.1,547c-0.1,0.2-0.1,0.4-0.2,0.6c-1.7,4.7-5.5,8.6-10.1,10.5c-4.9,2-10.4,1.8-15.2-0.6
		c-46.8-23.4-114.3-57.2-114.3-57.2c-16.3-8.2-35.6,3.7-35.6,22v291.5H183.9V680.4c0-13.6-11-24.6-24.6-24.6
		c-15.5,0-28.1-12.6-28.1-28.1v-79c0-60.1,48.9-107.1,107.1-107.1h21.7c16.5,0,33,3.9,47.7,11.2c0,0,122,60.7,153.1,76.1
		C467.4,532.2,470.6,540,468.1,547z M872.3,496c0,7.5-2.9,14.6-8.2,19.9c-5.2,5.2-12.5,8.2-19.9,8.2H515.5c-0.1-0.1-0.1-0.3-0.1-0.4
		l61-122.1c6.1-12.1,1.2-26.9-11-33c-12.1-6.1-26.9-1.1-33,11l-52.1,104.1c-9.7-4.8-21-10.5-33.1-16.5v-261
		c0-15.5,12.6-28.1,28.1-28.1h368.8c7.4,0,14.7,3,19.9,8.2c5.3,5.3,8.2,12.3,8.2,19.9V496z"/>
	<path class="st1" d="M816.1,258.9c0,13.6-11,24.6-24.6,24.6H528.1c-13.6,0-24.6-11-24.6-24.6c0-13.6,11-24.6,24.6-24.6h263.4
		C805.1,234.3,816.1,245.4,816.1,258.9z"/>
	<path class="st1" d="M816.1,351.1c0,13.6-11,24.6-24.6,24.6H659.8c-13.6,0-24.6-11-24.6-24.6c0-13.6,11-24.6,24.6-24.6h131.7
		C805.1,326.5,816.1,337.5,816.1,351.1z"/>
	<path class="st1" d="M816.1,443.3c0,13.6-11,24.6-24.6,24.6H659.8c-13.6,0-24.6-11-24.6-24.6c0-13.6,11-24.6,24.6-24.6h131.7
		C805.1,418.7,816.1,429.8,816.1,443.3z"/>
</g>
</svg>
