<?xml version="1.0" encoding="utf-8"?>
<!-- Generator: Adobe Illustrator 24.0.1, SVG Export Plug-In . SVG Version: 6.00 Build 0)  -->
<svg version="1.1" id="Layer_1" xmlns="http://www.w3.org/2000/svg" xmlns:xlink="http://www.w3.org/1999/xlink" x="0px" y="0px"
	 viewBox="0 0 306.6 152.5" style="enable-background:new 0 0 306.6 152.5;" xml:space="preserve">
<style type="text/css">
	.st0{fill:#EE7C12;}
	.st1{fill:#EF7E3D;}
	.st2{fill:#1B99C4;}
	.st3{font-family:'ArialMT';}
	.st4{font-size:10.7499px;}
	.st5{fill:#A41179;}
	.st6{fill:#E21345;}
	.st7{fill:#128A37;}
	.st8{fill:#A6BB1A;}
	.st9{fill:#C94B93;}
	.st10{fill:url(#SVGID_1_);}
	.st11{fill:#F29A11;}
	.st12{fill:#EE8C9D;}
	.st13{fill:url(#SVGID_2_);}
	.st14{fill:#EA5529;}
	.st15{fill:#57130B;}
	.st16{fill:url(#SVGID_3_);}
	.st17{fill:#FAE099;}
	.st18{fill:#FFFFFF;}
	.st19{fill:#22017C;}
	.st20{fill:url(#SVGID_4_);}
	.st21{stroke:#000000;stroke-width:0.2;stroke-miterlimit:10;}
	.st22{fill:#923310;}
	.st23{fill:url(#SVGID_5_);}
	.st24{fill:#D06A0E;}
	.st25{fill:#7C2E0F;}
	.st26{fill:none;stroke:#7C2E0F;stroke-width:0.2;stroke-linecap:round;stroke-miterlimit:10;}
	.st27{fill:url(#SVGID_6_);}
	.st28{fill:url(#SVGID_7_);}
	.st29{fill:#F6B60D;}
	.st30{fill:#CD622A;}
	.st31{fill:url(#SVGID_8_);}
	.st32{fill:url(#SVGID_9_);}
	.st33{fill:url(#SVGID_10_);}
	.st34{fill:url(#SVGID_11_);}
	.st35{fill:url(#SVGID_12_);}
	.st36{fill:url(#SVGID_13_);}
	.st37{fill:url(#SVGID_14_);}
	.st38{fill:url(#SVGID_15_);}
	.st39{fill:url(#SVGID_16_);}
</style>
<g id="logo_1_">
	<path class="st0" d="M3.2,65.9c1-1.2,5-4.7,7.5-0.4c0.9,4.7,1.3,28.7,0.2,34.9c-0.5,6.3,0.1,14.1,1.2,15.9s2.8,1.3,3.4,1.3
		c0.6,0,12.3-1.1,15-2.6c2.7-1.6,2.4-1.6,3.6-1.8c1.1-0.2,2.4,0.3,3.7,2.1c1.4,1.8,1,2.3,0.7,3.7c-0.3,1.4-4.2,3.7-7.6,4.3
		s-7.7,1.3-10.6,1.1c-2.9-0.2-7.9,0.5-12.1,2.2c-4.4,0.9-4.6-4.5-4.8-5.6c-0.2-1.2-0.9-10.2-0.9-11.6C2.1,84.8,3.2,65.9,3.2,65.9z"
		/>
	<path class="st0" d="M23.8,74c0.1-1.6,0.4-4.3,5.3-4.7c4.5,0.4,3.8,3.9,3.6,4.8c-0.2,0.9-1.1,4-4.5,4.1C23.4,77.5,23.8,74,23.8,74z
		"/>
	<path class="st0" d="M31.3,82.8c1.1,0.4,2,0.9,2.5,1.8c0.3,0.5,0.3,1.1,0,1.6c-0.6,1.2-1.5,2.8-1.3,5.2c-0.1,2.8,0.4,7.6,1.9,13.1
		c0.3,3.3,0.8,4.4-2.5,4.9c-3.2,0.5-3.8,0-4.7-2.3c-1.8-12.2-3.5-20.6-0.5-23.4C29,82,31.3,82.8,31.3,82.8z"/>
	<path class="st0" d="M52.1,61.2c3.4,0,5.7,0.7,4.3,5.5c-1.1,4.7-3.2,14.6,1.9,13.7c4.6-0.8,7.8-1.6,8.4,1.3
		c0.1,2.9-4.2,4.8-10.2,5.1c-1.3,0.3-2.5,0.4-1.4,6.6c2,7,1.8,27,8,23.4c5.7-2.9,6.4-3.2,8.1-0.9c1,1.3,0.3,3.9-1.6,5
		c-1.9,1.1-6,4.7-10.4,4.4c-4.4-0.3-6.5-6.2-7.4-9.5C51,112.5,49.7,97,47.6,91c-0.3-0.8-1.5-2.5-4.6-0.8c-3.1,1.7-5.4,0.4-6.6-1.2
		c-0.4-2,0.1-3.5,3-4.6c2.8-1,2.7-0.7,5.5-2c2.8-1.3,3-3.7,2.8-11.7c0.1-4.4,0.4-5.1,0.4-6.6C48.3,62.7,49.3,61.3,52.1,61.2z"/>
	<path class="st0" d="M83.1,58.4c3.4,0,5.7,0.7,4.3,5.5c-1.1,4.7-3.2,14.6,1.9,13.7c4.6-0.8,7.8-1.6,8.4,1.3
		c0.1,2.9-4.2,4.8-10.2,5.1c-1.3,0.3-2.5,0.4-1.4,6.6c2,7,1.8,27,8,23.4c5.7-2.9,6.4-3.2,8.1-0.9c1,1.3,0.3,3.9-1.6,5
		c-1.9,1.1-6,4.7-10.4,4.4c-4.4-0.3-6.5-6.2-7.4-9.5c-0.9-3.3-2.2-18.8-4.2-24.8c-0.3-0.8-1.5-2.5-4.6-0.8c-3.1,1.7-5.4,0.4-6.6-1.2
		c-0.4-2,0.1-3.5,3-4.6c2.8-1,2.7-0.7,5.5-2c2.8-1.3,3-3.7,2.8-11.7c0.1-4.4,0.4-5.1,0.4-6.6C79.2,59.9,80.3,58.5,83.1,58.4z"/>
	<path class="st0" d="M104.1,56.8c4.1,0,3.9,2.9,3.9,4.4s0.6,12.4,1.4,17.4c0.5,10.4,3.4,21.9,0.5,26.4c-0.9,1.6-2,2.2-4.1,2
		c-2.1-0.1-3.7-1.5-3.6-4.5c0.1-3,1.9-5.5,0.3-21.5c0.1-5.1-2.3-10.4-3.1-16.9C98.6,57.8,104.1,56.8,104.1,56.8z"/>
	<path class="st1" d="M257.5,120.2c2.1,0.2,1.9,1.7,1.8,2.4c-0.1,0.8-0.2,6.4,0,9c-0.2,5.4,0.8,11.4-0.9,13.6
		c-0.6,0.8-1.1,1-2.2,0.9c-1.1-0.2-1.8-0.9-1.6-2.4c0.2-1.5,1.2-2.7,1.1-11c0.3-2.6-0.8-5.4-0.9-8.8
		C254.6,120.4,257.5,120.2,257.5,120.2z"/>
	<path class="st0" d="M144,95c-1-2.1-3.9-0.3-5.3,0.5c-1.4,0.7-7,4-10.8,1.1c-0.5-0.6-0.8-1.2-0.5-2c1.5-1.4,11.8-8.4,12.9-11.1
		c1-2.7-3.7-14.1-15.9-12.7c-10.9,1.9-10,14.5-7.1,21.6c1.6,4.5,5,13.7,19.9,10.6C144.3,100.9,145.1,97.1,144,95z M122.3,80.9
		c0.6-2.4,2.4-3.7,4-3.8c3.2-0.2,6.3,0.8,6.3,3.8c-1.4,5.8-7.2,6.1-8.5,6.2C122.5,86.7,121.7,83.3,122.3,80.9z"/>
	<path class="st2" d="M177.8,141.9c-0.3-1.1-1.9-0.4-2.6-0.2c-0.7,0.3-3.7,1.4-5.3-0.3c-0.2-0.3-0.3-0.7-0.1-1
		c0.8-0.6,6.3-3.2,7-4.4c0.7-1.2-0.7-7.1-6.7-7.3c-5.4,0.1-5.9,6.3-5.1,9.9c0.4,2.3,1.4,7,8.8,6.7
		C177.5,144.8,178.2,143,177.8,141.9z M168.8,136.6c-0.7-0.3-0.8-2-0.4-3.1c0.5-1.1,1.5-1.6,2.2-1.5c1.6,0.1,3,0.9,2.7,2.3
		C172.3,136.9,169.5,136.6,168.8,136.6z"/>
	<path class="st0" d="M185.2,85.5c-1.7-7.7-12.9-9.5-13.5-9.5c-0.7,0-0.7-0.4-0.7-0.4c-0.2-0.5,3.4-2,5.6-4.1c2.6-2,4.8-4.2,5.6-4.8
		c1.7-1.1,1.9-2.1,1.9-2.1c0.3-2.1-1.1-3.4-2.4-4.2c-9.8-5.2-15.2-6.5-18.3-6.6c-3.1-0.1-7,0-9.1,0c-1.7,0.5-3.3,2.6-3.5,3.9
		c-0.2,1.4,0.7,3,1.7,2.9c1,0,2,0.3,2.5,0.6c2.6,2,1.2,9.4,1.4,9.9c0.5,1.9,0.8,3.9,0.3,4.4c-1.9,1.8-0.8,4.4-0.3,5.5
		c2.2,5.9,2.6,18.5,3,21.1c0.4,2.6-0.8,3.1-2.1,4.6c-1.3,1.5-3.4,4.2,1.3,5.2c5.4-0.2,10.5-3,16.3-7.7
		C180.6,99.5,186.9,93.2,185.2,85.5z M164.2,65.9c0.3-1.6,0.8-4.3,2.8-4.1c1.9,0.9,4.9,1.4,5.8,2.8c0.9,1.4-3.6,5.7-6.8,5.5
		C164.8,69.9,164,67.5,164.2,65.9z M173.3,96.8c-2.1,2.1-3.1,3-4.8,2.6c-1.7-0.4-1.6-5.5-1.9-7.3c-0.4-1.8-1.4-6.2-1-7.7
		c0,0,0.8-1.7,2.7-1.7c1.9-0.1,3.9-0.2,8,3.7C178.8,91.9,175.3,94.7,173.3,96.8z"/>
	<path class="st0" d="M197.3,76.7c0.4,1.6-2.9,23.8,3.9,23.8c6.8,0,10.1-12.3,5.5-20.5c-4.6-8.1-0.2-9.1,4.7-6.4
		c4.4,4.7,4.5,9.8,4,14.2c-0.5,4.4-1.8,13.5-7.7,17.6c-5.9,4-11.4,3.5-15-1.9c-3.6-5.5-4.5-15.5-4.1-20.4c0.1-1.9,0.2-4.3,0.6-5.8
		C190.1,74.8,195,72.9,197.3,76.7z"/>
	<text transform="matrix(1 0 0 1 288.7691 68.7144)" class="st3 st4">TM</text>
	<path class="st0" d="M280.9,72.3c3.5-0.1,4.1,3.1,4.2,7.2c0,4.1-0.1,5.1,0.1,7.4c0.3,0.6,0.3,1.6,1.7-0.2
		c0.8-2.1,4.3-10.5,6.5-11.9c0,0,2.1-2,3.7-1.9c1.5-0.1,2.7-0.3,3.6,1.4c0.4,1.8-0.6,2.8-1,3.6c-0.4,0.8-7.5,12.8-7.8,14.9
		c-0.3,2.1-1.8,2.7-1.9,8.7c-0.1,6-5.6,16.3-9.8,19.8c-4.2,3.5-9.7,1.6-10.6-1.8c-0.9-3.3-2.1-4.6,1.3-7c1.6-0.5,2.2,0.1,3.6,1.2
		c1.4,1.1,2.9,0.3,3.4-0.2c0.5-0.5,5.1-5.7,3.1-13.5c-0.2-1.3-1.5-4.7-2.5-6.5c-0.5-2.5-2.3-15.4-2.1-17.9
		C276.7,73.3,278.3,72.7,280.9,72.3z"/>
	<path class="st5" d="M149.2,123.6c-2.5-1.7-4.9-4.1-12.5-3.4c-1.9,0.2-4.1,0.8-4.5,1.8c-0.4,1,0,2.2,0.5,2.3
		c0.5,0.2,0.8,0.2,0.8,0.2c0.2,0,0.6,0,0.4,0.4c-0.9,1-1.6,10.2-1.1,19.1c0.4,1.6,1,2.5,2.8,1.9c1.7-0.6,2.5-1.9,2.3-3.6
		c-0.3-1.6-1.1-4.3,1.3-5.4c2.4-1.1,7.6-2.2,10.8-6.6C151.5,127.6,151.7,125.4,149.2,123.6z M145.3,129.4c-1.6,2.5-3.8,3.6-6.2,3.7
		c-2.4,0-1.8-1.1-1.8-2.4c0.3-0.8,0.3-2.6,0.4-3.1c0.2-0.5,0.4-1.2,0.5-1.9c0.1-0.7-0.2-1-0.6-1.4c-0.4-0.4,0-0.4,0.2-0.4
		c0,0,0.3,0,1.7,0s3.6,1.3,4.8,2.1C145.6,126.6,145.8,128.6,145.3,129.4z"/>
	<path class="st6" d="M156.9,130.6c0.3-0.1,1.5-0.8,3.3-2.6c0.9-0.6,2.1-0.6,2.9,0c0.8,0.6,1.5,0.8,0.5,2c-1,1.2-3.4,3.2-4.4,4.1
		c-1,1-1.9,2.4-1.9,3.5c0,1.1,1,3.3,1.1,4.4c0.1,1.1-0.4,3.6-2.6,3.8c-2.2,0.2-2.5-1.7-2.4-2.6c0.1-0.8-0.2-7.8-0.5-8.8
		c-0.1-0.9-0.4-2.2-1-3.8c-0.6-1.6-0.3-2.7,0.3-3.1c0.6-0.3,1.4-1.2,3.1-0.2c0.4,0.3,1.1,1.2,1.2,2.7c0,0.2,0,0.4,0,0.5
		C156.6,130.8,156.9,130.6,156.9,130.6z"/>
	<path class="st7" d="M189.3,133.3c0.8,0.5,3.1-0.1,2.2-2.3c-0.5-1.6-4.3-2.9-6-3.3c-0.9,0-2-0.3-3.9,1c-1.8,1.2-4.2,3.1-2.6,5.7
		c1.6,2.6,5.2,3.5,6.3,4c1.1,0.5,2.4,1,2.3,2.2c-0.1,1.3-2.2,2.5-3.2,2.3c-1-0.2-2,0.3-2.8-1.4c-0.3-0.5-1-1.3-2.5-0.2
		c-0.5,0.4-1.3,1.5,0.4,3.3c1.7,1.8,4.2,2.1,6.9,1.2c2.7-0.9,5-2.8,5-5.6c0.1-2.8-3.6-4.2-4.8-4.9c-1.2-0.7-3.8-0.9-3.9-3
		c0.6-1.9,2.6-1.3,3.5-0.7C187.4,132.3,189.3,133.3,189.3,133.3z"/>
	<path class="st0" d="M203.7,128.5c-1.4,1.4-4.2,1.9-5.5,3.4c-1.3,1.5-2.5,3-2.1,5.5c0.4,2.5,2.4,4.1,4.7,4.2c0,0,0.1,0,0.1,0
		c0.5,0.1,1.2,0.4,3.3-1.3c1.9-1.3,2.4-1,2.6-0.5s0.1,2.4-1.3,3.7c-1.4,1.3-4,2-7.7,0.9c-3.6-1.1-5.6-3.7-5.7-6.9
		c-0.1-3.2,1.3-6.3,4.1-8.9c2.8-2.6,4.5-3.2,5.9-3.3C206.3,125.5,203.7,128.5,203.7,128.5z"/>
	<path class="st8" d="M209,119.7c0.3-0.6,2.1-2.7,3.6-0.6c0,1.7-0.7,11.1-0.9,14.4c0.1,0.8,0.5,2.8,2.5,0.1c0.7-0.9,3.6-2.5,4.9-0.7
		c0.5,1.8,2.1,9.3,1.6,11.7c-0.5,2.4-2.6,2.4-3.6,0.2c-0.4-1.2-0.3-6.4-0.8-7.3c-0.5-0.9-1.1-0.3-1.6,0.2s-2.9,3.9-3.3,5.4
		c-1,0.8-3.6,1-3.4-0.6c0.1-2,0.8-8.8,0.5-9.9C208.2,131.4,208.4,121.8,209,119.7z"/>
	<path class="st9" d="M230.8,126.9c-4.1,0.2-7.5,2.7-9.1,7.4c-1.5,4.7,2.6,8.7,6.2,9.4c3.6,0.7,8.5-3.3,9-7.8
		C237.4,131.6,235,127.6,230.8,126.9z M233,135.7c-0.4,4.2-3.1,4.4-4,4.8c-0.9,0.3-3.1-1.6-3.1-4.1c0.3-1.3,2-5.3,3.7-5.1
		C231.3,131.6,233.4,131.6,233,135.7z"/>
	<path class="st6" d="M247,126.9c-4.1,0.2-7.5,2.7-9.1,7.4c-1.5,4.7,2.6,8.7,6.2,9.4c3.6,0.7,8.5-3.3,9-7.8
		C253.6,131.6,251.2,127.6,247,126.9z M249.2,135.7c-0.4,4.2-3.1,4.4-4,4.8c-0.9,0.3-3.1-1.6-3.1-4.1c0.3-1.3,2-5.3,3.7-5.1
		C247.6,131.6,249.6,131.6,249.2,135.7z"/>
	<g>
		<g>
			<g id="head_4_">
				
					<linearGradient id="SVGID_1_" gradientUnits="userSpaceOnUse" x1="5517.96" y1="348.1767" x2="5546.8828" y2="355.9266" gradientTransform="matrix(-0.9945 0.1051 -0.1051 -0.9945 5773.4346 -211.7863)">
					<stop  offset="0" style="stop-color:#F7DF59"/>
					<stop  offset="2.450000e-02" style="stop-color:#F7DF59"/>
					<stop  offset="0.1732" style="stop-color:#F7DF59"/>
					<stop  offset="0.216" style="stop-color:#F7DD48"/>
					<stop  offset="0.2849" style="stop-color:#F8DA33"/>
					<stop  offset="0.3662" style="stop-color:#F9D824"/>
					<stop  offset="0.4669" style="stop-color:#F9D618"/>
					<stop  offset="0.6081" style="stop-color:#FAD514"/>
					<stop  offset="1" style="stop-color:#FAD513"/>
				</linearGradient>
				<path class="st10" d="M241.5,30.8c0.6-0.3,2.8-1.6,2.8-1.6c0.5-0.3,0.8-0.5,1-0.8c0.7-0.7,2.3-3,2.2-4.4c0-1.4-0.6-2.7-1.4-3.2
					c-0.1-0.9-0.6-3.7-1-4.6c0-0.1-0.1-0.1-0.1-0.2l0,0c1.1,0.2,2.5,0.3,3.9-0.2c2.7-0.9,3.5-3.9,3.6-6.3c0.1-2.4-0.7-2.1-1.2-1.9
					c-0.2,0.1-0.4,0.2-0.6,0.4l-0.1,0c-0.8-0.1-2.8,1-3.8,2c-0.7,0.7-2.4,1.5-3.9,2l-0.1,0c-0.3-0.4-0.7-0.7-1-0.9l-0.1,0
					c0-0.4-0.2-1.8-0.3-2.6l0.1,0c0.7-0.1,1.7-1.3,1.5-2.3c-0.2-1-1-2.3-2.5-2.3c-1.6,0.3-2.3,1.1-2.2,2.5c0.3,1.3,0.9,1.4,1.2,1.6
					c0,1.7-0.1,1.7,0,2.1c-0.4,0-2.2,0.1-2.8,0.2l-0.1,0c-0.7,0-1.4,0.2-2.2,0.5c-0.2,0.1-0.3,0.1-0.5,0.2l-0.1,0
					c-0.1-0.5-0.1-0.7-0.4-1.9l0.3-0.2c0.5-0.6,0.8-1.3,0.7-1.8c-0.1-0.6-0.9-1.7-2.1-1.7c-1.3,0.1-1.9,1.2-2,2.1s0.8,1.4,1.3,1.7
					c0.3,1.2,0.4,1.8,0.4,2.5c-0.2,0.2-0.6,0.5-0.7,0.6l-0.1,0c-0.8,0.1-2.4,0-3.1-0.3c-0.8-0.3-2.2-1.5-2.4-1.7
					c0.1-0.1,0.2-0.1,0.2-0.2c0.1-0.1-0.7-1.2-1.1,0c-0.1,1.1-0.4,2.9,0.6,4.2c1,1.3,1.9,1.1,3.6,0.5l0.2-0.1
					c-0.1,0.2-0.2,0.3-0.3,0.5c-2.1,3.6-0.5,7.4-0.4,8.9l0,0.1c-0.8,0.4-1.9,0.8-3.2,1.1c-2.2,1-2.5,3-3.1,4.7
					c-0.2,0-0.4,0.1-0.4,0.3c0,0.2,0.4,0.7,1.5,0.9c1.1,0.2,2.7,0.5,4.9,0l0.5-0.1c-0.3,1.1-1.3,2.1-0.2,3.6c1.1,1.5,5,0,6.6-2.8
					c0,0,1,0,1.6-0.1C239.8,31.9,240.9,31.2,241.5,30.8z"/>
			</g>
			<path class="st11" d="M227.7,11.7c0.2,0.4,3.4,1.8,0.8,3.3l-1.6,0.3c0.4,0.1,1.3,0.2,2.6-0.4c0,0,1.7-2.2,2.3-2.5
				C231,12.5,229.3,12.8,227.7,11.7z"/>
			<path class="st11" d="M242.7,32.1c-0.8-0.4-1.7,0.1-2.4,0.3c-1.9-0.6-4.8-0.2-4.8-0.2s0.3-0.4,0.4-0.6c0.1-0.1,0.2-0.1,0.5-0.2
				c8.7-2.1,9.4-4.5,9.1-5.8c0,0,0.3,0.1,0.6,0c0.3-0.1,0.3-1.2,0.4-1.6c0-0.4,0.1-1.7,0-2c-0.2-0.3-0.6-0.5-0.8-0.5
				c-0.2,0-0.6,0-0.6,0c0.6-4-0.3-5-0.7-5.5c0.3,0.1,0.6,0.1,0.8,0.2c0.8,2.1,1.1,4.7,1.1,4.8c0.1,0.1,0.5,0.4,0.6,0.6
				c0.3,0.6,1.6,2.2,0.1,4.8c-1.6,2.7-2.3,2.7-2.6,3"/>
			<g>
				<g>
					<path class="st12" d="M233.3,32.8c-0.1-0.8-1-1.4-2.1-1.3c-1.1,0.1-1.9,0.9-1.8,1.7c0.6,1.5,1.4,1.1,2.3,0.9
						C232.5,33.6,233,33.5,233.3,32.8z"/>
					
						<linearGradient id="SVGID_2_" gradientUnits="userSpaceOnUse" x1="5514.623" y1="358.0967" x2="5522.1714" y2="358.0967" gradientTransform="matrix(-0.9945 0.1051 -0.1051 -0.9945 5773.4346 -211.7863)">
						<stop  offset="0" style="stop-color:#F3BEC3"/>
						<stop  offset="2.950000e-02" style="stop-color:#F2B7BC"/>
						<stop  offset="0.2408" style="stop-color:#EE8F90"/>
						<stop  offset="0.4478" style="stop-color:#EA6F71"/>
						<stop  offset="0.6471" style="stop-color:#E8585E"/>
						<stop  offset="0.835" style="stop-color:#E74B53"/>
						<stop  offset="1" style="stop-color:#E7464F"/>
					</linearGradient>
					<path class="st13" d="M251.2,8.8c0,0.4,0.5,2.6-0.5,4.1c-1,1.5-2.5,2.3-4.5,2.2c-1.1-0.1-1.9-0.6-2-0.9l0.1,0
						c1.6,0.1,4.8-0.2,6.2-4.3C250.7,9.5,250.8,9.2,251.2,8.8L251.2,8.8z"/>
					<path class="st14" d="M244.7,14.2c-0.5,0-0.9,0-1.2-0.1c0,0-0.1,0-0.1,0c0,0,0,0,0,0c0,0,0,0,0,0c0,0,0.1,0,0.1,0
						c4.3,0.5,6.2-2,6.9-4.2c0,0,0-0.1,0.1-0.1c0.3-0.5,0.5-0.9,1.2-1.5c0,0,0,0,0,0c0,0,0,0,0,0c-0.7,0.5-0.9,1-1.2,1.5
						c0,0,0,0.1-0.1,0.1c-0.7,2.1-2,3.4-3.7,4C246,14.2,245.3,14.2,244.7,14.2z"/>
					<path class="st14" d="M246.5,15.1c-0.1,0-0.2,0-0.3,0c-1.1-0.1-1.9-0.6-2-0.9c0,0,0,0,0,0c0,0,0,0,0,0c0.2,0.3,0.9,0.8,2,0.9
						C246.3,15.1,246.4,15.1,246.5,15.1c1.8,0,3.2-0.8,4.2-2.3c0.9-1.3,0.6-3.2,0.5-3.9c0-0.1,0-0.2,0-0.2c0,0,0,0,0,0c0,0,0,0,0,0
						c0,0,0,0.1,0,0.2c0.1,0.7,0.4,2.6-0.5,3.9C249.7,14.4,248.3,15.1,246.5,15.1z"/>
					<g>
						<path class="st15" d="M231.5,32.4c-0.4,0.5-0.6,0.7-0.6,0.8c0.1-0.1,0.8-2.4-1.1-0.6c-0.4,0.4-0.3,0.6-0.4,1.1
							c-0.4-0.8,0.4-2.1,0.7-2.8c0.7-0.3,3.5-1.4,4.7-2.2c0,0.4-0.1,3.1-1.5,4.6C233.3,32.8,232.9,30.8,231.5,32.4z"/>
					</g>
					
						<linearGradient id="SVGID_3_" gradientUnits="userSpaceOnUse" x1="5538.1797" y1="345.005" x2="5544.6646" y2="341.8839" gradientTransform="matrix(-0.9945 0.1051 -0.1051 -0.9945 5773.4346 -211.7863)">
						<stop  offset="0" style="stop-color:#E7A612"/>
						<stop  offset="3.838547e-03" style="stop-color:#E7A512"/>
						<stop  offset="0.1515" style="stop-color:#C97B12"/>
						<stop  offset="0.304" style="stop-color:#B45F12"/>
						<stop  offset="0.4637" style="stop-color:#A54C11"/>
						<stop  offset="0.634" style="stop-color:#9C4210"/>
						<stop  offset="0.8326" style="stop-color:#9A3F10"/>
					</linearGradient>
					<path class="st16" d="M222.8,31.2c1,0.4,2.6,0.4,3.9,0.6c1.3,0.1,2.3-0.4,2.9-0.7c1.9-1.9-1.3-5.4-2.1-6c0,0-1,0.3-1.8,0.5
						c-1.7,0.6-2.3,2.5-3.1,4.7C222.2,30.3,221.8,30.7,222.8,31.2z"/>
					<path class="st17" d="M231.6,22.3c0,0.3-1,1.5-1.3,1.7c-0.3,0.2-1.7,1.2-2.8,1.4c-1.1,0.2-3.4,0.9-3.9,2.8
						c-0.1,0.5-0.7,2.2-0.7,2.3c0,0.2,0.1,0.2,0.2,0.3c-0.2-0.1-0.4-0.2-0.5-0.4c0.1-0.3,0.7-2.2,1-2.7c0.3-0.5,1-1.5,1.8-1.9
						c0.9-0.3,3.4-1,4.5-1.8C230.5,23.3,231.6,22.3,231.6,22.3z"/>
					<path d="M240.4,22.6c-0.2-0.1-0.4-0.1-0.5-0.2c-0.2,0-0.4-0.1-0.6-0.1c-0.4,0-0.8-0.1-1.2,0c-0.4,0-0.8,0.1-1.1,0.2
						c-0.4,0.1-0.7,0.3-1,0.5c0,0,0,0,0,0c0,0,0,0,0,0l0,0c0.3-0.2,0.7-0.4,1-0.5c0.4-0.1,0.8-0.2,1.1-0.2s0.8,0,1.2,0
						c0.2,0,0.4,0.1,0.6,0.1C240.1,22.5,240.2,22.5,240.4,22.6C240.4,22.6,240.4,22.6,240.4,22.6C240.4,22.6,240.4,22.6,240.4,22.6
						L240.4,22.6z"/>
					<path d="M240,22.5c0-1-0.2-2-0.4-3c-0.1-0.5-0.3-1-0.6-1.4c-0.1-0.2-0.3-0.4-0.5-0.5c-0.2-0.1-0.5-0.2-0.7-0.2l0,0h0
						c-0.4,0.2-0.8,0.6-1,1c-0.2,0.4-0.3,0.9-0.4,1.4c0,0.5,0,1,0,1.5c0,0.5,0.2,1,0.3,1.4c0,0,0,0,0,0c0,0,0,0,0,0
						c-0.1-0.5-0.2-1-0.3-1.4c-0.1-0.5-0.1-1,0-1.5c0-0.5,0.2-1,0.4-1.4c0.2-0.4,0.6-0.8,1-1l0,0h0l0,0c0.3,0,0.5,0.1,0.7,0.2
						c0.2,0.1,0.4,0.3,0.5,0.5c0.3,0.4,0.5,0.9,0.6,1.4C239.9,20.4,240,21.4,240,22.5C240,22.5,240,22.5,240,22.5
						C240,22.5,240,22.5,240,22.5z"/>
					<path class="st18" d="M240,22.5c0-0.5-0.1-5.1-2.3-5.1c-1.3,0.6-2.1,1.9-1.1,5.3C237.7,22,240,22.5,240,22.5z"/>
					<g>
						<path class="st19" d="M238.5,17.5c-0.7,0.3-1.5,2.3-0.4,4.8c0,0,1.7,0.1,1.9,0.1C239.9,22,239.8,18.4,238.5,17.5z"/>
						<path d="M240,22.4L240,22.4c-0.2-0.1-1.9-0.1-1.9-0.1h0v0c-1-2.4-0.3-4.4,0.4-4.8l0,0l0,0c1.2,0.8,1.4,3.7,1.5,4.7
							C240,22.3,240,22.4,240,22.4L240,22.4z M238.1,22.3c0.2,0,1.6,0.1,1.9,0.1c0,0,0-0.1,0-0.2c-0.1-0.9-0.3-3.8-1.4-4.6
							C237.8,17.9,237.1,19.9,238.1,22.3z"/>
					</g>
					<path class="st18" d="M239.2,19.3c-0.1-0.5-0.3-1-0.5-0.9c-0.2,0-0.3,0.5-0.3,1c0.1,0.5,0.3,1,0.5,0.9
						C239.1,20.3,239.3,19.9,239.2,19.3z"/>
					
						<radialGradient id="SVGID_4_" cx="6849.0132" cy="351.942" r="1.6308" gradientTransform="matrix(-0.7555 7.990000e-02 -0.1051 -0.9945 5449.7837 -177.1582)" gradientUnits="userSpaceOnUse">
						<stop  offset="0" style="stop-color:#FFFFFF;stop-opacity:0.6"/>
						<stop  offset="0.5055" style="stop-color:#FEFEFB;stop-opacity:0.2967"/>
						<stop  offset="0.8605" style="stop-color:#FCFAF0;stop-opacity:8.370000e-02"/>
						<stop  offset="1" style="stop-color:#FAF7E9;stop-opacity:0"/>
					</radialGradient>
					<path class="st20" d="M237.1,20.2c0.1,0.9,0.7,1.6,1.4,1.5c0.7-0.1,1.2-0.9,1.1-1.8c-0.1-0.9-0.7-1.6-1.4-1.5
						C237.5,18.5,237,19.3,237.1,20.2z"/>
					<path d="M238.4,21.1c0.9,1.5,1.3-1.4,1.3-1.4s-0.5-1.6-0.8-1.8C238.2,18.1,237.6,19.6,238.4,21.1z M238.4,19.4
						c-0.1-0.5,0.1-1,0.3-1c0.2,0,0.4,0.4,0.5,1c0.1,0.5-0.1,1-0.3,1C238.7,20.4,238.5,20,238.4,19.4z"/>
					<path class="st21" d="M236.2,17.7"/>
					<path d="M237.7,17.4c-0.3,0-0.5,0-0.8,0c-0.3,0-0.5,0.1-0.7,0.3c0,0,0,0,0,0s0,0,0,0c0.2-0.2,0.5-0.3,0.7-0.3
						S237.4,17.3,237.7,17.4C237.7,17.3,237.7,17.3,237.7,17.4C237.7,17.3,237.7,17.4,237.7,17.4C237.7,17.4,237.7,17.4,237.7,17.4
						L237.7,17.4z"/>
					<path d="M238.4,17.1c-0.2-0.1-0.3-0.2-0.5-0.3c-0.2-0.1-0.3-0.2-0.5-0.2c-0.2,0-0.4,0-0.5,0c-0.2,0-0.3,0.1-0.5,0.2l0,0
						c0,0,0,0,0,0c0,0,0,0,0,0c0.2-0.1,0.3-0.2,0.5-0.2c0.2,0,0.4,0,0.6,0c0.2,0,0.4,0.1,0.5,0.2S238.2,17,238.4,17.1L238.4,17.1
						C238.4,17.1,238.4,17.1,238.4,17.1C238.4,17.1,238.4,17.1,238.4,17.1z"/>
					<path class="st22" d="M240.8,15.8c-0.5-0.5-1-1.1-1.8-1.4c-0.4-0.2-0.8-0.3-1.2-0.3c-0.4,0-0.8,0-1.3,0.2
						c-0.3,0.1-0.5,0.4-0.4,0.7c0.1,0.3,0.4,0.5,0.7,0.4c0,0,0.1,0,0.1,0c0.5-0.3,1.2-0.4,1.8-0.3c0.7,0.1,1.3,0.5,1.9,0.9
						C240.7,15.9,240.8,15.9,240.8,15.8C240.8,15.8,240.8,15.8,240.8,15.8L240.8,15.8z"/>
					<path d="M230,23.8L230,23.8c-0.3-0.2-0.5-0.4-0.8-1.4c-0.6-2.8,0.3-3.7,0.6-3.9h0h0c0.4,0,0.8,0.3,1.2,0.8
						c0.4,0.4,0.5,2,0.5,2.7c0,0.1,0,0.2,0,0.3v0v0C231.4,22.6,230.1,23.7,230,23.8L230,23.8z M229.8,18.5c-0.3,0.2-1.2,1.1-0.6,3.9
						c0.3,1,0.5,1.2,0.8,1.4c0.2-0.1,1.4-1.2,1.6-1.5c0-0.1,0-0.2,0-0.3c0-0.7-0.1-2.3-0.5-2.7C230.6,18.8,230.2,18.5,229.8,18.5z"
						/>
					<path class="st18" d="M229.8,18.4c-0.5,0.3-1.2,1.4-0.6,3.9c0.3,1,0.5,1.2,0.8,1.4c0.1-0.1,1.4-1.2,1.6-1.6
						c0-0.3-0.1-2.5-0.5-3C230.6,18.7,230.2,18.5,229.8,18.4z"/>
					<path d="M229.8,18.5c-0.2,0-0.4,0-0.6,0.2s-0.3,0.3-0.4,0.5c0,0,0,0,0,0s0,0,0,0c0.1-0.2,0.3-0.3,0.4-0.5
						C229.4,18.5,229.6,18.4,229.8,18.5C229.8,18.4,229.9,18.4,229.8,18.5C229.8,18.5,229.8,18.5,229.8,18.5L229.8,18.5L229.8,18.5z
						"/>
					<path d="M230.8,18.3c-0.1-0.1-0.3-0.2-0.4-0.3s-0.3-0.2-0.4-0.2c-0.2,0-0.3,0-0.4,0.1c-0.1,0.1-0.2,0.3-0.2,0.4l0,0
						c0,0,0,0,0,0c0,0,0,0,0,0c0.1-0.2,0.1-0.3,0.2-0.4c0.1-0.1,0.3-0.1,0.5-0.1s0.3,0.1,0.5,0.2C230.6,18.1,230.7,18.2,230.8,18.3
						C230.8,18.3,230.8,18.3,230.8,18.3C230.8,18.4,230.8,18.4,230.8,18.3L230.8,18.3z"/>
					<g>
						<path class="st19" d="M230.7,18.9c-1.5,1.1-1.1,3.3-0.4,4.6c0,0,0.9-0.8,1.3-1.3c0-0.3-0.2-2.8-0.5-3
							C230.9,19.1,230.7,18.9,230.7,18.9z"/>
						<path d="M230.3,23.6L230.3,23.6c-0.4-0.8-0.6-1.7-0.6-2.4c0-1,0.4-1.8,1-2.3l0,0l0,0c0,0,0.2,0.2,0.3,0.3
							c0.3,0.2,0.5,2.1,0.5,2.8c0,0.1,0,0.2,0,0.2v0v0C231.2,22.7,230.3,23.5,230.3,23.6L230.3,23.6z M230.7,18.9
							c-0.7,0.5-1,1.2-1,2.2c0,0.8,0.2,1.6,0.6,2.4c0.1-0.1,0.9-0.9,1.3-1.3c0,0,0-0.1,0-0.2c-0.1-0.6-0.2-2.6-0.5-2.8l0,0
							C230.9,19.1,230.7,19,230.7,18.9z"/>
					</g>
					
						<radialGradient id="SVGID_5_" cx="8495.8848" cy="351.2253" r="1.6309" gradientTransform="matrix(-0.5819 6.150000e-02 -0.1051 -0.9945 5211.165 -152.2987)" gradientUnits="userSpaceOnUse">
						<stop  offset="0" style="stop-color:#FFFFFF;stop-opacity:0.6"/>
						<stop  offset="0.5055" style="stop-color:#FEFEFB;stop-opacity:0.2967"/>
						<stop  offset="0.8605" style="stop-color:#FCFAF0;stop-opacity:8.370000e-02"/>
						<stop  offset="1" style="stop-color:#FAF7E9;stop-opacity:0"/>
					</radialGradient>
					<path class="st23" d="M229.5,21c0.1,0.9,0.6,1.6,1.1,1.5c0.5-0.1,0.9-0.8,0.8-1.7c-0.1-0.9-0.6-1.6-1.1-1.5
						C229.8,19.3,229.5,20.1,229.5,21z"/>
					<path d="M230.4,21.9c0.5,0.6,0.9,0.3,1.1,0.1c0-0.3-0.3-2.8-0.5-2.8C230.7,19.3,229.6,20.4,230.4,21.9z M231,21.6
						c0-0.1,0.1-0.2,0.1-0.2c0.1,0,0.2,0.1,0.2,0.1c0,0.1-0.1,0.2-0.1,0.2C231.1,21.7,231,21.6,231,21.6z M230.7,20.2
						c0-0.3,0-0.6,0.1-0.7c0.1,0,0.2,0.3,0.3,0.6c0,0.3,0,0.6-0.1,0.7C230.8,20.9,230.7,20.6,230.7,20.2z"/>
					<path class="st22" d="M231.1,14.8c0,0-0.2,0-0.3,0c-0.2,0-0.3,0-0.5,0.1c-0.3,0.1-0.6,0.3-0.8,0.5c-0.2,0.2-0.4,0.4-0.5,0.7
						c-0.1,0.2-0.2,0.5-0.3,0.8c0,0,0,0,0,0c0,0,0,0,0,0c0.1-0.2,0.3-0.5,0.5-0.6c0.2-0.2,0.4-0.4,0.6-0.5c0.2-0.1,0.4-0.2,0.6-0.2
						c0.1,0,0.2,0,0.3,0l0.2,0c0.1,0,0.1,0,0.3,0c0.2,0,0.4-0.2,0.4-0.4C231.5,15,231.3,14.8,231.1,14.8z"/>
					<g>
						<path class="st24" d="M232.5,13.6c0.3-0.2,0.3-0.3,0.2-0.6c0-0.3-0.2-0.6-0.4-0.8c0,0-0.1-0.1-0.1-0.1
							c-0.2,0.2-0.4,0.4-0.6,0.6c-0.3,0.3-0.6,0.7-0.9,1.1c0,0-0.1,0.1-0.1,0.1c0.1,0.1,0.2,0.2,0.4,0.2c0.1,0,0.1-0.1,0.2,0
							C231.7,13.9,232.1,13.8,232.5,13.6z"/>
						<path class="st24" d="M245.8,25.5c0.1,0,0.1,0,0.2,0c0.2,0,0.3-0.1,0.3-0.2c0.1-0.2,0.1-0.3,0.1-0.5c0-0.2,0-0.3,0-0.5
							c0-0.3,0-0.6,0.1-0.9c0-0.1,0-0.3,0-0.4c0,0,0-0.1,0-0.1c0-0.1,0-0.2,0-0.3c0-0.2,0-0.3,0-0.5c0-0.1-0.1-0.2-0.2-0.3
							c-0.1-0.1-0.3-0.2-0.4-0.3c-0.1-0.1-0.3-0.1-0.4-0.1c0,0-0.1,0-0.1,0c0,0,0,0,0,0c0,0,0,0-0.1,0c-0.2,0.1-0.4,0.2-0.6,0.3
							c-0.3,0.2-0.6,0.4-0.8,0.7c-0.1,0.1-0.1,0.2-0.1,0.3c0,0.1,0,0.1,0,0.2c0,0,0,0,0,0.1c0,0.1,0,0.2,0,0.3c0,0,0,0.1,0,0.1
							c0,0.1,0,0.2,0.1,0.3c0,0,0,0,0,0c0,0,0,0.1,0.1,0.1c0,0,0,0,0,0c0,0,0,0.1,0,0.1c0,0,0,0,0,0c0,0,0,0,0,0.1c0,0,0,0,0,0
							s0,0,0,0.1s0,0,0,0c0,0,0,0,0,0.1c0,0,0,0,0,0c0,0,0,0,0,0l0,0c0,0,0,0,0,0c0,0,0,0,0,0c0,0,0,0,0,0.1c0,0,0,0,0,0
							c0,0,0,0,0,0.1c0.1,0.1,0.2,0.2,0.3,0.3c0.3,0.3,0.6,0.5,1,0.7C245.6,25.5,245.7,25.6,245.8,25.5z"/>
						<path class="st24" d="M244.7,16.7c-0.2-0.2-0.4-0.2-0.6-0.2c-0.3,0-0.6,0.1-0.9,0.2c-0.2,0.1-0.3,0.1-0.5,0.2
							c-0.1,0.1-0.2,0.1-0.3,0.1c-0.1,0.1-0.2,0.2-0.2,0.3c0,0.1,0,0.3,0.1,0.4c0,0.2,0.1,0.3,0.1,0.5c0,0.1,0,0.2,0.1,0.2
							c0,0,0,0,0,0c0,0,0,0.1,0,0.1c0,0,0,0,0,0c0,0,0,0.1,0,0.1c0,0,0,0,0,0c0,0,0,0,0,0.1c0,0,0,0,0,0c0,0,0,0,0,0.1c0,0,0,0,0,0
							c0,0,0,0,0,0.1c0.1,0.2,0.2,0.3,0.4,0.5c0,0,0,0,0,0c0,0,0,0,0,0c0,0,0,0,0,0c0,0,0,0,0,0c0,0,0,0,0,0c0,0,0,0,0,0
							c0.3,0.2,0.7,0.4,1.1,0.5c0.4,0,0.5-0.1,0.7-0.5c0.1-0.4,0.1-0.7,0.1-1.1c0-0.3,0-0.5-0.1-0.8c0-0.1,0-0.1,0-0.2
							c0-0.3-0.1-0.5-0.2-0.7C244.8,16.8,244.8,16.8,244.7,16.7z"/>
						<path class="st24" d="M241.3,29.7c-0.1,0.1-0.2,0.2-0.2,0.2c-0.1,0.2-0.2,0.3-0.3,0.5c-0.1,0.1-0.1,0.2-0.1,0.3
							c0,0,0,0.1,0,0.1c0,0,0,0.1,0.1,0.1s0.1,0,0.2,0c0.2-0.1,0.4-0.2,0.5-0.4c0,0,0.1-0.1,0.1-0.1c0,0,0.1-0.1,0.1-0.1
							c0.1-0.1,0.1-0.3,0.1-0.4c0,0,0-0.1,0-0.1c-0.1-0.1-0.2-0.1-0.3-0.1C241.4,29.6,241.3,29.6,241.3,29.7
							C241.3,29.7,241.3,29.7,241.3,29.7z"/>
						<path class="st24" d="M245.9,26.4c-0.1,0-0.2,0-0.2,0.1c-0.1,0.2-0.1,0.3-0.2,0.5c0,0.1-0.1,0.2,0,0.2c0.1,0,0.1,0,0.2-0.1
							c0.2-0.1,0.3-0.3,0.4-0.4c0.1-0.1,0.1-0.2,0-0.2C246.1,26.5,246,26.4,245.9,26.4z"/>
						<path class="st24" d="M242.4,25.5C242.4,25.5,242.4,25.6,242.4,25.5c-0.1,0.1-0.2,0.2-0.2,0.3c-0.1,0.2-0.1,0.4-0.2,0.6
							c0,0,0,0,0,0c0,0,0,0.1,0,0.1c0,0,0,0,0,0c0,0,0,0.1,0,0.1l0,0c0,0,0,0.1,0,0.1c0,0,0,0,0,0c0,0,0,0.1,0,0.1l0,0
							c0,0,0,0.1,0,0.1l0,0c0,0.2-0.1,0.4-0.1,0.7c0,0.2,0,0.3,0,0.5c0,0.3,0.2,0.6,0.4,0.8c0,0,0,0,0.1,0c0,0,0,0,0,0
							c0,0,0.1,0,0.1,0c0.1,0,0.3-0.1,0.4-0.1c0.2-0.1,0.3-0.2,0.5-0.3c0.3-0.2,0.6-0.4,0.8-0.6c0,0,0,0,0.1,0c0,0,0-0.1,0.1-0.1
							c0.3-0.3,0.5-0.6,0.7-1c0.1-0.3,0.2-0.5,0.1-0.8c0-0.2-0.1-0.3-0.2-0.4c-0.1-0.1-0.2-0.1-0.3-0.2c-0.1-0.1-0.2-0.1-0.3-0.2
							c0,0,0,0-0.1,0c0,0,0,0,0,0c0,0,0,0-0.1,0c0,0,0,0,0,0c0,0-0.1,0-0.1,0c0,0,0,0,0,0c0,0,0,0-0.1,0c0,0,0,0-0.1,0
							c-0.2,0-0.4-0.1-0.6,0c0,0,0,0,0,0C242.8,25.3,242.6,25.4,242.4,25.5z"/>
						<path class="st24" d="M240.2,12.5c0.2-0.1,0.3-0.2,0.5-0.2c0.1-0.1,0.2-0.1,0.3-0.2c0.1-0.1,0.1-0.1,0.2-0.2
							c0,0,0.1-0.1,0.1-0.1c0.1-0.1,0.1-0.3,0-0.4c-0.1-0.1-0.2-0.2-0.3-0.2c-0.1,0-0.3-0.1-0.4-0.1c-0.2,0-0.3,0-0.5-0.1
							c-0.2,0-0.3,0-0.4-0.1c-0.1,0-0.1,0-0.2,0c-0.1,0-0.2,0-0.3,0.1c-0.2,0.1-0.4,0.3-0.6,0.5c0,0-0.1,0.1-0.1,0.1c0,0,0,0,0,0
							l0,0c0,0,0,0,0,0l0,0c0,0,0,0,0,0l0,0c-0.1,0.1-0.2,0.2-0.2,0.3c-0.1,0.2-0.2,0.4-0.3,0.7c0,0.1,0,0.2,0,0.4
							c0,0,0.1,0.1,0.1,0.1c0.1,0,0.2,0,0.3,0c0.1,0,0.3-0.1,0.4-0.1c0,0,0.1,0,0.2,0c0.4-0.1,0.8-0.3,1.2-0.5
							C240.1,12.6,240.1,12.6,240.2,12.5z"/>
						<path class="st24" d="M233.9,14.7c0,0-0.1-0.1-0.1-0.1c-0.1-0.1-0.3-0.2-0.5-0.3c-0.1,0-0.2-0.1-0.3-0.1c-0.2,0-0.3,0-0.4,0.1
							c0,0.2-0.1,0.4-0.1,0.6c0,0.1,0,0.2-0.1,0.3c0,0.1,0,0.3,0,0.4c0.1,0,0.2,0,0.3,0c0.1,0,0.3,0,0.4,0c0,0,0.1,0,0.1,0
							c0.2,0,0.5-0.2,0.6-0.3c0,0,0,0,0-0.1C234.1,15,234.1,14.9,233.9,14.7C233.9,14.7,233.9,14.7,233.9,14.7z"/>
						<path class="st24" d="M236.9,11c-0.1,0-0.3,0-0.4,0c-0.3,0-0.6,0.1-0.8,0.2c-0.2,0-0.4,0.2-0.7,0.2c0,0-0.1,0-0.1,0
							c0,0-0.1,0-0.1,0c0,0,0,0,0,0c-0.2,0-0.4,0.2-0.6,0.2c-0.2,0.1-0.4,0.2-0.6,0.3c0,0.1-0.1,0.2,0,0.3c0,0.1,0,0.2,0,0.3
							c0,0.2,0.1,0.4,0.2,0.6c0,0.1,0.1,0.2,0.2,0.3l0,0c0,0,0,0,0,0c0.1,0.2,0.3,0.3,0.5,0.4c0,0,0.1,0,0.1,0.1c0,0,0.1,0,0.1,0
							c0.1,0,0.3,0.1,0.4,0c0.1,0,0.1,0,0.2,0c0.1,0.1,0.2,0,0.3-0.1c0.1-0.1,0.2-0.1,0.3-0.2c0,0,0,0,0,0c0,0,0,0,0,0
							c0.3-0.3,0.6-0.7,0.9-1.1c0.1-0.1,0.2-0.3,0.4-0.4c0.1-0.1,0.2-0.3,0.3-0.4c0.1-0.1,0.1-0.2,0.1-0.3c0-0.1,0-0.2-0.1-0.2
							c-0.1-0.1-0.2-0.1-0.3-0.1C237.1,11,237,11,236.9,11z"/>
					</g>
					<path class="st15" d="M233.3,33.1c-0.1,0.1-0.3,0.2-0.4,0.4c-0.2,0.1-0.3,0.2-0.5,0.3c-0.3,0.2-0.7,0.3-1,0.4
						c-0.4,0.1-0.7,0.2-1.1,0.1c-0.2,0-0.4-0.1-0.5-0.3s-0.2-0.3-0.3-0.5c0,0,0,0,0,0c0,0,0,0,0,0l0,0c0.1,0.2,0.1,0.3,0.3,0.5
						c0.1,0.1,0.3,0.2,0.5,0.3c0.4,0.1,0.8,0,1.1-0.1c0.4-0.1,0.7-0.3,1-0.4c0.2-0.1,0.3-0.2,0.5-0.3S233.1,33.2,233.3,33.1
						L233.3,33.1C233.3,33.1,233.3,33.1,233.3,33.1C233.3,33.1,233.3,33.1,233.3,33.1L233.3,33.1z"/>
					<path class="st25" d="M228.8,24.4C228.8,24.4,228.8,24.4,228.8,24.4C228.8,24.4,228.8,24.4,228.8,24.4
						c-0.1-0.4-0.2-0.8-0.3-1.3c-0.4-1.9-1.1-4.9,0.6-7.7c1.9-3.1,3.7-3.8,5-4.4c0.2-0.1,0.4-0.1,0.5-0.2c1-0.4,1.7-0.5,2.6-0.5
						c0,0,0,0,0,0c0,0,0,0,0,0c0,0,0,0,0,0l0,0c0,0,0,0,0,0c-0.9,0-1.6,0.2-2.6,0.5c-0.2,0.1-0.3,0.1-0.5,0.2
						c-1.3,0.5-3.1,1.2-4.9,4.3c-1.7,2.8-1,5.7-0.6,7.7C228.7,23.6,228.8,24,228.8,24.4C228.8,24.4,228.8,24.4,228.8,24.4
						C228.9,24.4,228.9,24.4,228.8,24.4L228.8,24.4z"/>
					<path class="st25" d="M243,12C243,12,243,12,243,12c-0.6-0.7-1.2-1.1-1.9-1.2c0,0,0,0,0,0c0,0,0,0,0,0
						C241.8,10.9,242.4,11.3,243,12C243,12,243,12,243,12C243,12,243,12,243,12z"/>
					<path class="st25" d="M243.4,29.7C243.4,29.7,243.4,29.7,243.4,29.7C243.4,29.7,243.4,29.7,243.4,29.7L243.4,29.7
						c0.9-0.5,1.5-0.9,1.9-1.3c0.7-0.7,2.3-3,2.2-4.4c0-1.4-0.6-2.7-1.4-3.1h0v0c-0.1-0.6-0.6-3.7-1-4.6c0,0-0.1-0.1-0.1-0.2
						c0,0,0,0,0,0c0,0,0,0,0,0c0,0.1,0.1,0.1,0.1,0.2c0.5,0.9,1,4,1,4.6c0.8,0.5,1.3,1.8,1.4,3.2c0,1.4-1.5,3.7-2.2,4.4
						C245,28.9,244.4,29.2,243.4,29.7L243.4,29.7C243.4,29.7,243.4,29.7,243.4,29.7z"/>
					<path class="st25" d="M230.4,35.6c-0.6,0-1.1-0.2-1.4-0.6c-0.8-1.2-0.5-2-0.1-2.8c0.1-0.3,0.2-0.5,0.3-0.8c0,0,0,0,0,0
						c0,0,0,0,0,0c-0.1,0.3-0.2,0.5-0.3,0.8c-0.4,0.8-0.7,1.6,0.1,2.8C229.2,35.3,229.7,35.6,230.4,35.6c0,0,0.1,0,0.2,0
						c1.6-0.1,3.8-1.4,5-3.4v0h0c0.2,0,0.4,0,0.7,0c1.2,0,3.4-0.1,5.1-1.2c0,0,0,0,0,0c0,0,0,0,0,0c-1.8,1.1-4,1.2-5.1,1.2
						c-0.3,0-0.5,0-0.7,0c-0.5,0.9-1.4,1.8-2.3,2.4c-0.9,0.6-1.9,0.9-2.7,1C230.5,35.6,230.4,35.6,230.4,35.6z"/>
					<path class="st25" d="M226.4,31.8c-1,0-1.7-0.1-2.4-0.3c-0.1,0-0.2,0-0.3,0c-1.1-0.2-1.6-0.7-1.6-0.9c0-0.2,0.2-0.2,0.4-0.3
						c0.1-0.3,0.2-0.6,0.3-1c0.5-1.4,1-2.9,2.8-3.7c1.2-0.3,2.3-0.6,3.2-1.1c0.2-0.1,0.7-0.3,1.2-0.6l0,0c-0.4,0.4-0.9,0.5-1.2,0.6
						c-0.9,0.5-2,0.9-3.2,1.1c-1.8,0.8-2.3,2.3-2.8,3.7c-0.1,0.3-0.2,0.7-0.3,1v0h0c-0.2,0-0.4,0.1-0.4,0.2c0,0.2,0.4,0.7,1.5,0.9
						c0.1,0,0.2,0,0.3,0c1.1,0.2,2.6,0.5,4.6,0c0.4-0.2,1-0.5,1.7-0.7c1.3-0.5,3-1.2,4.4-2.1l0,0c-1.4,1-3.1,1.6-4.4,2.1
						c-0.7,0.3-1.3,0.5-1.7,0.7h0C227.8,31.7,227.1,31.8,226.4,31.8z"/>
					<path class="st26" d="M237.1,32.1"/>
					<path class="st26" d="M244.3,29.3"/>
					<path class="st25" d="M241.9,12.4C241.8,12.4,241.8,12.4,241.9,12.4C241.8,12.4,241.8,12.4,241.9,12.4c1.5-0.3,4.2-1.4,5.2-2.3
						c1-1,2.9-2.1,3.8-2c0,0,0,0,0,0c0,0,0,0,0,0c-0.8-0.1-2.8,1-3.8,2C246.1,11,243.4,12.1,241.9,12.4
						C241.9,12.4,241.9,12.4,241.9,12.4z"/>
					<path class="st25" d="M246.7,16.2c-1.8,0-3.3-0.6-3.6-0.9c0,0,0,0,0,0c0,0,0,0,0,0c0.5,0.4,3.2,1.4,5.9,0.5
						c3.1-1,3.6-4.8,3.6-6.3c0-1.1-0.1-1.7-0.4-2c-0.2-0.2-0.5,0-0.8,0.1c-0.5,0.2-1.6,1.4-1.9,1.7c0,0,0,0,0,0c0,0,0,0,0,0
						c0.2-0.3,1.3-1.5,1.9-1.7c0.3-0.1,0.6-0.2,0.8,0c0.3,0.2,0.4,0.9,0.4,2c0,1-0.2,2.5-0.9,3.8c-0.6,1.3-1.6,2.2-2.8,2.6
						C248.2,16.1,247.4,16.2,246.7,16.2z"/>
					<path class="st25" d="M227.5,15.4c-0.6,0-1.1-0.3-1.7-1c-0.9-1.2-0.8-2.8-0.7-3.9c0-0.1,0-0.3,0-0.4v0c0.1-0.3,0.3-0.5,0.5-0.5
						c0,0,0,0,0,0c0.3,0,0.5,0.2,0.6,0.4c0,0,0.1,0.1,0.1,0.2c-0.1,0.1-0.1,0.2-0.2,0.2c0.2,0.3,1.6,1.3,2.3,1.7
						c0.8,0.3,2.6,0.5,3.3,0.3c0,0,0,0,0,0c0,0,0,0,0,0c-0.7,0.2-2.6,0.1-3.3-0.3c-0.8-0.3-2.2-1.5-2.4-1.7l0,0l0,0
						c0.1-0.1,0.2-0.1,0.2-0.2c0,0,0-0.1-0.1-0.2c-0.1-0.1-0.3-0.4-0.6-0.4c-0.2,0-0.3,0.2-0.5,0.5c0,0.1,0,0.3,0,0.4
						c-0.1,1.1-0.3,2.6,0.6,3.9c1,1.3,1.9,1.1,3.6,0.5l0.1,0c0,0,0,0,0,0c0,0,0,0,0,0l-0.1,0C228.6,15.2,228,15.4,227.5,15.4z"/>
					<path class="st25" d="M228,14.8c-1.7,0-2-1.1-2-1.6c0,0,0,0,0,0l0,0c0,0,0,0,0,0c0.1,0.5,0.4,1.7,2.3,1.5c0,0,0,0,0,0
						c0,0,0,0,0,0C228.2,14.8,228.1,14.8,228,14.8z"/>
					<path class="st25" d="M241.9,11.1C241.9,11.1,241.9,11.1,241.9,11.1c-0.1-0.6-0.3-2.7-0.3-3.1c0,0,0,0,0,0c0,0,0,0,0,0
						C241.7,8.4,241.9,10.5,241.9,11.1C241.9,11.1,241.9,11.1,241.9,11.1L241.9,11.1z"/>
					<path class="st25" d="M236.9,10.4C236.9,10.4,236.9,10.3,236.9,10.4C236.9,10.3,236.9,10.3,236.9,10.4c0.6-0.1,2.3-0.3,2.8-0.2
						c0-0.1,0-0.2,0-0.4c0-0.2,0.1-0.7,0-1.7c0,0,0,0,0,0c0,0,0,0,0,0c0,1.1,0,1.5,0,1.7c0,0.2,0,0.2,0,0.4v0h0
						C239.3,10.1,237.5,10.2,236.9,10.4C236.9,10.3,236.9,10.4,236.9,10.4z"/>
					<path class="st25" d="M241.8,8.6C241.8,8.6,241.8,8.6,241.8,8.6C241.8,8.5,241.8,8.5,241.8,8.6c0.4-0.1,0.8-0.4,1.1-0.9
						c0.3-0.5,0.5-1,0.4-1.4c-0.2-1.1-1-2.3-2.5-2.3c-1.5,0.3-2.3,1.1-2.2,2.5c0.3,1.1,0.7,1.4,1,1.6c0,0,0.1,0.1,0.1,0.1
						c0,0,0,0,0,0c0,0,0,0,0,0c0,0-0.1-0.1-0.1-0.1c-0.3-0.2-0.7-0.4-1-1.6c-0.1-1.4,0.7-2.3,2.2-2.5c0.7,0,1.3,0.3,1.7,0.8
						c0.4,0.4,0.7,1,0.8,1.6c0.1,0.5-0.1,1-0.4,1.5C242.6,8.2,242.2,8.5,241.8,8.6C241.8,8.6,241.8,8.6,241.8,8.6z"/>
					
						<linearGradient id="SVGID_6_" gradientUnits="userSpaceOnUse" x1="5525.0288" y1="362.2174" x2="5524.0039" y2="366.801" gradientTransform="matrix(-0.9945 0.1051 -0.1051 -0.9945 5773.4346 -211.7863)">
						<stop  offset="0" style="stop-color:#F6B80D"/>
						<stop  offset="0.1096" style="stop-color:#DD930F"/>
						<stop  offset="0.2693" style="stop-color:#C06C10"/>
						<stop  offset="0.435" style="stop-color:#AB5010"/>
						<stop  offset="0.6071" style="stop-color:#9C3F10"/>
						<stop  offset="0.7896" style="stop-color:#943610"/>
						<stop  offset="1" style="stop-color:#923310"/>
					</linearGradient>
					<path class="st27" d="M239.8,8c-0.4-0.3-0.8-0.3-1.2-1.6c-0.1-1.3,0.7-2.2,2.2-2.5c1.4,0,2.3,1.3,2.5,2.3
						c0.2,1-0.8,2.2-1.5,2.3C241.8,8.6,240.7,8.7,239.8,8z"/>
					<path class="st25" d="M234.1,11.1C234.1,11.1,234.1,11.1,234.1,11.1c0-0.3-0.1-0.5-0.2-0.8c-0.1-0.3-0.2-0.7-0.3-1.4
						c0,0,0,0,0,0c0,0,0,0,0,0c0.1,0.7,0.2,1.1,0.3,1.4C234,10.7,234.1,10.9,234.1,11.1C234.1,11.1,234.1,11.1,234.1,11.1
						L234.1,11.1z"/>
					<path class="st25" d="M231.6,12.5L231.6,12.5C231.5,12.5,231.5,12.4,231.6,12.5c0.1-0.1,0.2-0.3,0.4-0.4
						c0.1-0.1,0.2-0.2,0.3-0.2c0,0,0-0.1,0-0.2c0-0.6-0.1-1.2-0.4-2.3c0,0,0,0,0,0c0,0,0,0,0,0c0.3,1.1,0.4,1.7,0.4,2.3
						c0,0,0,0.1,0,0.2v0l0,0c-0.1,0.1-0.2,0.2-0.3,0.2C231.8,12.2,231.6,12.4,231.6,12.5C231.6,12.5,231.6,12.5,231.6,12.5z"/>
					
						<linearGradient id="SVGID_7_" gradientUnits="userSpaceOnUse" x1="5532.7886" y1="362.2419" x2="5533.1465" y2="366.3642" gradientTransform="matrix(-0.9945 0.1051 -0.1051 -0.9945 5773.4346 -211.7863)">
						<stop  offset="0" style="stop-color:#F6B80D"/>
						<stop  offset="0.1096" style="stop-color:#DD930F"/>
						<stop  offset="0.2693" style="stop-color:#C06C10"/>
						<stop  offset="0.435" style="stop-color:#AB5010"/>
						<stop  offset="0.6071" style="stop-color:#9C3F10"/>
						<stop  offset="0.7896" style="stop-color:#943610"/>
						<stop  offset="1" style="stop-color:#923310"/>
					</linearGradient>
					<path class="st28" d="M233.9,9.1c0.6-0.5,0.9-1.3,0.8-1.9c-0.1-0.6-0.9-1.7-2.1-1.7c-1.3,0.1-1.9,1.2-2,2.1
						c-0.1,0.9,1,1.6,1.3,1.7C232.2,9.5,233.3,9.7,233.9,9.1z"/>
					<path class="st25" d="M237.6,26.9c-0.1,0-0.1-0.1-0.2-0.1c-0.1,0-0.1,0-0.2-0.1c-0.1,0-0.1,0-0.2,0s-0.1,0-0.2,0c0,0,0,0,0,0
						s0,0,0,0c0.1,0,0.1,0,0.2,0c0.1,0,0.1,0,0.2,0c0.1,0,0.1,0,0.2,0.1C237.5,26.8,237.6,26.9,237.6,26.9
						C237.7,26.9,237.7,26.9,237.6,26.9C237.7,26.9,237.6,26.9,237.6,26.9L237.6,26.9z"/>
					<path class="st25" d="M237.5,27.7c-0.1-0.1-0.2-0.1-0.3-0.2c-0.1,0-0.2-0.1-0.3-0.1c-0.1,0-0.2-0.1-0.3-0.1c-0.1,0-0.2,0-0.3,0
						c0,0,0,0-0.1,0c0,0,0,0,0-0.1c0,0,0,0,0,0c0.1-0.1,0.2,0,0.3,0c0.1,0,0.2,0.1,0.3,0.1s0.2,0.1,0.3,0.1S237.4,27.6,237.5,27.7
						C237.5,27.7,237.5,27.7,237.5,27.7C237.5,27.7,237.5,27.7,237.5,27.7L237.5,27.7L237.5,27.7z"/>
					<path class="st25" d="M237,27.4c-0.1,0.2-0.2,0.5-0.4,0.6c-0.2,0.2-0.4,0.3-0.7,0.3c-0.3,0-0.5,0-0.7-0.1
						c-0.1,0-0.2-0.1-0.4-0.1l-0.3-0.2c0,0,0,0,0,0c0,0,0,0,0,0l0,0l0.3,0.1c0.1,0,0.2,0.1,0.3,0.1c0.2,0.1,0.5,0.1,0.7,0.1
						s0.5-0.1,0.7-0.3C236.8,27.8,236.9,27.6,237,27.4C237,27.4,237,27.4,237,27.4C237,27.4,237,27.4,237,27.4z"/>
					<path class="st25" d="M235.5,32.2C235.5,32.2,235.5,32.2,235.5,32.2C235.5,32.2,235.5,32.2,235.5,32.2c0.2-0.3,0.5-0.8,0.8-1.2
						c0.2-0.3,0.4-0.6,0.5-0.7c0,0,0,0,0,0c0,0,0,0,0,0c-0.1,0.2-0.3,0.4-0.5,0.7C236.1,31.4,235.7,31.9,235.5,32.2
						C235.5,32.2,235.5,32.2,235.5,32.2z"/>
					<path d="M226.3,28.5c0.2-0.8,0.8-1.7,1.3-1.8c0.5-0.2,1.6,0.7,0.3,1.4C227.1,28.5,226.3,28.5,226.3,28.5z"/>
					<path class="st18" d="M231.1,20.2c0-0.3-0.2-0.6-0.3-0.6s-0.2,0.3-0.1,0.7c0,0.3,0.2,0.6,0.3,0.6
						C231,20.8,231.1,20.6,231.1,20.2z"/>
					<path class="st18" d="M231.3,21.5c0-0.1-0.1-0.2-0.2-0.1c-0.1,0-0.2,0.1-0.1,0.2s0.1,0.2,0.2,0.1
						C231.3,21.7,231.4,21.6,231.3,21.5z"/>
					<path class="st25" d="M246.2,20.9C246.2,20.9,246.2,20.9,246.2,20.9c-0.3-0.2-0.5-0.2-0.8-0.2c0,0,0,0,0,0c0,0,0,0,0,0l0,0
						C245.7,20.7,245.9,20.7,246.2,20.9C246.2,20.9,246.2,20.9,246.2,20.9C246.2,20.9,246.2,20.9,246.2,20.9z"/>
					<path class="st25" d="M239.7,32.5c-0.6,0-1.3-0.1-2.1-0.4c0,0,0,0,0,0c0,0,0,0,0,0c1.2,0.5,2.2,0.4,2.8,0.4l0,0c0,0,0,0,0,0
						c0,0,0,0,0,0C240.2,32.5,240,32.5,239.7,32.5z"/>
				</g>
			</g>
		</g>
		<path class="st29" d="M237.4,32.1c0.1,1-0.5,37.3-0.5,40.9c-0.1,3.6,0.4,11.8,5.1,12.7c0.1-2.7,1.2-35.9,1.7-42.5
			c0.4-6.5,0.5-9.6,1.2-14.3C241.4,31,237.4,32.1,237.4,32.1z"/>
		<path class="st30" d="M240.9,31.8c0.4-0.3,1.5-1.3,1.9-1.4c0.4,0.1,0.5,0.4,0.5,0.7c0,0.3,0.1,1.7-0.5,2.2c-0.6,0.5-1.3,0.5-2-0.1
			C240.2,32.5,240.9,31.8,240.9,31.8z"/>
		<path class="st30" d="M244.3,32.7c-0.4,0-2.8,1.4-0.4,4.8C244,36.8,244.3,32.7,244.3,32.7z"/>
		<path class="st30" d="M237.5,38.5c0.7,0,5.2,2.8,0,6.6C237.4,43.9,237.5,38.5,237.5,38.5z"/>
		<path class="st30" d="M242.9,56c-1-0.6-7.3,5-0.4,6.9C242.7,61.7,242.9,56,242.9,56z"/>
		<path class="st30" d="M237.2,66.5c2.3-0.4,4.9,4.1-0.2,6.4C236.8,71.7,237.2,66.5,237.2,66.5z"/>
		<path class="st30" d="M242.2,77.5c-3.4-0.7-6.1,4.6-0.3,6.4C242,82.8,242.2,77.5,242.2,77.5z"/>
		<path class="st30" d="M241.9,36.2c-0.3,0.1,0,2.9,0.4,3.3c0.4,0.5,0.7,0.3,1.2-0.5c0.5-0.9,0.2-1.1-0.1-1.9
			C242.7,36.3,242.2,36.1,241.9,36.2z"/>
		<path class="st30" d="M239.7,49.5c0.4-0.2,1.4-0.3,1.8,0.4c0.4,0.8,0.3,1.1-1.1,1.7c-0.4,0-0.9-0.2-1.3-0.7
			C238.8,50.4,239.1,49.7,239.7,49.5z"/>
	</g>
	<g>
		<g>
			<g id="head_3_">
				
					<linearGradient id="SVGID_8_" gradientUnits="userSpaceOnUse" x1="1995.9349" y1="30.1441" x2="2020.3615" y2="36.6891" gradientTransform="matrix(0.9977 6.820000e-02 6.820000e-02 -0.9977 -1733.0265 -73.4259)">
					<stop  offset="0" style="stop-color:#F7DF59"/>
					<stop  offset="2.450000e-02" style="stop-color:#F7DF59"/>
					<stop  offset="0.1732" style="stop-color:#F7DF59"/>
					<stop  offset="0.216" style="stop-color:#F7DD48"/>
					<stop  offset="0.2849" style="stop-color:#F8DA33"/>
					<stop  offset="0.3662" style="stop-color:#F9D824"/>
					<stop  offset="0.4669" style="stop-color:#F9D618"/>
					<stop  offset="0.6081" style="stop-color:#FAD514"/>
					<stop  offset="1" style="stop-color:#FAD513"/>
				</linearGradient>
				<path class="st31" d="M267.2,40c-0.5-0.2-2.4-1.3-2.4-1.3c-0.4-0.2-0.7-0.4-0.9-0.6c-0.6-0.5-2-2.5-2-3.6s0.4-2.3,1.1-2.7
					c0.1-0.7,0.4-3.1,0.7-3.9c0-0.1,0.1-0.1,0.1-0.2l0,0c-0.9,0.2-2.1,0.3-3.3,0c-2.3-0.6-3.1-3.2-3.3-5.2s0.5-1.8,0.9-1.7
					c0.1,0,0.3,0.2,0.5,0.3l0.1,0c0.7-0.1,2.4,0.8,3.3,1.6c0.6,0.6,2.1,1.2,3.3,1.6l0.1,0c0.3-0.3,0.5-0.6,0.9-0.8l0,0
					c0-0.4,0.1-1.5,0.1-2.2l-0.1,0c-0.6-0.1-1.5-1-1.4-1.9c0.1-0.9,0.8-2,2-2.1c1.3,0.2,2,0.9,2,2c-0.3,1.1-0.7,1.2-0.9,1.4
					c0,1.5,0.1,1.5,0.1,1.8c0.4,0,1.9,0,2.4,0.1l0.1,0c0.6,0,1.2,0.1,1.9,0.4c0.1,0.1,0.3,0.1,0.4,0.2l0.1,0c0-0.4,0.1-0.6,0.3-1.6
					l-0.2-0.2c-0.4-0.5-0.7-1-0.7-1.5c0-0.5,0.7-1.5,1.7-1.5c1.1,0,1.7,1,1.7,1.7c0.1,0.7-0.7,1.2-1.1,1.5c-0.3,1-0.3,1.5-0.3,2.1
					c0.2,0.2,0.5,0.4,0.6,0.5l0.1,0c0.7,0.1,2-0.1,2.6-0.4c0.6-0.3,1.8-1.3,1.9-1.5c-0.1-0.1-0.1-0.1-0.2-0.2c-0.1-0.1,0.5-1,1-0.1
					c0.1,0.9,0.5,2.4-0.4,3.6c-0.8,1.1-1.5,1-3,0.6l-0.2-0.1c0.1,0.1,0.2,0.3,0.3,0.4c1.9,2.9,0.7,6.2,0.6,7.5v0.1
					c0.7,0.3,1.6,0.7,2.7,0.9c1.9,0.8,2.2,2.5,2.8,3.8c0.2,0,0.3,0,0.3,0.2c0,0.2-0.3,0.6-1.3,0.8c-0.9,0.2-2.3,0.5-4.2,0.2
					l-0.4-0.1c0.3,0.9,1.1,1.7,0.3,3c-0.9,1.3-4.2,0.2-5.7-2.2c0,0-0.8,0-1.3,0C268.6,40.8,267.7,40.2,267.2,40z"/>
			</g>
			<path class="st11" d="M278.2,23.4c-0.2,0.4-2.8,1.6-0.6,2.8l1.4,0.2c-0.4,0.1-1.1,0.2-2.2-0.2c0,0-1.5-1.8-2-2.1
				C275.4,24.1,276.9,24.3,278.2,23.4z"/>
			<path class="st11" d="M266.2,41.1c0.7-0.4,1.5,0.1,2,0.1c1.6-0.6,4.1-0.3,4.1-0.3s-0.3-0.4-0.4-0.5c-0.1,0-0.2-0.1-0.4-0.1
				c-7.4-1.5-8.1-3.5-7.9-4.6c0,0-0.2,0.1-0.5,0c-0.3-0.1-0.3-1-0.3-1.4s-0.2-1.4,0-1.7c0.2-0.2,0.5-0.4,0.7-0.5s0.5-0.1,0.5-0.1
				c-0.6-3.3,0.1-4.2,0.4-4.6c-0.3,0.1-0.5,0.1-0.6,0.2c-0.6,1.8-0.8,4-0.8,4.1c-0.1,0.1-0.4,0.3-0.5,0.5c-0.2,0.5-1.3,1.9,0.1,4.1
				c1.4,2.2,2,2.2,2.3,2.5"/>
			<g>
				<g>
					<path class="st12" d="M274.2,41.3c0-0.7,0.8-1.2,1.8-1.2c0.9,0.1,1.6,0.7,1.6,1.4c-0.5,1.3-1.2,1-1.9,0.8
						C274.8,42,274.4,41.9,274.2,41.3z"/>
					
						<linearGradient id="SVGID_9_" gradientUnits="userSpaceOnUse" x1="1993.1182" y1="38.5099" x2="1999.4963" y2="38.5099" gradientTransform="matrix(0.9977 6.820000e-02 6.820000e-02 -0.9977 -1733.0265 -73.4259)">
						<stop  offset="0" style="stop-color:#F3BEC3"/>
						<stop  offset="2.950000e-02" style="stop-color:#F2B7BC"/>
						<stop  offset="0.2408" style="stop-color:#EE8F90"/>
						<stop  offset="0.4478" style="stop-color:#EA6F71"/>
						<stop  offset="0.6471" style="stop-color:#E8585E"/>
						<stop  offset="0.835" style="stop-color:#E74B53"/>
						<stop  offset="1" style="stop-color:#E7464F"/>
					</linearGradient>
					<path class="st32" d="M258.3,21.6c0,0.4-0.4,2.2,0.5,3.4c0.9,1.2,2.2,1.9,3.9,1.7c1-0.1,1.6-0.6,1.7-0.8l-0.1,0
						c-1.4,0.1-4.1,0-5.4-3.4C258.8,22.2,258.6,22,258.3,21.6L258.3,21.6z"/>
					<path class="st14" d="M263.7,26c-0.5,0-1,0-1.5-0.2c-1.5-0.4-2.6-1.5-3.3-3.2c0,0,0-0.1-0.1-0.1c-0.3-0.4-0.4-0.8-1-1.2
						c0,0,0,0,0,0s0,0,0,0c0.6,0.4,0.8,0.8,1,1.2c0,0,0,0.1,0.1,0.1c0.7,1.8,2.3,3.9,6,3.3c0,0,0.1,0,0.1,0c0,0,0,0,0,0s0,0,0,0
						c0,0-0.1,0-0.1,0C264.7,26,264.3,26,263.7,26z"/>
					<path class="st14" d="M262.3,26.8c-1.5,0-2.6-0.6-3.5-1.8c-0.8-1.1-0.6-2.7-0.5-3.3c0-0.1,0-0.1,0-0.2c0,0,0,0,0,0l0,0
						c0,0,0,0,0,0c0,0,0,0.1,0,0.2c-0.1,0.6-0.2,2.2,0.5,3.2c0.9,1.3,2.2,1.8,3.9,1.7c0.9-0.1,1.5-0.6,1.7-0.8c0,0,0,0,0,0
						c0,0,0,0,0,0c-0.1,0.3-0.7,0.7-1.7,0.8C262.6,26.8,262.4,26.8,262.3,26.8z"/>
					<g>
						<path class="st15" d="M275.6,40.9c0.3,0.4,0.5,0.6,0.6,0.6c-0.1-0.1-0.7-2,0.9-0.5c0.3,0.4,0.3,0.5,0.3,0.9
							c0.3-0.7-0.4-1.8-0.6-2.3c-0.6-0.2-3-1-4-1.8c0,0.4,0.2,2.6,1.4,3.8C274.1,41.4,274.5,39.7,275.6,40.9z"/>
					</g>
					
						<linearGradient id="SVGID_10_" gradientUnits="userSpaceOnUse" x1="2013.0187" y1="27.4594" x2="2018.4954" y2="24.8235" gradientTransform="matrix(0.9977 6.820000e-02 6.820000e-02 -0.9977 -1733.0265 -73.4259)">
						<stop  offset="0" style="stop-color:#E7A612"/>
						<stop  offset="3.838547e-03" style="stop-color:#E7A512"/>
						<stop  offset="0.1515" style="stop-color:#C97B12"/>
						<stop  offset="0.304" style="stop-color:#B45F12"/>
						<stop  offset="0.4637" style="stop-color:#A54C11"/>
						<stop  offset="0.634" style="stop-color:#9C4210"/>
						<stop  offset="0.8326" style="stop-color:#9A3F10"/>
					</linearGradient>
					<path class="st33" d="M283.2,38.9c-0.8-1.8-1.3-3.4-2.8-3.8c-0.7-0.2-1.6-0.4-1.6-0.4c-0.7,0.5-3.2,3.6-1.6,5.1
						c0.5,0.2,1.4,0.6,2.5,0.5c1.1-0.2,2.4-0.2,3.3-0.6C283.8,39.2,283.5,38.9,283.2,38.9z"/>
					<path class="st17" d="M275.3,32.4c0,0.2,0.9,1.2,1.1,1.4c0.3,0.2,1.5,0.9,2.4,1.1s2.9,0.6,3.4,2.2c0.1,0.4,0.6,1.8,0.6,2
						c0,0.2,0,0.1-0.1,0.2c0.1-0.1,0.4-0.2,0.5-0.4c-0.1-0.2-0.7-1.8-1-2.3c-0.3-0.4-0.9-1.2-1.6-1.5c-0.8-0.2-2.9-0.8-3.8-1.4
						C276.2,33.3,275.3,32.4,275.3,32.4z"/>
					<path d="M267.8,33c0.1-0.1,0.3-0.1,0.5-0.2c0.2,0,0.3-0.1,0.5-0.1c0.3-0.1,0.7-0.1,1-0.1c0.3,0,0.7,0,1,0.1
						c0.3,0.1,0.6,0.2,0.9,0.4c0,0,0,0,0,0c0,0,0,0,0,0l0,0c-0.3-0.2-0.6-0.3-0.9-0.4c-0.3-0.1-0.6-0.1-1-0.1c-0.3,0-0.7,0-1,0.1
						c-0.2,0-0.3,0.1-0.5,0.1C268.2,32.9,268,32.9,267.8,33L267.8,33C267.8,33,267.8,33,267.8,33C267.8,33,267.8,33,267.8,33z"/>
					<path d="M268.2,32.8c0-0.9,0.1-1.7,0.3-2.6c0.1-0.4,0.2-0.8,0.5-1.2c0.1-0.2,0.3-0.3,0.4-0.5c0.2-0.1,0.4-0.2,0.6-0.2l0,0h0
						l0,0c0.4,0.2,0.7,0.5,0.9,0.8c0.2,0.4,0.3,0.8,0.4,1.2c0,0.4,0,0.8,0,1.2c0,0.4-0.1,0.8-0.2,1.2c0,0,0,0,0,0s0,0,0,0
						c0.1-0.4,0.2-0.8,0.2-1.2c0-0.4,0-0.8,0-1.2c-0.1-0.4-0.2-0.8-0.4-1.2c-0.2-0.4-0.5-0.6-0.9-0.8h0l0,0c-0.2,0-0.4,0.1-0.6,0.2
						c-0.2,0.1-0.3,0.3-0.4,0.5c-0.2,0.4-0.4,0.8-0.5,1.2C268.3,31.1,268.2,32,268.2,32.8C268.2,32.9,268.2,32.9,268.2,32.8
						C268.2,32.9,268.2,32.8,268.2,32.8z"/>
					<path class="st18" d="M268.2,32.8c0-0.4,0-4.3,1.8-4.4c1.1,0.5,1.8,1.5,1.1,4.5C270.1,32.4,268.2,32.8,268.2,32.8z"/>
					<g>
						<path class="st19" d="M269.3,28.6c0.6,0.3,1.3,1.9,0.5,4c0,0-1.4,0.1-1.6,0.2C268.2,32.4,268.2,29.4,269.3,28.6z"/>
						<path d="M268.2,32.8L268.2,32.8c0-0.1,0-0.1,0-0.2c0-0.8,0.1-3.3,1.1-4l0,0h0c0.6,0.3,1.3,1.9,0.5,4v0h0
							C269.8,32.6,268.4,32.7,268.2,32.8L268.2,32.8z M269.3,28.6c-1,0.7-1,3.1-1.1,3.9c0,0.1,0,0.1,0,0.2c0.2-0.1,1.4-0.1,1.6-0.2
							C270.6,30.6,269.9,28.9,269.3,28.6z"/>
					</g>
					<path class="st18" d="M268.7,30.2c0-0.5,0.2-0.8,0.4-0.8c0.2,0,0.3,0.4,0.3,0.9c0,0.5-0.2,0.8-0.4,0.8
						C268.8,31,268.7,30.6,268.7,30.2z"/>
					
						<radialGradient id="SVGID_11_" cx="2211.105" cy="32.5159" r="1.3776" gradientTransform="matrix(0.7579 5.180000e-02 6.820000e-02 -0.9977 -1408.5256 -51.3331)" gradientUnits="userSpaceOnUse">
						<stop  offset="0" style="stop-color:#FFFFFF;stop-opacity:0.6"/>
						<stop  offset="0.5055" style="stop-color:#FEFEFB;stop-opacity:0.2967"/>
						<stop  offset="0.8605" style="stop-color:#FCFAF0;stop-opacity:8.370000e-02"/>
						<stop  offset="1" style="stop-color:#FAF7E9;stop-opacity:0"/>
					</radialGradient>
					<path class="st34" d="M270.5,30.8c0,0.8-0.6,1.3-1.1,1.3c-0.6,0-1-0.7-1-1.4c0-0.8,0.6-1.3,1.1-1.3
						C270.2,29.4,270.6,30.1,270.5,30.8z"/>
					<path d="M269,29c-0.3,0.2-0.6,1.5-0.6,1.5s0.4,2.4,1.1,1.1C270.1,30.4,269.6,29.1,269,29z M269,31.1c-0.2,0-0.3-0.4-0.3-0.9
						s0.2-0.8,0.4-0.8c0.2,0,0.3,0.4,0.3,0.9C269.4,30.7,269.2,31.1,269,31.1z"/>
					<path class="st21" d="M271.2,28.7"/>
					<path d="M270,28.4c0.2,0,0.5,0,0.7,0c0.2,0,0.4,0.1,0.6,0.3c0,0,0,0,0,0c0,0,0,0,0,0c-0.2-0.1-0.4-0.2-0.6-0.3
						C270.4,28.4,270.2,28.4,270,28.4L270,28.4C270,28.5,269.9,28.4,270,28.4C269.9,28.4,270,28.4,270,28.4L270,28.4z"/>
					<path d="M269.4,28.2c0.1-0.1,0.2-0.2,0.4-0.3c0.1-0.1,0.3-0.2,0.4-0.2c0.2,0,0.3-0.1,0.5,0c0.2,0,0.3,0.1,0.4,0.2c0,0,0,0,0,0
						c0,0,0,0,0,0l0,0c-0.1-0.1-0.3-0.1-0.4-0.2c-0.2,0-0.3,0-0.5,0c-0.1,0-0.3,0.1-0.4,0.2C269.7,28.1,269.6,28.2,269.4,28.2
						C269.4,28.3,269.4,28.3,269.4,28.2C269.4,28.3,269.4,28.3,269.4,28.2L269.4,28.2z"/>
					<path class="st22" d="M267.3,27.2c0.4-0.5,0.8-1,1.5-1.3c0.3-0.2,0.6-0.3,1-0.3c0.4,0,0.7,0,1.1,0.1c0.3,0.1,0.4,0.3,0.4,0.6
						c-0.1,0.3-0.3,0.4-0.6,0.4c0,0-0.1,0-0.1,0c-0.5-0.2-1-0.3-1.6-0.2C268.4,26.6,267.9,26.9,267.3,27.2
						C267.4,27.3,267.3,27.3,267.3,27.2C267.3,27.3,267.3,27.2,267.3,27.2L267.3,27.2z"/>
					<path d="M276.7,33.6L276.7,33.6c-0.1-0.1-1.2-1-1.4-1.3l0,0v0c0,0,0-0.1,0-0.3c0-0.6,0-1.9,0.3-2.3c0.3-0.4,0.7-0.6,1-0.7h0h0
						c0.3,0.2,1.1,0.9,0.7,3.3C277.1,33.3,276.9,33.4,276.7,33.6L276.7,33.6z M275.3,32.4c0.1,0.3,1.2,1.1,1.3,1.2
						c0.2-0.2,0.3-0.3,0.6-1.2c0.4-2.4-0.4-3.1-0.6-3.3c-0.3,0.1-0.6,0.3-1,0.7c-0.3,0.4-0.3,1.7-0.3,2.3
						C275.3,32.2,275.3,32.3,275.3,32.4z"/>
					<path class="st18" d="M276.6,29.1c0.4,0.3,1,1.1,0.6,3.3c-0.3,0.9-0.4,1-0.6,1.2c-0.1-0.1-1.2-1-1.4-1.3c0-0.3,0-2.1,0.4-2.5
						C276,29.4,276.3,29.2,276.6,29.1z"/>
					<path d="M276.6,29.1c0.2,0,0.4,0,0.5,0.1c0.2,0.1,0.3,0.2,0.4,0.4v0h0c-0.1-0.1-0.2-0.3-0.4-0.4
						C277,29.2,276.8,29.1,276.6,29.1L276.6,29.1C276.6,29.1,276.6,29.1,276.6,29.1C276.6,29.1,276.6,29.1,276.6,29.1L276.6,29.1z"
						/>
					<path d="M275.8,29c0.1-0.1,0.2-0.2,0.3-0.3c0.1-0.1,0.2-0.1,0.4-0.2c0.1,0,0.3,0,0.4,0.1c0.1,0.1,0.2,0.2,0.2,0.3c0,0,0,0,0,0
						c0,0,0,0,0,0l0,0c-0.1-0.1-0.1-0.3-0.2-0.3c-0.1-0.1-0.2-0.1-0.4-0.1c-0.1,0-0.3,0.1-0.4,0.2S275.9,29,275.8,29
						C275.8,29.1,275.8,29.1,275.8,29C275.8,29.1,275.8,29,275.8,29L275.8,29z"/>
					<g>
						<path class="st19" d="M275.9,29.5c1.3,0.9,1,2.8,0.5,3.9c0,0-0.8-0.7-1.1-1.1c0-0.3,0.1-2.4,0.4-2.5
							C275.8,29.7,275.9,29.5,275.9,29.5z"/>
						<path d="M276.4,33.5L276.4,33.5c0,0-0.8-0.7-1.1-1.1l0,0v0c0,0,0-0.1,0-0.2c0-1,0.1-2.2,0.3-2.4c0.1-0.1,0.3-0.3,0.3-0.3l0,0
							l0,0c0.6,0.4,0.9,1,0.9,1.9C276.9,32,276.7,32.8,276.4,33.5L276.4,33.5z M275.3,32.4c0.3,0.4,1,1,1.1,1c0.3-0.6,0.4-1.4,0.4-2
							c0-0.8-0.3-1.5-0.9-1.8c0,0-0.2,0.2-0.3,0.3l0,0c-0.2,0.1-0.3,1.8-0.3,2.3C275.3,32.3,275.3,32.3,275.3,32.4z"/>
					</g>
					
						<radialGradient id="SVGID_12_" cx="2472.7527" cy="32.5611" r="1.3789" gradientTransform="matrix(0.5837 3.990000e-02 6.820000e-02 -0.9977 -1169.4097 -34.9578)" gradientUnits="userSpaceOnUse">
						<stop  offset="0" style="stop-color:#FFFFFF;stop-opacity:0.6"/>
						<stop  offset="0.5055" style="stop-color:#FEFEFB;stop-opacity:0.2967"/>
						<stop  offset="0.8605" style="stop-color:#FCFAF0;stop-opacity:8.370000e-02"/>
						<stop  offset="1" style="stop-color:#FAF7E9;stop-opacity:0"/>
					</radialGradient>
					<path class="st35" d="M277,31.3c0,0.8-0.5,1.3-0.9,1.3c-0.4,0-0.8-0.7-0.7-1.4c0-0.8,0.5-1.3,0.9-1.3
						C276.7,29.9,277,30.5,277,31.3z"/>
					<path d="M275.7,29.8c-0.2,0-0.4,2.1-0.3,2.4c0.2,0.1,0.6,0.4,0.9-0.2C276.9,30.8,275.9,29.9,275.7,29.8z M275.6,31.9
						c-0.1,0-0.1-0.1-0.1-0.1c0-0.1,0.1-0.1,0.1-0.1c0.1,0,0.1,0.1,0.1,0.1C275.7,31.9,275.7,31.9,275.6,31.9z M275.8,31.2
						c-0.1,0-0.1-0.3-0.1-0.5c0-0.3,0.1-0.5,0.2-0.5c0.1,0,0.1,0.3,0.1,0.5C276,31,275.9,31.2,275.8,31.2z"/>
					<path class="st22" d="M275.5,26.1c0,0,0.2,0,0.3,0c0.1,0,0.3,0,0.4,0.1c0.3,0.1,0.5,0.2,0.7,0.4c0.2,0.2,0.3,0.4,0.4,0.6
						c0.1,0.2,0.2,0.4,0.3,0.6c0,0,0,0,0,0h0c-0.1-0.2-0.3-0.4-0.4-0.5c-0.2-0.2-0.3-0.3-0.5-0.4c-0.2-0.1-0.4-0.1-0.5-0.1
						c-0.1,0-0.2,0-0.3,0l-0.1,0c-0.1,0-0.1,0-0.2,0c-0.2,0-0.3-0.2-0.3-0.4C275.1,26.2,275.3,26.1,275.5,26.1z"/>
					<g>
						<path class="st24" d="M274.3,25.1c-0.2-0.2-0.2-0.2-0.2-0.5c0-0.3,0.1-0.5,0.3-0.7c0,0,0-0.1,0-0.1c0.2,0.2,0.3,0.3,0.5,0.5
							c0.3,0.3,0.6,0.6,0.8,0.9c0,0,0.1,0.1,0.1,0.1c-0.1,0.1-0.2,0.2-0.3,0.2c-0.1,0-0.1,0-0.2,0C274.9,25.3,274.6,25.3,274.3,25.1
							z"/>
						<path class="st24" d="M263.4,35.6c-0.1,0-0.1,0-0.2,0c-0.1,0-0.2-0.1-0.3-0.2c-0.1-0.1-0.1-0.3-0.1-0.4c0-0.1,0-0.3,0-0.4
							c0-0.3-0.1-0.5-0.1-0.8c0-0.1,0-0.2,0-0.3c0,0,0-0.1,0-0.1c0-0.1,0-0.1,0-0.2c0-0.1,0-0.3,0-0.4c0-0.1,0.1-0.2,0.2-0.3
							c0.1-0.1,0.2-0.2,0.3-0.3c0.1-0.1,0.2-0.1,0.4-0.1c0,0,0.1,0,0.1,0c0,0,0,0,0,0c0,0,0,0,0,0c0.2,0,0.4,0.1,0.5,0.3
							c0.3,0.2,0.5,0.3,0.7,0.6c0.1,0.1,0.1,0.2,0.1,0.3c0,0,0,0.1,0,0.1c0,0,0,0,0,0c0,0.1,0,0.1,0,0.2c0,0,0,0.1,0,0.1
							c0,0.1,0,0.1,0,0.2c0,0,0,0,0,0c0,0,0,0.1,0,0.1c0,0,0,0,0,0c0,0,0,0.1,0,0.1c0,0,0,0,0,0c0,0,0,0,0,0c0,0,0,0,0,0
							c0,0,0,0,0,0c0,0,0,0,0,0c0,0,0,0,0,0c0,0,0,0,0,0s0,0,0,0c0,0,0,0,0,0c0,0,0,0,0,0c0,0,0,0,0,0c0,0,0,0,0,0c0,0,0,0,0,0
							c0,0,0,0,0,0c-0.1,0.1-0.2,0.2-0.3,0.3c-0.3,0.2-0.5,0.5-0.8,0.6C263.5,35.6,263.5,35.6,263.4,35.6z"/>
						<path class="st24" d="M264,28.2c0.2-0.1,0.3-0.2,0.5-0.2c0.2,0,0.5,0,0.7,0.1c0.1,0,0.3,0.1,0.4,0.1c0.1,0.1,0.2,0.1,0.2,0.1
							c0.1,0.1,0.2,0.1,0.2,0.3c0,0.1,0,0.2,0,0.3c0,0.1,0,0.3-0.1,0.4c0,0.1,0,0.1,0,0.2c0,0,0,0,0,0c0,0,0,0.1,0,0.1c0,0,0,0,0,0
							c0,0,0,0,0,0.1c0,0,0,0,0,0c0,0,0,0,0,0c0,0,0,0,0,0c0,0,0,0,0,0.1c0,0,0,0,0,0c0,0,0,0,0,0.1c-0.1,0.1-0.2,0.3-0.3,0.4
							c0,0,0,0,0,0c0,0,0,0,0,0c0,0,0,0,0,0c0,0,0,0,0,0s0,0,0,0c0,0,0,0,0,0c-0.3,0.2-0.6,0.3-0.9,0.4c-0.3,0-0.4-0.1-0.6-0.4
							c-0.1-0.3-0.1-0.6-0.2-0.9c0-0.2,0-0.4,0.1-0.6c0-0.1,0-0.1,0-0.2c0-0.2,0.1-0.4,0.2-0.6C263.9,28.2,264,28.2,264,28.2z"/>
						<path class="st24" d="M267.3,39c0.1,0.1,0.1,0.1,0.2,0.2c0.1,0.1,0.2,0.3,0.2,0.4c0,0.1,0.1,0.2,0.1,0.3c0,0,0,0,0,0.1
							c0,0,0,0.1-0.1,0.1c0,0-0.1,0-0.1,0c-0.2-0.1-0.3-0.2-0.5-0.3c0,0-0.1-0.1-0.1-0.1c0,0-0.1-0.1-0.1-0.1
							c-0.1-0.1-0.1-0.2-0.1-0.4c0,0,0-0.1,0-0.1c0.1-0.1,0.2-0.1,0.3-0.1C267.3,38.9,267.3,38.9,267.3,39
							C267.3,39,267.3,39,267.3,39z"/>
						<path class="st24" d="M263.4,36.4c0.1,0,0.1,0,0.2,0.1c0.1,0.1,0.1,0.3,0.2,0.4c0,0.1,0.1,0.2,0,0.2c-0.1,0-0.1,0-0.2,0
							c-0.1-0.1-0.3-0.2-0.4-0.3c0-0.1-0.1-0.1,0-0.2C263.2,36.4,263.3,36.4,263.4,36.4z"/>
						<path class="st24" d="M266.2,35.5C266.2,35.5,266.2,35.5,266.2,35.5c0.1,0.1,0.2,0.2,0.2,0.3c0.1,0.2,0.1,0.4,0.2,0.5
							c0,0,0,0,0,0c0,0,0,0.1,0,0.1c0,0,0,0,0,0c0,0,0,0,0,0.1l0,0c0,0,0,0.1,0,0.1c0,0,0,0,0,0c0,0,0,0,0,0.1l0,0c0,0,0,0.1,0,0.1
							l0,0c0,0.2,0.1,0.4,0.1,0.6c0,0.1,0,0.3,0,0.4c0,0.3-0.1,0.5-0.3,0.7c0,0,0,0,0,0c0,0,0,0,0,0c0,0,0,0-0.1,0
							c-0.1,0-0.2,0-0.3-0.1c-0.1-0.1-0.3-0.1-0.4-0.2c-0.3-0.1-0.5-0.3-0.7-0.5c0,0,0,0,0,0c0,0,0-0.1-0.1-0.1
							c-0.3-0.2-0.5-0.5-0.6-0.8c-0.1-0.2-0.2-0.4-0.1-0.7c0-0.1,0.1-0.3,0.2-0.3c0.1-0.1,0.1-0.1,0.2-0.2c0.1-0.1,0.2-0.1,0.3-0.2
							c0,0,0,0,0.1,0c0,0,0,0,0,0c0,0,0,0,0.1,0c0,0,0,0,0,0c0,0,0,0,0.1,0c0,0,0,0,0,0c0,0,0,0,0.1,0c0,0,0,0,0,0
							c0.2,0,0.3-0.1,0.5,0c0,0,0,0,0,0C265.9,35.3,266,35.4,266.2,35.5z"/>
						<path class="st24" d="M267.7,24.5c-0.1-0.1-0.3-0.1-0.4-0.2c-0.1,0-0.2-0.1-0.3-0.1c-0.1,0-0.1-0.1-0.2-0.1
							c0,0-0.1-0.1-0.1-0.1c-0.1-0.1-0.1-0.2,0-0.3c0.1-0.1,0.2-0.1,0.3-0.2c0.1,0,0.2-0.1,0.3-0.1c0.1,0,0.3,0,0.4-0.1
							c0.1,0,0.2,0,0.4-0.1c0,0,0.1,0,0.1,0c0.1,0,0.2,0,0.3,0.1c0.2,0.1,0.4,0.2,0.5,0.4c0,0,0.1,0.1,0.1,0.1c0,0,0,0,0,0l0,0
							c0,0,0,0,0,0l0,0c0,0,0,0,0,0l0,0c0.1,0.1,0.1,0.2,0.2,0.3c0.1,0.2,0.2,0.3,0.2,0.5c0,0.1,0,0.2,0,0.3c0,0,0,0.1-0.1,0.1
							c-0.1,0-0.2,0-0.3,0c-0.1,0-0.2,0-0.4-0.1c0,0-0.1,0-0.1,0c-0.3-0.1-0.7-0.2-1-0.3C267.8,24.5,267.8,24.5,267.7,24.5z"/>
						<path class="st24" d="M273.1,26c0,0,0.1-0.1,0.1-0.1c0.1-0.1,0.3-0.2,0.4-0.3c0.1,0,0.1-0.1,0.2-0.1c0.1,0,0.2,0,0.3,0.1
							c0,0.2,0.1,0.4,0.1,0.5c0,0.1,0,0.2,0.1,0.2c0,0.1,0,0.2,0,0.3c-0.1,0-0.2,0-0.3,0c-0.1,0-0.2,0-0.3,0c0,0-0.1,0-0.1,0
							c-0.2,0-0.4-0.1-0.5-0.3c0,0,0,0,0,0C273,26.3,272.9,26.2,273.1,26C273.1,26.1,273.1,26.1,273.1,26z"/>
						<path class="st24" d="M270.5,23.1c0.1,0,0.2,0,0.4,0c0.2,0,0.5,0.1,0.7,0.1c0.2,0,0.4,0.1,0.6,0.1c0,0,0,0,0.1,0
							c0,0,0,0,0.1,0c0,0,0,0,0,0c0.2,0,0.3,0.1,0.5,0.2c0.2,0.1,0.3,0.2,0.5,0.3c0,0.1,0.1,0.2,0.1,0.3c0,0.1,0,0.2,0,0.2
							c0,0.2-0.1,0.3-0.1,0.5c0,0.1-0.1,0.2-0.1,0.2l0,0c0,0,0,0,0,0c-0.1,0.1-0.3,0.2-0.4,0.3c0,0-0.1,0-0.1,0.1c0,0-0.1,0-0.1,0
							c-0.1,0-0.2,0.1-0.4,0c-0.1,0-0.1,0-0.2,0c-0.1,0-0.2,0-0.3-0.1c-0.1,0-0.2-0.1-0.3-0.2c0,0,0,0,0,0c0,0,0,0,0,0
							c-0.3-0.3-0.5-0.6-0.8-0.9c-0.1-0.1-0.2-0.2-0.3-0.3c-0.1-0.1-0.2-0.2-0.3-0.3c0-0.1-0.1-0.2-0.1-0.3c0-0.1,0-0.1,0.1-0.2
							c0.1-0.1,0.2-0.1,0.3-0.1C270.3,23.1,270.4,23.1,270.5,23.1z"/>
					</g>
					<path class="st15" d="M274.2,41.6c0.1,0.1,0.2,0.2,0.4,0.3c0.1,0.1,0.3,0.2,0.4,0.2c0.3,0.1,0.6,0.3,0.9,0.3
						c0.3,0.1,0.6,0.1,0.9,0c0.2,0,0.3-0.1,0.4-0.3c0.1-0.1,0.2-0.3,0.2-0.4c0,0,0,0,0,0c0,0,0,0,0,0l0,0c0,0.2-0.1,0.3-0.2,0.4
						c-0.1,0.1-0.2,0.2-0.4,0.3c-0.3,0.1-0.6,0.1-0.9,0c-0.3-0.1-0.6-0.2-0.9-0.3c-0.1-0.1-0.3-0.1-0.4-0.2
						C274.4,41.8,274.3,41.7,274.2,41.6C274.2,41.6,274.2,41.6,274.2,41.6C274.2,41.6,274.2,41.6,274.2,41.6L274.2,41.6L274.2,41.6z
						"/>
					<path class="st25" d="M277.7,34.1L277.7,34.1C277.7,34.1,277.6,34.1,277.7,34.1L277.7,34.1c0-0.3,0.1-0.7,0.1-1.1
						c0.3-1.6,0.8-4.1-0.7-6.4c-1.7-2.6-3.2-3.1-4.3-3.5c-0.2-0.1-0.3-0.1-0.4-0.2c-0.8-0.3-1.5-0.4-2.2-0.4l0,0c0,0,0,0,0,0
						c0,0,0,0,0,0c0.8,0,1.4,0.1,2.2,0.4c0.1,0.1,0.3,0.1,0.4,0.2c1.1,0.4,2.6,1,4.3,3.5c1.5,2.3,1,4.8,0.7,6.5
						C277.8,33.4,277.7,33.8,277.7,34.1L277.7,34.1C277.7,34.1,277.7,34.1,277.7,34.1z"/>
					<path class="st25" d="M265.3,24.1L265.3,24.1C265.3,24.1,265.3,24.1,265.3,24.1c0.5-0.6,1-1,1.6-1.1c0,0,0,0,0,0c0,0,0,0,0,0
						C266.3,23.2,265.8,23.5,265.3,24.1C265.4,24.1,265.4,24.1,265.3,24.1z"/>
					<path class="st25" d="M265.5,39.1L265.5,39.1L265.5,39.1c-0.8-0.4-1.3-0.7-1.7-1c-0.6-0.5-2-2.5-2-3.6c0-1.2,0.4-2.3,1.1-2.7
						c0.1-0.5,0.4-3.1,0.7-3.9c0,0,0-0.1,0.1-0.2c0,0,0,0,0,0c0,0,0,0,0,0c0,0.1,0,0.1-0.1,0.2c-0.4,0.8-0.7,3.4-0.7,3.9v0l0,0
						c-0.6,0.4-1.1,1.5-1.1,2.7c0,1.2,1.4,3.1,2,3.6C264.2,38.4,264.7,38.6,265.5,39.1L265.5,39.1L265.5,39.1z"/>
					<path class="st25" d="M276.6,43.6C276.6,43.6,276.6,43.6,276.6,43.6c-0.7,0-1.6-0.3-2.4-0.8c-0.8-0.5-1.6-1.2-2-2
						c-0.1,0-0.3,0-0.6,0c-1,0-2.9,0-4.4-0.9c0,0,0,0,0,0c0,0,0,0,0,0c1.5,0.8,3.4,0.8,4.4,0.9c0.2,0,0.4,0,0.6,0h0l0,0
						C273.3,42.5,275.3,43.6,276.6,43.6C276.6,43.6,276.6,43.6,276.6,43.6c0.6,0,1-0.2,1.3-0.6c0.7-1,0.3-1.6,0-2.3
						c-0.1-0.2-0.2-0.4-0.3-0.7c0,0,0,0,0,0c0,0,0,0,0,0c0.1,0.2,0.2,0.5,0.3,0.7c0.3,0.7,0.7,1.4,0,2.4
						C277.7,43.4,277.2,43.6,276.6,43.6z"/>
					<path class="st25" d="M279.6,40.3c-0.5,0-1,0-1.6-0.2h0c-0.3-0.2-0.9-0.3-1.5-0.6c-1.2-0.4-2.6-0.9-3.8-1.7l0,0
						c1.2,0.8,2.6,1.3,3.8,1.7c0.6,0.2,1.1,0.4,1.5,0.6c1.7,0.3,3,0.1,3.9-0.1c0.1,0,0.2,0,0.3,0c0.9-0.2,1.3-0.6,1.3-0.8
						c0-0.1-0.1-0.2-0.3-0.2h0v0c-0.1-0.3-0.2-0.5-0.3-0.8c-0.4-1.2-0.9-2.4-2.4-3c-1-0.2-1.9-0.5-2.7-0.9c-0.2-0.1-0.6-0.2-1-0.5
						l0,0c0.4,0.3,0.8,0.4,1,0.5c0.8,0.4,1.7,0.7,2.7,0.9c1.6,0.6,2,1.9,2.5,3c0.1,0.3,0.2,0.5,0.3,0.8c0.2,0,0.3,0,0.3,0.2
						c0,0.2-0.3,0.6-1.3,0.8c-0.1,0-0.2,0-0.3,0C281.4,40.1,280.6,40.3,279.6,40.3z"/>
					<path class="st26" d="M270.9,40.9"/>
					<path class="st26" d="M264.8,38.7"/>
					<path class="st25" d="M266.3,24.4L266.3,24.4c-1.3-0.2-3.6-1-4.4-1.8c-0.8-0.7-2.3-1.6-3.1-1.6c0,0-0.1,0-0.1,0c0,0,0,0,0,0
						c0,0,0,0,0,0c0.7-0.1,2.4,0.8,3.3,1.6C262.7,23.3,265,24.2,266.3,24.4C266.3,24.3,266.3,24.4,266.3,24.4
						C266.3,24.4,266.3,24.4,266.3,24.4z"/>
					<path class="st25" d="M262.1,27.8c-0.5,0-1.1-0.1-1.7-0.2c-1-0.3-1.9-1-2.5-2.1c-0.6-1.1-0.8-2.3-0.8-3.1
						c-0.1-0.9,0-1.5,0.3-1.7c0.2-0.2,0.5-0.1,0.7,0c0.5,0.2,1.4,1.1,1.6,1.4c0,0,0,0,0,0s0,0,0,0c-0.2-0.3-1.2-1.2-1.6-1.4
						c-0.2-0.1-0.5-0.2-0.7,0c-0.3,0.2-0.3,0.7-0.3,1.7c0.1,1.3,0.7,4.5,3.3,5.2c2.3,0.7,4.6-0.3,5-0.6c0,0,0,0,0,0s0,0,0,0
						C265.1,27.2,263.7,27.8,262.1,27.8z"/>
					<path class="st25" d="M278.5,26.5c-0.4,0-0.9-0.1-1.6-0.3l-0.1,0c0,0,0,0,0,0c0,0,0,0,0,0l0.1,0c1.5,0.4,2.2,0.6,3-0.5
						c0.8-1,0.6-2.3,0.4-3.3c0-0.1,0-0.2,0-0.3c-0.1-0.3-0.3-0.4-0.4-0.4c0,0,0,0,0,0c-0.2,0-0.4,0.2-0.4,0.3c0,0.1-0.1,0.1,0,0.1
						c0.1,0.1,0.1,0.1,0.2,0.2l0,0l0,0c-0.1,0.2-1.3,1.2-1.9,1.5c-0.6,0.3-2.2,0.5-2.8,0.3c0,0,0,0,0,0c0,0,0,0,0,0
						c0.6,0.1,2.1,0,2.8-0.3c0.6-0.3,1.7-1.3,1.9-1.5c-0.1-0.1-0.1-0.1-0.2-0.2c0,0,0-0.1,0-0.2c0.1-0.1,0.3-0.3,0.5-0.3
						c0,0,0,0,0,0c0.2,0,0.3,0.2,0.4,0.4v0c0,0.1,0,0.2,0,0.3c0.1,0.9,0.3,2.2-0.4,3.3C279.5,26.3,279,26.5,278.5,26.5z"/>
					<path class="st25" d="M278,26c-0.1,0-0.1,0-0.2,0c0,0,0,0,0,0c0,0,0,0,0,0l0,0c1.6,0.1,1.9-0.9,1.9-1.4c0,0,0,0,0,0l0,0
						c0,0,0,0,0,0C279.7,25,279.5,26,278,26z"/>
					<path class="st25" d="M266.2,23.3L266.2,23.3C266.2,23.3,266.2,23.3,266.2,23.3c0-0.5,0.1-2.3,0.2-2.7c0,0,0,0,0,0s0,0,0,0
						C266.4,21,266.2,22.8,266.2,23.3C266.2,23.3,266.2,23.3,266.2,23.3z"/>
					<path class="st25" d="M270.4,22.5L270.4,22.5c-0.5-0.1-2-0.1-2.4-0.1h0v0c0-0.1,0-0.2,0-0.3c0-0.2-0.1-0.5-0.1-1.5c0,0,0,0,0,0
						s0,0,0,0c0,0.9,0.1,1.3,0.1,1.5c0,0.1,0,0.2,0,0.3C268.4,22.4,269.9,22.4,270.4,22.5C270.4,22.5,270.4,22.5,270.4,22.5
						C270.4,22.5,270.4,22.5,270.4,22.5z"/>
					<path class="st25" d="M266.2,21.2C266.2,21.2,266.2,21.2,266.2,21.2c-0.3,0-0.7-0.3-1-0.7c-0.3-0.4-0.4-0.8-0.4-1.2
						c0.1-1,0.8-2,2-2.1c1.3,0.2,2,0.9,2,2c-0.2,1-0.6,1.2-0.8,1.4c0,0-0.1,0-0.1,0.1c0,0,0,0,0,0c0,0,0,0,0,0c0,0,0.1,0,0.1-0.1
						c0.3-0.2,0.6-0.4,0.8-1.3c0-1.2-0.6-1.8-1.9-2c-1.2,0.1-1.9,1.1-2,2c-0.1,0.4,0.1,0.8,0.4,1.2
						C265.5,20.8,265.9,21.1,266.2,21.2C266.2,21.1,266.2,21.1,266.2,21.2C266.2,21.2,266.2,21.2,266.2,21.2z"/>
					
						<linearGradient id="SVGID_13_" gradientUnits="userSpaceOnUse" x1="2001.9156" y1="41.9897" x2="2001.0503" y2="45.8606" gradientTransform="matrix(0.9977 6.820000e-02 6.820000e-02 -0.9977 -1733.0265 -73.4259)">
						<stop  offset="0" style="stop-color:#F6B80D"/>
						<stop  offset="0.1096" style="stop-color:#DD930F"/>
						<stop  offset="0.2693" style="stop-color:#C06C10"/>
						<stop  offset="0.435" style="stop-color:#AB5010"/>
						<stop  offset="0.6071" style="stop-color:#9C3F10"/>
						<stop  offset="0.7896" style="stop-color:#943610"/>
						<stop  offset="1" style="stop-color:#923310"/>
					</linearGradient>
					<path class="st36" d="M267.9,20.6c0.3-0.2,0.7-0.3,0.9-1.4c0-1.1-0.6-1.9-2-2c-1.2,0.1-1.9,1.2-2,2.1c-0.1,0.9,0.8,1.8,1.4,1.9
						C266.2,21.1,267.1,21.2,267.9,20.6z"/>
					<path class="st25" d="M272.8,23.1L272.8,23.1C272.8,23.1,272.8,23.1,272.8,23.1c0-0.2,0-0.4,0.1-0.7c0-0.3,0.1-0.6,0.2-1.2
						c0,0,0,0,0,0s0,0,0,0c-0.1,0.6-0.1,0.9-0.2,1.2C272.9,22.7,272.9,22.8,272.8,23.1C272.8,23.1,272.8,23.1,272.8,23.1z"/>
					<path class="st25" d="M275,24.1C275,24.1,275,24.1,275,24.1c-0.1-0.1-0.2-0.2-0.4-0.3c-0.1-0.1-0.2-0.1-0.3-0.2l0,0l0-0.1
						c0-0.5,0-1,0.3-2c0,0,0,0,0,0c0,0,0,0,0,0c-0.2,1-0.3,1.5-0.3,2l0,0.1c0.1,0.1,0.2,0.1,0.3,0.2C274.8,23.9,274.9,24,275,24.1
						C275,24.1,275,24.1,275,24.1C275,24.1,275,24.1,275,24.1z"/>
					
						<linearGradient id="SVGID_14_" gradientUnits="userSpaceOnUse" x1="2008.4539" y1="42.0096" x2="2008.7562" y2="45.4911" gradientTransform="matrix(0.9977 6.820000e-02 6.820000e-02 -0.9977 -1733.0265 -73.4259)">
						<stop  offset="0" style="stop-color:#F6B80D"/>
						<stop  offset="0.1096" style="stop-color:#DD930F"/>
						<stop  offset="0.2693" style="stop-color:#C06C10"/>
						<stop  offset="0.435" style="stop-color:#AB5010"/>
						<stop  offset="0.6071" style="stop-color:#9C3F10"/>
						<stop  offset="0.7896" style="stop-color:#943610"/>
						<stop  offset="1" style="stop-color:#923310"/>
					</linearGradient>
					<path class="st37" d="M272.9,21.4c-0.5-0.4-0.8-1.1-0.7-1.6c0-0.5,0.7-1.5,1.7-1.5c1.1,0,1.7,1,1.7,1.7
						c0.1,0.7-0.8,1.4-1.1,1.5C274.4,21.7,273.5,21.8,272.9,21.4z"/>
					<path class="st25" d="M270.3,36.5c0.1-0.1,0.2-0.1,0.3-0.2c0.1,0,0.2-0.1,0.3,0c0,0,0,0,0,0c0,0,0,0,0,0c0,0-0.1,0-0.2,0
						c-0.1,0-0.1,0-0.2,0c0,0-0.1,0-0.2,0.1C270.4,36.5,270.4,36.5,270.3,36.5L270.3,36.5C270.3,36.5,270.3,36.5,270.3,36.5
						C270.3,36.5,270.3,36.5,270.3,36.5z"/>
					<path class="st25" d="M270.4,37.1c0.1-0.1,0.2-0.1,0.2-0.2c0.1,0,0.2-0.1,0.3-0.1c0.1,0,0.2-0.1,0.3-0.1c0.1,0,0.2,0,0.3,0
						c0,0,0,0,0,0c0,0,0,0,0,0c0,0,0,0,0,0c-0.1,0-0.2,0-0.3,0s-0.2,0-0.3,0.1c-0.1,0-0.2,0.1-0.2,0.1
						C270.6,37.1,270.5,37.1,270.4,37.1L270.4,37.1C270.5,37.2,270.4,37.2,270.4,37.1C270.4,37.2,270.4,37.2,270.4,37.1L270.4,37.1z
						"/>
					<path class="st25" d="M270.9,36.9c0.1,0.2,0.2,0.4,0.4,0.5c0.2,0.1,0.4,0.2,0.6,0.2c0.2,0,0.4,0,0.6-0.1c0.1,0,0.2-0.1,0.3-0.1
						l0.3-0.1l0,0c0,0,0,0,0,0s0,0,0,0l-0.3,0.1c-0.1,0-0.2,0.1-0.3,0.1c-0.2,0.1-0.4,0.1-0.6,0.1c-0.2,0-0.4-0.1-0.6-0.2
						C271.1,37.3,270.9,37.1,270.9,36.9C270.8,36.9,270.8,36.9,270.9,36.9C270.9,36.9,270.9,36.9,270.9,36.9z"/>
					<path class="st25" d="M272.3,40.9C272.2,40.9,272.2,40.9,272.3,40.9c-0.2-0.3-0.5-0.6-0.7-1c-0.2-0.3-0.4-0.5-0.4-0.6
						c0,0,0,0,0,0s0,0,0,0c0.1,0.1,0.2,0.3,0.4,0.6C271.8,40.2,272.1,40.6,272.3,40.9C272.3,40.9,272.3,40.9,272.3,40.9
						C272.3,40.9,272.3,40.9,272.3,40.9z"/>
					<path d="M279.9,37.5c-0.2-0.7-0.7-1.4-1.1-1.5s-1.4,0.7-0.2,1.2C279.3,37.5,279.9,37.5,279.9,37.5z"/>
					<path class="st18" d="M275.7,30.6c0-0.3,0.1-0.5,0.2-0.5c0.1,0,0.1,0.3,0.1,0.5c0,0.3-0.1,0.5-0.2,0.5
						C275.7,31.2,275.6,30.9,275.7,30.6z"/>
					<path class="st18" d="M275.5,31.8c0-0.1,0.1-0.1,0.1-0.1c0.1,0,0.1,0.1,0.1,0.1c0,0.1-0.1,0.1-0.1,0.1
						C275.5,31.9,275.5,31.8,275.5,31.8z"/>
					<path class="st25" d="M262.9,31.7C262.9,31.7,262.9,31.7,262.9,31.7C262.9,31.7,262.9,31.7,262.9,31.7c0.2-0.2,0.4-0.2,0.7-0.3
						l0,0c0,0,0,0,0,0c0,0,0,0,0,0C263.3,31.5,263.1,31.6,262.9,31.7C262.9,31.7,262.9,31.7,262.9,31.7z"/>
					<path class="st25" d="M268.5,41.3c-0.1,0-0.3,0-0.4,0c0,0,0,0,0,0c0,0,0,0,0,0l0,0c0.5,0,1.3,0,2.3-0.4c0,0,0,0,0,0
						c0,0,0,0,0,0C269.7,41.2,269,41.3,268.5,41.3z"/>
				</g>
			</g>
		</g>
		<path class="st29" d="M270.7,40.9c0,0.9,1.6,31.5,1.7,34.5c0.1,1.6,0.7,7.6,0.1,9.9c-0.2,0.6-2.2,0.6-4,1c-0.1-0.8-2.3-6.5-2.5-11
			c1.2-1.4,1.3-3.4,1.4-4.3c-0.6-8.4-1.3-17.6-1.6-20.6c-0.6-5.5-0.7-8.1-1.4-12C267.3,40,270.7,40.9,270.7,40.9z"/>
		<path class="st30" d="M267.9,40.4c-0.4-0.2-1.3-1-1.6-1.1c-0.3,0.1-0.4,0.3-0.4,0.6c0,0.3,0,1.4,0.5,1.8c0.5,0.4,1.2,0.4,1.7-0.1
			C268.5,41,267.9,40.4,267.9,40.4z"/>
		<path class="st30" d="M271.5,58.8c-0.6,0-4.3,2.5,0.2,5.6C271.8,63.3,271.5,58.8,271.5,58.8z"/>
		<path class="st30" d="M267.2,68.1c1.2-1,7,2.3-0.4,5.8C267.9,72.2,267.2,68.1,267.2,68.1z"/>
		<path class="st30" d="M272.6,77.8c-3.1-1-6.2,4.7,0.1,5.6C272.8,82.4,272.6,77.8,272.6,77.8z"/>
		<path class="st30" d="M268.6,44.6c1.1,1.2,1.1,2.5,0.8,2.9c0,0.8-3.2,3.8-3.6,3.1c-0.1-1.3-0.5-5.2-0.5-6
			C265.9,44,268.1,43.7,268.6,44.6z"/>
		<path class="st30" d="M270.6,52.7c-0.2-0.1-0.8-0.3-0.9,0.4c-0.2,0.6-0.1,0.9,0.6,1.4c0.2,0,0.5-0.2,0.6-0.6
			C271.1,53.5,270.9,52.9,270.6,52.7z"/>
	</g>
	
		<linearGradient id="SVGID_15_" gradientUnits="userSpaceOnUse" x1="230.2487" y1="91.0866" x2="230.2487" y2="126.6371" gradientTransform="matrix(1 0 0 -1 0 199.8644)">
		<stop  offset="0" style="stop-color:#F39C11"/>
		<stop  offset="0.2129" style="stop-color:#F4A310"/>
		<stop  offset="0.4112" style="stop-color:#F5A90F"/>
		<stop  offset="0.6122" style="stop-color:#F6B20C"/>
		<stop  offset="1" style="stop-color:#F6B60D"/>
	</linearGradient>
	<path class="st38" d="M243.6,108c-0.9-2.7-1.1-9.1-1.6-12.4c-0.2-1.6,0.8-7-0.1-9.9c-2-1.8-3.9-4.1-3.9-6c0.5-2.3,0.5-3.3-1.2-6.4
		c0.1,2.6-2.2,3.4-5.6,5.5c-3.4,2-13.2,5.7-14.3,11.9c-0.7,6.3,2.8,8.6,5.5,11.1c2.7,2.5,6.9,4.2,9.8,3.6c2.9-0.6,3.1-0.1,3.8,0.7
		c0,0,1.5,2.6,2.4,3.5C242,111.2,243.8,108.7,243.6,108z M234.6,87.3c-0.3,3.2-1,8-0.8,10.2c-0.6,0.3-2,1.2-4.9-0.5
		c-3-1.7-5.5-7.1-2.1-9.6c4.1-3.1,7.8-2.8,7.8-2.8C234.6,85,234.7,86,234.6,87.3z"/>
	
		<linearGradient id="SVGID_16_" gradientUnits="userSpaceOnUse" x1="235.6775" y1="297.2619" x2="235.6775" y2="331.9313" gradientTransform="matrix(0.9927 -0.1205 -0.1205 -0.9927 65.3584 432.6089)">
		<stop  offset="0" style="stop-color:#F39C11"/>
		<stop  offset="0.2129" style="stop-color:#F4A310"/>
		<stop  offset="0.4112" style="stop-color:#F5A90F"/>
		<stop  offset="0.6122" style="stop-color:#F6B20C"/>
		<stop  offset="1" style="stop-color:#F6B60D"/>
	</linearGradient>
	<path class="st39" d="M276.6,106.7c-1.2-2.6-2.2-8.9-3.1-12.1c-0.9-3.2-0.8-7-0.9-10.6c-0.8,0.1-5.4,0.7-5.9-10.1
		c-1.6,3.2-2.8,2.9-5.9,5.3c-3.2,2.4-12.4,7.2-12.7,13.5c0,6.3,3.8,8.2,6.8,10.4c3,2.2,7.4,3.4,10.2,2.4c2.8-1,3.1-0.5,3.8,0.2
		c0,0,1.8,2.4,2.8,3.2C275.5,110,276.9,107.4,276.6,106.7z M265.3,87.2c0.1,3.2-0.1,8.1,0.4,10.2c-0.5,0.4-1.8,1.4-5,0.1
		c-3.2-1.3-6.3-6.4-3.3-9.3c3.7-3.6,7.4-3.7,7.4-3.7C265,85,265.2,86,265.3,87.2z"/>
</g>
</svg>
