<?xml version="1.0" encoding="utf-8"?>
<!-- Generator: Adobe Illustrator 24.0.1, SVG Export Plug-In . SVG Version: 6.00 Build 0)  -->
<svg version="1.1" xmlns="http://www.w3.org/2000/svg" xmlns:xlink="http://www.w3.org/1999/xlink" x="0px" y="0px"
	 viewBox="0 0 500 500" style="enable-background:new 0 0 500 500;" xml:space="preserve">
<style type="text/css">
	.st0{display:none;fill:#F9FBFC;}
	.st1{fill:#F1F2F2;}
	.st2{fill:#EC827D;}
	.st3{fill:#FFC8AF;}
	.st4{fill:#56548C;}
	.st5{fill:#FBD15B;}
	.st6{fill:#606BF1;}
	.st7{fill:#EDB29A;}
	.st8{fill:#E8EAEB;}
	.st9{fill:#BEE1F4;}
	.st10{fill:#A5B7C6;}
	.st11{fill:#E6E7E8;}
	.st12{fill:#112B46;}
</style>
<g id="BACKGROUND">
	<g>
		<rect class="st0" width="500" height="500"/>
		<path class="st1" d="M452.72,428.79H47.28c-2.99,0-5.41-2.42-5.41-5.41l0,0c0-2.99,2.42-5.41,5.41-5.41h405.44
			c2.99,0,5.41,2.42,5.41,5.41l0,0C458.13,426.37,455.71,428.79,452.72,428.79z"/>
		<path class="st1" d="M141.53,131.4c-0.82,0-1.59,0.33-2.13,0.88c-0.55,0.54-0.88,1.31-0.88,2.13c0,0.82,0.33,1.59,0.88,2.13
			c0.53,0.53,1.27,0.85,2.06,0.87l0,0.01l0.15,0c0.84,0,1.6-0.37,2.11-0.91c0.51-0.54,0.82-1.25,0.87-2.02l0-0.04v-0.04
			c0-0.85-0.37-1.63-0.92-2.16C143.11,131.72,142.35,131.4,141.53,131.4z M158.72,103.8c-0.69-1.71-1.96-3.06-3.59-3.9
			c-1.63-0.85-3.59-1.23-5.81-1.23c-2.75,0-5.24,1.04-7.02,2.8c-1.78,1.76-2.84,4.23-2.84,6.97c0,1.06,0.21,2.12,0.54,3.15l0,0
			c0,0,0,0,0,0.01c0.01,0.02,0.01,0.05,0.02,0.07l0,0c0.15,0.49,0.46,0.91,0.85,1.2c0.41,0.3,0.9,0.46,1.42,0.46
			c0.24,0,0.47-0.04,0.71-0.11l0,0.01c0.02-0.01,0.04-0.01,0.06-0.02c0.02-0.01,0.04-0.01,0.06-0.02l0-0.01
			c0.48-0.16,0.89-0.46,1.16-0.84c0.3-0.41,0.46-0.9,0.46-1.42c0-0.25-0.04-0.49-0.12-0.74l0.01,0c-0.18-0.59-0.25-1.21-0.25-1.75
			c0-1.46,0.51-2.66,1.36-3.51c0.85-0.85,2.05-1.39,3.63-1.39c1.87,0,3.15,0.44,3.91,1.09c0.39,0.33,0.67,0.71,0.88,1.2
			c0.21,0.49,0.33,1.1,0.33,1.86c0,0.95-0.17,1.73-0.46,2.43c-0.43,1.04-1.15,1.93-2.11,2.77c-0.95,0.84-2.12,1.61-3.33,2.38
			l0.01-0.01c-1.4,0.88-2.67,1.72-3.81,2.74c-1.14,1.02-2.13,2.23-2.91,3.76l0,0.01l0,0c-0.83,1.66-1.34,3.39-1.57,5.43l0,0.02
			l0,0.02l-0.01,0.22c0,0.6,0.21,1.15,0.57,1.59c0.36,0.44,0.92,0.79,1.6,0.85l0,0l0,0l0.22,0.01c0.6,0,1.17-0.2,1.63-0.59
			c0.46-0.38,0.8-0.97,0.85-1.64l0,0.01c0.12-1.33,0.45-2.49,1.08-3.71c0.55-1.05,1.1-1.72,1.86-2.39c0.76-0.67,1.77-1.33,3.13-2.19
			l0,0l0.01,0c1.85-1.21,3.84-2.51,5.44-4.36c0.79-0.93,1.48-1.99,1.96-3.23c0.48-1.24,0.75-2.64,0.75-4.2
			C159.4,106.21,159.18,104.93,158.72,103.8z"/>
		<path class="st1" d="M220.67,119.81c-0.7,0.42-1.19,1.11-1.37,1.86c-0.18,0.75-0.07,1.58,0.36,2.28c0.43,0.7,1.11,1.18,1.86,1.36
			c0.73,0.18,1.53,0.07,2.21-0.33l0,0.01l0.13-0.07c0.72-0.44,1.17-1.15,1.33-1.88c0.16-0.73,0.06-1.49-0.31-2.17l-0.02-0.04
			l-0.02-0.04c-0.44-0.73-1.16-1.2-1.91-1.36C222.18,119.27,221.37,119.39,220.67,119.81z M220.99,87.3
			c-1.48-1.1-3.26-1.6-5.09-1.47c-1.83,0.12-3.7,0.82-5.6,1.97c-2.35,1.43-3.94,3.62-4.54,6.04c-0.61,2.43-0.23,5.09,1.2,7.43
			c0.55,0.91,1.28,1.7,2.1,2.41l0,0c0,0,0,0,0.01,0c0.02,0.02,0.04,0.03,0.06,0.05l0,0c0.39,0.34,0.87,0.54,1.34,0.58
			c0.5,0.04,1.01-0.07,1.45-0.34c0.2-0.12,0.38-0.28,0.54-0.46l0,0c0.01-0.01,0.02-0.03,0.04-0.05c0.01-0.02,0.03-0.03,0.04-0.04
			l0,0c0.33-0.38,0.52-0.85,0.56-1.32c0.04-0.5-0.07-1.01-0.34-1.45c-0.13-0.21-0.29-0.4-0.49-0.57l0,0
			c-0.46-0.41-0.84-0.91-1.12-1.36c-0.76-1.25-0.94-2.54-0.67-3.7c0.28-1.17,1.03-2.25,2.38-3.08c1.59-0.97,2.92-1.26,3.91-1.11
			c0.5,0.08,0.94,0.26,1.37,0.57c0.43,0.31,0.85,0.77,1.25,1.41c0.49,0.81,0.75,1.57,0.87,2.31c0.17,1.11,0.02,2.25-0.36,3.46
			c-0.37,1.21-0.97,2.47-1.6,3.77l0.01-0.01c-0.73,1.48-1.38,2.86-1.83,4.32c-0.44,1.46-0.66,3.02-0.53,4.72l0,0.01l0,0
			c0.15,1.85,0.62,3.59,1.49,5.46l0.01,0.02l0.01,0.02l0.1,0.19c0.32,0.51,0.78,0.87,1.32,1.06c0.53,0.19,1.19,0.2,1.81-0.1l0,0l0,0
			l0.19-0.1c0.51-0.31,0.89-0.78,1.08-1.35c0.19-0.56,0.17-1.25-0.13-1.84l0,0.01c-0.59-1.2-0.91-2.36-1.01-3.73
			c-0.08-1.18,0.04-2.04,0.35-3.01c0.3-0.97,0.82-2.06,1.53-3.5l0,0l0-0.01c0.95-2,1.97-4.15,2.37-6.56c0.2-1.2,0.23-2.47-0.01-3.78
			c-0.23-1.31-0.73-2.64-1.54-3.97C222.82,89,221.97,88.03,220.99,87.3z"/>
		<path class="st1" d="M378.74,128.55c-0.7,0.42-1.19,1.11-1.37,1.86c-0.18,0.75-0.07,1.58,0.36,2.28c0.43,0.7,1.11,1.18,1.86,1.36
			c0.73,0.18,1.53,0.07,2.21-0.33l0,0l0.13-0.07c0.72-0.44,1.17-1.15,1.33-1.88c0.16-0.73,0.06-1.49-0.31-2.17l-0.02-0.04
			l-0.02-0.04c-0.44-0.73-1.16-1.2-1.91-1.36C380.25,128,379.44,128.12,378.74,128.55z M379.05,96.04c-1.48-1.1-3.26-1.6-5.09-1.47
			c-1.83,0.12-3.7,0.82-5.6,1.97c-2.35,1.43-3.94,3.62-4.54,6.04c-0.61,2.43-0.23,5.09,1.2,7.43c0.55,0.91,1.28,1.7,2.1,2.41l0,0
			c0,0,0,0,0.01,0c0.02,0.02,0.04,0.04,0.06,0.05l0,0c0.39,0.34,0.87,0.54,1.34,0.58c0.5,0.04,1.01-0.07,1.45-0.34
			c0.2-0.12,0.38-0.28,0.54-0.47l0,0c0.01-0.01,0.02-0.03,0.04-0.05c0.01-0.02,0.03-0.03,0.04-0.04l0,0
			c0.33-0.38,0.52-0.85,0.56-1.32c0.04-0.5-0.07-1.01-0.34-1.45c-0.13-0.21-0.29-0.4-0.49-0.57l0,0c-0.46-0.41-0.84-0.91-1.12-1.36
			c-0.76-1.25-0.94-2.54-0.67-3.7c0.28-1.17,1.03-2.25,2.38-3.08c1.59-0.97,2.92-1.26,3.91-1.11c0.5,0.08,0.94,0.26,1.37,0.57
			c0.43,0.31,0.85,0.77,1.25,1.41c0.49,0.81,0.75,1.57,0.87,2.31c0.17,1.12,0.02,2.25-0.36,3.46c-0.37,1.21-0.97,2.47-1.6,3.77
			l0.01-0.01c-0.73,1.48-1.38,2.86-1.83,4.32c-0.44,1.46-0.66,3.02-0.53,4.72l0,0.01l0,0c0.15,1.85,0.62,3.59,1.49,5.46l0.01,0.02
			l0.01,0.02l0.1,0.19c0.32,0.51,0.78,0.87,1.32,1.06c0.53,0.19,1.19,0.2,1.81-0.1l0,0l0,0l0.19-0.1c0.51-0.31,0.89-0.78,1.08-1.35
			c0.19-0.56,0.17-1.25-0.13-1.84l0,0.01c-0.59-1.2-0.91-2.36-1.01-3.73c-0.08-1.18,0.04-2.04,0.35-3.01
			c0.3-0.97,0.82-2.06,1.53-3.5l0,0l0-0.01c0.95-2,1.97-4.15,2.37-6.56c0.2-1.2,0.23-2.47-0.01-3.78c-0.23-1.31-0.73-2.64-1.54-3.97
			C380.89,97.74,380.04,96.77,379.05,96.04z"/>
		<path class="st1" d="M59.51,134.76c-0.74,0.34-1.3,0.97-1.57,1.69c-0.27,0.72-0.25,1.56,0.1,2.31c0.34,0.74,0.97,1.3,1.69,1.57
			c0.7,0.26,1.51,0.24,2.23-0.08l0,0.01l0.14-0.06c0.76-0.35,1.3-1.01,1.53-1.72c0.24-0.71,0.22-1.48-0.06-2.2l-0.02-0.04
			l-0.02-0.04c-0.36-0.77-1.02-1.32-1.74-1.57C61.08,134.39,60.26,134.41,59.51,134.76z M63.5,102.49c-1.34-1.26-3.06-1.96-4.9-2.03
			c-1.84-0.08-3.77,0.39-5.79,1.33c-2.5,1.16-4.32,3.15-5.19,5.49c-0.88,2.34-0.8,5.03,0.35,7.52c0.45,0.96,1.08,1.84,1.82,2.63l0,0
			c0,0,0,0,0,0c0.02,0.02,0.03,0.04,0.05,0.06l0,0c0.35,0.38,0.8,0.64,1.27,0.73c0.5,0.1,1.01,0.04,1.48-0.17
			c0.21-0.1,0.41-0.24,0.59-0.4l0,0c0.02-0.01,0.03-0.03,0.04-0.04c0.01-0.01,0.03-0.02,0.05-0.04l0,0c0.37-0.34,0.61-0.79,0.7-1.25
			c0.1-0.5,0.04-1.01-0.17-1.48c-0.1-0.22-0.25-0.43-0.42-0.62l0,0c-0.41-0.46-0.74-1-0.96-1.48c-0.61-1.33-0.65-2.63-0.24-3.76
			c0.41-1.13,1.28-2.12,2.71-2.79c1.69-0.79,3.05-0.92,4.01-0.66c0.49,0.13,0.91,0.36,1.3,0.72c0.39,0.36,0.76,0.86,1.08,1.55
			c0.4,0.86,0.57,1.64,0.61,2.4c0.05,1.13-0.23,2.24-0.74,3.4c-0.51,1.16-1.24,2.35-2.02,3.56l0.01-0.01
			c-0.9,1.38-1.7,2.68-2.3,4.09c-0.61,1.4-1,2.92-1.06,4.63l0,0.01v0c-0.06,1.86,0.21,3.63,0.86,5.59l0.01,0.02l0.01,0.02l0.08,0.2
			c0.26,0.55,0.67,0.95,1.19,1.2c0.51,0.24,1.16,0.33,1.81,0.1l0,0l0,0l0.2-0.08c0.54-0.25,0.97-0.68,1.23-1.22
			c0.26-0.54,0.31-1.22,0.08-1.84l0,0.01c-0.45-1.26-0.63-2.45-0.58-3.82c0.06-1.18,0.27-2.02,0.68-2.95
			c0.41-0.93,1.05-1.95,1.91-3.3l0,0l0-0.01c1.17-1.88,2.43-3.9,3.1-6.25c0.33-1.17,0.51-2.43,0.42-3.76
			c-0.08-1.33-0.43-2.71-1.08-4.12C65.13,104.39,64.4,103.33,63.5,102.49z"/>
		<path class="st1" d="M92.15,82.81c-0.54-0.07-1.08,0.09-1.48,0.41c-0.4,0.32-0.68,0.8-0.75,1.34c-0.07,0.54,0.09,1.07,0.41,1.48
			c0.31,0.39,0.77,0.66,1.29,0.74l0,0l0.1,0.01c0.56,0.07,1.09-0.12,1.47-0.44c0.38-0.32,0.64-0.76,0.73-1.26l0-0.03l0-0.03
			c0.07-0.56-0.11-1.1-0.44-1.5C93.17,83.15,92.69,82.88,92.15,82.81z M105.66,65.94c-0.32-1.18-1.05-2.18-2.06-2.86
			c-1.01-0.69-2.27-1.09-3.74-1.27c-1.82-0.22-3.54,0.28-4.85,1.3c-1.31,1.02-2.21,2.57-2.42,4.38c-0.08,0.7-0.03,1.41,0.11,2.12
			l0,0c0,0,0,0,0,0c0,0.02,0.01,0.03,0.01,0.05l0,0c0.06,0.34,0.23,0.64,0.46,0.86c0.25,0.23,0.56,0.38,0.9,0.42
			c0.16,0.02,0.32,0.01,0.48-0.02l0,0c0.01,0,0.03-0.01,0.04-0.01c0.01,0,0.03,0,0.04-0.01l0,0c0.33-0.07,0.62-0.23,0.83-0.46
			c0.23-0.25,0.38-0.56,0.42-0.9c0.02-0.16,0.01-0.33-0.02-0.5l0,0c-0.07-0.41-0.07-0.82-0.03-1.17c0.12-0.97,0.55-1.71,1.17-2.21
			c0.63-0.49,1.46-0.75,2.51-0.63c1.23,0.15,2.05,0.54,2.5,1.03c0.23,0.25,0.39,0.52,0.49,0.86c0.1,0.34,0.13,0.75,0.07,1.25
			c-0.08,0.63-0.25,1.13-0.49,1.57c-0.37,0.65-0.91,1.18-1.61,1.66c-0.69,0.48-1.52,0.89-2.38,1.31l0.01,0
			c-0.99,0.47-1.9,0.93-2.73,1.51c-0.83,0.58-1.58,1.31-2.22,2.25l0,0l0,0c-0.68,1.03-1.15,2.13-1.46,3.46l0,0.01l0,0.01l-0.02,0.14
			c-0.05,0.4,0.05,0.77,0.25,1.09c0.2,0.32,0.54,0.59,0.99,0.69l0,0l0,0l0.14,0.02c0.39,0.05,0.79-0.04,1.12-0.26
			c0.33-0.21,0.6-0.58,0.69-1.01l0,0.01c0.18-0.87,0.5-1.61,1.01-2.36c0.44-0.65,0.86-1.05,1.42-1.43c0.56-0.38,1.27-0.74,2.24-1.2
			l0,0l0,0c1.32-0.65,2.73-1.36,3.93-2.46c0.6-0.55,1.13-1.2,1.55-1.98c0.41-0.78,0.7-1.68,0.82-2.71
			C105.92,67.58,105.88,66.72,105.66,65.94z"/>
		<path class="st1" d="M273.58,91.32c-0.54-0.07-1.08,0.09-1.48,0.41c-0.4,0.32-0.68,0.8-0.75,1.34c-0.07,0.54,0.09,1.07,0.41,1.48
			c0.31,0.39,0.77,0.66,1.29,0.74l0,0l0.1,0.01c0.56,0.07,1.09-0.12,1.47-0.44c0.38-0.32,0.64-0.76,0.73-1.26l0-0.03l0-0.03
			c0.07-0.56-0.11-1.1-0.44-1.5C274.6,91.66,274.12,91.39,273.58,91.32z M287.09,74.45c-0.32-1.18-1.05-2.18-2.06-2.86
			c-1.01-0.69-2.27-1.09-3.74-1.27c-1.82-0.22-3.54,0.28-4.85,1.3c-1.31,1.02-2.21,2.57-2.42,4.38c-0.08,0.7-0.03,1.42,0.11,2.12h0
			c0,0,0,0,0,0c0,0.02,0.01,0.03,0.01,0.05l0,0c0.06,0.34,0.23,0.64,0.46,0.86c0.25,0.23,0.56,0.38,0.9,0.42
			c0.16,0.02,0.32,0.01,0.48-0.02l0,0c0.01,0,0.03-0.01,0.04-0.01c0.01,0,0.03,0,0.04-0.01l0,0c0.33-0.07,0.62-0.23,0.83-0.46
			c0.23-0.25,0.38-0.56,0.42-0.9c0.02-0.16,0.01-0.33-0.02-0.5l0,0c-0.07-0.41-0.07-0.82-0.03-1.17c0.12-0.97,0.55-1.71,1.17-2.21
			c0.63-0.49,1.46-0.75,2.51-0.63c1.23,0.15,2.05,0.54,2.5,1.03c0.23,0.25,0.39,0.52,0.49,0.86c0.1,0.34,0.13,0.75,0.07,1.25
			c-0.08,0.63-0.25,1.13-0.49,1.57c-0.37,0.65-0.91,1.18-1.61,1.66c-0.69,0.48-1.52,0.89-2.38,1.31l0.01,0
			c-0.99,0.47-1.9,0.93-2.73,1.51c-0.83,0.58-1.58,1.31-2.22,2.25l0,0l0,0c-0.68,1.03-1.15,2.13-1.46,3.46l0,0.01l0,0.01l-0.02,0.14
			c-0.05,0.4,0.05,0.77,0.25,1.09c0.2,0.32,0.54,0.59,0.99,0.69l0,0l0,0l0.14,0.02c0.39,0.05,0.79-0.04,1.12-0.26
			c0.33-0.21,0.6-0.58,0.69-1.01l0,0.01c0.18-0.87,0.5-1.61,1.01-2.36c0.44-0.65,0.86-1.05,1.42-1.43c0.56-0.38,1.27-0.74,2.24-1.2
			l0,0l0,0c1.32-0.65,2.73-1.36,3.93-2.45c0.6-0.55,1.13-1.2,1.55-1.98c0.41-0.78,0.7-1.68,0.82-2.71
			C287.35,76.09,287.31,75.24,287.09,74.45z"/>
		<path class="st1" d="M440.91,125.31c-0.54-0.07-1.08,0.09-1.48,0.41c-0.4,0.32-0.68,0.8-0.75,1.34c-0.07,0.54,0.09,1.07,0.41,1.48
			c0.31,0.39,0.77,0.66,1.29,0.74l0,0l0.1,0.01c0.56,0.07,1.09-0.12,1.47-0.44c0.38-0.32,0.64-0.76,0.73-1.26l0-0.03l0-0.03
			c0.07-0.56-0.11-1.1-0.44-1.5C441.92,125.65,441.45,125.38,440.91,125.31z M454.42,108.44c-0.32-1.18-1.05-2.18-2.06-2.86
			c-1.01-0.69-2.27-1.09-3.74-1.27c-1.82-0.22-3.54,0.28-4.85,1.3c-1.31,1.02-2.21,2.57-2.42,4.38c-0.08,0.7-0.03,1.42,0.11,2.12h0
			c0,0,0,0,0,0c0,0.02,0.01,0.03,0.01,0.05l0,0c0.06,0.34,0.23,0.64,0.46,0.86c0.25,0.23,0.56,0.38,0.9,0.42
			c0.16,0.02,0.32,0.01,0.48-0.02l0,0c0.01,0,0.03-0.01,0.04-0.01c0.01,0,0.03,0,0.04-0.01l0,0c0.33-0.07,0.62-0.23,0.83-0.46
			c0.23-0.25,0.38-0.56,0.42-0.9c0.02-0.16,0.01-0.33-0.02-0.5l0,0c-0.07-0.41-0.07-0.82-0.03-1.17c0.12-0.97,0.55-1.71,1.17-2.21
			c0.63-0.49,1.46-0.75,2.51-0.63c1.23,0.15,2.05,0.54,2.5,1.03c0.23,0.25,0.39,0.52,0.49,0.86c0.1,0.34,0.13,0.75,0.07,1.25
			c-0.08,0.63-0.25,1.13-0.49,1.57c-0.37,0.65-0.91,1.18-1.61,1.66c-0.69,0.48-1.52,0.89-2.38,1.31l0.01,0
			c-0.99,0.47-1.9,0.93-2.73,1.51c-0.83,0.58-1.58,1.31-2.22,2.25l0,0l0,0c-0.68,1.03-1.15,2.13-1.46,3.46l0,0.01l0,0.01l-0.02,0.14
			c-0.05,0.4,0.05,0.77,0.25,1.09c0.2,0.32,0.54,0.59,0.99,0.69l0,0l0,0l0.14,0.02c0.39,0.05,0.79-0.04,1.12-0.26
			c0.33-0.21,0.6-0.58,0.69-1.01l0,0.01c0.18-0.87,0.5-1.61,1.01-2.36c0.44-0.65,0.86-1.05,1.42-1.43c0.56-0.38,1.27-0.74,2.24-1.2
			l0,0l0,0c1.32-0.65,2.73-1.36,3.93-2.45c0.6-0.55,1.13-1.2,1.55-1.98c0.41-0.78,0.7-1.68,0.82-2.71
			C454.68,110.08,454.63,109.22,454.42,108.44z"/>
	</g>
</g>
<g id="OBJECTS">
	<g>
		<path class="st2" d="M335.42,108.49c-1.62-7.12-7.27-12.76-14.38-14.38c-5.91-1.35-11.97,0.01-16.62,3.72
			c-4.65,3.71-7.32,9.24-7.32,15.19c0,2.2,1.78,3.98,3.98,3.98c2.2,0,3.98-1.78,3.98-3.98c0-3.51,1.58-6.78,4.32-8.97
			c2.79-2.22,6.3-3,9.89-2.18c4.15,0.95,7.45,4.24,8.4,8.4c0.91,3.98-0.16,7.9-2.94,10.75c-7.86,8.07-12.19,18.2-12.19,28.53v2.69
			c0,2.2,1.78,3.98,3.98,3.98c2.2,0,3.98-1.78,3.98-3.98v-2.69c0-8.25,3.53-16.41,9.93-22.98
			C335.05,121.81,336.92,115.06,335.42,108.49z M317.12,160.03c-2.35,0-4.25,1.9-4.25,4.26c0,2.35,1.9,4.25,4.25,4.25
			c2.35,0,4.26-1.9,4.26-4.25C321.37,161.93,319.47,160.03,317.12,160.03z"/>
		<g>
			<path class="st1" d="M316.52,156.21c0.96,0,1.84-0.36,2.53-0.93c-2.11-0.1-3.8-1.82-3.8-3.96v-2.69
				c0-10.33,4.33-20.46,12.19-28.53c2.77-2.85,3.84-6.76,2.94-10.75c-0.95-4.15-4.24-7.45-8.4-8.4c-2.72-0.62-5.4-0.32-7.75,0.83
				c1.62-0.33,3.32-0.31,5.04,0.08c4.15,0.95,7.45,4.24,8.4,8.4c0.91,3.98-0.16,7.9-2.94,10.75c-7.86,8.07-12.19,18.2-12.19,28.53
				v2.69C312.54,154.43,314.32,156.21,316.52,156.21z"/>
			<path class="st1" d="M299.81,112.1c0-5.94,2.67-11.48,7.32-15.19c1.4-1.11,2.93-2.01,4.54-2.69c-2.61,0.67-5.08,1.88-7.24,3.6
				c-4.65,3.71-7.32,9.24-7.32,15.19c0,2.2,1.78,3.98,3.98,3.98c0.96,0,1.84-0.36,2.53-0.93
				C301.49,115.96,299.81,114.24,299.81,112.1z"/>
			<path class="st1" d="M315.57,163.37c0-1.36,0.65-2.56,1.64-3.34c-0.03,0-0.06-0.01-0.09-0.01c-2.35,0-4.25,1.9-4.25,4.26
				c0,2.35,1.9,4.25,4.25,4.25c0.99,0,1.89-0.35,2.61-0.92C317.42,167.57,315.57,165.69,315.57,163.37z"/>
		</g>
		<path class="st3" d="M236.49,414.97c0.54-0.33,1.17-0.49,1.81-0.44l3.65-0.36l-3.34-5.02l0.56-21.26h-13.3
			c0.48,17.64,0.77,22.6,0.9,27.34h0.01l4.55,1.11c0.82,0.2,1.69,0.06,2.41-0.38L236.49,414.97z"/>
		<path class="st4" d="M226.78,415.23h-0.01c0.06,2.01,0.1,3.97,0.1,5.89h17.71c0.63,0,1.08-0.52,1.08-1.08
			c0-0.2-0.05-0.41-0.18-0.59l-3.52-5.28l-4.13,0c-0.63-0.05-1.27,0.11-1.81,0.44l-2.28,1.34c-0.72,0.44-1.59,0.58-2.41,0.38
			L226.78,415.23z"/>
		<path class="st3" d="M263.04,414.17l11.11,2.09c1.98,0.37,3.99-0.44,5.16-2.09l0.01-0.01l-5.24-4.11
			c0.32-3.41,1.07-20.02,1.07-20.02h-12.92L263.04,414.17z"/>
		<path class="st4" d="M263.04,414.17l0.09,5.84l0.01,1.11h21.91c1.02,0,1.46-1.29,0.67-1.92l-6.4-5.03l-0.01,0.01
			c-1.17,1.64-3.18,2.45-5.16,2.09L263.04,414.17z"/>
		<path class="st3" d="M219.19,237.05l-6.1,4.55c0,0-1.12,1.37-0.63,3.79c0.49,2.41,2.63,4.69,2.63,4.69s-4.63,0.1-4.53,1.41
			c0.1,1.34,6.16,2.86,10.73,2.47c0.72-5.29,1.64-9.21,2.71-13.14L219.19,237.05z"/>
		<path class="st3" d="M313.1,182.16c0,0-14.4,49.52-23.29,48.84c-0.14-0.02-0.29-0.03-0.41-0.06c-7.4-1.05-13.38-15.18-16.54-24.55
			c0.25-1.56,0.59-3.12,1.02-4.68c3.13-11.34,5.28-17.59,0-28.16l8.4-5.2c0.02-0.02,0.02-0.02,0.02-0.02l8.81,42.08
			c0,0,15.32-33.85,17.07-35.84c2.62-3.02,6.57-1.71,9.32-2.41c2.74-0.73,9.43-3.6,10.88-1.71
			C330.05,172.66,313.1,182.16,313.1,182.16z"/>
		<path class="st5" d="M282.28,168.34l-8.42,5.22c5.28,10.56,3.13,16.81,0,28.16c-0.43,1.56-0.76,3.12-1.02,4.68
			c-1.69,9.72-0.46,18.6-0.46,18.6h-43.03l-9.85-43.06l-9,6l-0.73-1.26l-0.67-1.13l-8.4-14.37l-0.65-1.13c0,0,8.02-8.3,19.17-14.37
			c6.12-3.32,13.2-5.98,20.43-6.22c1.16,4.09,4.93,7.06,9.39,7.06c4.47,0,8.24-2.99,9.4-7.06c10.02,0.24,16.37,4.33,20.25,8.49
			c4.22,4.53,5.55,9.16,5.55,9.16L282.28,168.34z"/>
		<path class="st4" d="M282.9,276.59c0,25.83-5,78.67-6.35,115.75h-15.18l-6.27-125.16h-6.44l-8.32,125.16h-15.19
			c-1.34-37.08-6.35-89.91-6.35-115.75c0-6.33,0.48-12.3,1.23-17.79c0.91-6.68,2.24-12.63,3.6-17.59
			c2.78-10.15,5.73-16.23,5.73-16.23h43.03C272.39,224.99,282.9,246.75,282.9,276.59z"/>
		<path class="st6" d="M279.09,154.87c0.01,1.11-0.15,2.14-0.41,3.08c-3.88-4.18-10.23-8.25-20.25-8.51
			c-1.46-1.77-1.61-4.72-1.61-4.72c5.92,0.04,9.62-2.64,9.63-2.31c8.1-16.72,0-31.86,0-31.86s-0.66,6.43-8.8,10.79
			c-4.46,2.38-5.89,7.86-5.89,7.86s-1.22-5.11-4.64-4.82c-3.41,0.28-2.27,7.29-2.27,7.29l2.55,3.32
			c1.33,10.99-7.76,14.46-7.76,14.46c-7.23,0.25-14.31,2.9-20.43,6.22c0.21-2.38,0.9-5.16,2.82-7.48c2.2-2.66,4.02-2.35,5.46-4.85
			c2.3-3.98-4.47-7.16-2.79-11.99c1.54-4.43,3.71-4.51,6.02-8.99c2.84-5.53,0.12-8.2,1.87-13.62c2.23-6.85,15.25-11.05,23.58-10.77
			c10.16,0.34,19.94,7.83,20.64,15.02c0.34,3.59-1.77,5.2-0.76,9.86c1.09,5.14,4.15,5.46,4.4,9.4c0.34,5.38-5.21,6.6-5.02,12.15
			C275.61,148.72,279.05,149.87,279.09,154.87z"/>
		<path class="st3" d="M190.7,210.29c-0.76-0.72-1.16-1.64-1.21-2.59c-0.06-1.03,0.29-2.08,1.07-2.88l18.55-19.28l-8.38-14.33
			c-0.02-0.02-0.02-0.03-0.02-0.03c-6.33,6.54-29.21,30.77-27.63,37.81c1.86,8.19,39.69,33.8,39.69,33.8l6.43-5.74L190.7,210.29z"/>
		<path class="st3" d="M266.45,142.41c0,0-0.03,0.38-1.07,0.86c0,0,0,0-0.02,0.02c-1.03,0.49-3.09,1.11-7.1,1.56
			c0,0-0.14,3.53,0.16,4.61c-1.16,4.07-4.93,7.06-9.4,7.06c-4.45,0-8.22-2.97-9.39-7.06c0,0,7.24-2.78,7.84-11.18v-0.02
			c0.08-1,0.06-2.08-0.08-3.26c0,0-1.91-0.22-2.55-3.32c-0.4-1.88-1.15-7.02,2.27-7.29c3.4-0.3,4.63,4.82,4.63,4.82
			s1.43-5.49,5.89-7.86c8.14-4.36,8.8-10.8,8.8-10.8S274.55,125.7,266.45,142.41z"/>
		<path class="st7" d="M249.84,134.99c0,0-0.95,2.05-2.35,3.26c0.08-1,0.06-2.08-0.08-3.26
			C247.41,134.99,248.84,135.33,249.84,134.99z"/>
		<path class="st7" d="M258.44,149.45c-2.31-0.38-3.9-5.23-3.9-5.23c4.17,0.48,8.54-0.37,10.83-0.94c-1.03,0.49-3.09,1.11-7.1,1.56
			C258.28,144.84,258.13,148.37,258.44,149.45z"/>
		<path class="st7" d="M209.1,185.53l-18.55,19.28c-0.78,0.8-1.13,1.85-1.07,2.88c-0.48-0.86-0.7-1.77-0.3-2.51
			c1.21-2.24,17.09-19.04,17.18-19.69c0.1-0.64-5.31-13.49-5.65-14.29L209.1,185.53z"/>
		<path class="st7" d="M289.39,230.94c-7.4-1.05-13.38-15.18-16.54-24.55c0.25-1.56,0.59-3.12,1.02-4.68
			c3.13-11.34,5.28-17.59,0-28.16l8.4-5.2c-0.37,0.32-6.08,5.39-6.35,5.93c-0.29,0.56,1.5,4.57,2.05,14.29
			C278.51,198.07,279.86,220.45,289.39,230.94z"/>
		<path class="st1" d="M236.34,214.1c0.11,2.66,0.24,6.44-0.02,10.88c-0.33,5.82-1.3,12.79-3.77,19.79
			c-4.34,12.31-6.59,46.77-4.06,71.13c1.85,17.83,1.96,56.81,1.88,76.44h-5.22c-1.34-37.08-6.35-89.91-6.35-115.75
			c0-6.33,0.48-12.3,1.23-17.79c0.91-6.68,2.24-12.63,3.6-17.59c2.78-10.15,5.73-16.23,5.73-16.23l-9.85-43.06l-9,6l-0.73-1.26
			l13.86-11.63c0,0,4.72,14.51,6.97,18.06c2.24,3.55,11.55,7.44,11.55,7.44S236.05,207.93,236.34,214.1z"/>
	</g>
	<g>
		<path class="st6" d="M446.44,190.26l-18.47-5.62c-1.18,2.36-2.97,5.92-6,5.6c-0.11-0.01-0.22-0.07-0.34-0.16
			c-3.54-2.64-10.55-38.45-12.46-48.51c2.07,0.82,4.86,1.21,8.26,0.09c2.68-0.88,4.47-2.49,5.61-4.58h13.68
			c10.75,0.7,15.84,2.36,18.31,8.07C458.55,153.29,455.6,170.11,446.44,190.26z"/>
		<path class="st6" d="M436.72,406.22v14.9h-26.41c-1.92,0-3.18-1.56-3.18-3.19c0-0.1,0-0.19,0.01-0.29
			c0.07-0.71,0.38-1.42,0.98-1.98l9.86-9.43H436.72z"/>
		<path class="st4" d="M436.72,263.29v142.93h-18.75c0,0-8.67-111.96-10.67-137.68c-1.72,0-4.06,0-4.06,0v137.68h-18.74
			l-11.08-142.93H436.72z"/>
		<path class="st6" d="M442.24,191.74v71.55h-68.8l2.54-85.8l-12.48,9.22l-2.15-1.95l-0.38-0.34l-15.51-14.05l-0.73-0.88l18.54-20.8
			c9.89-8.82,20.11-10.91,33.28-11.54c0.67,2.08,1.66,4.05,2.82,5.34c2.71,3.06,2.65,26.96,3.67,34.82
			c1.95,14.9,8.43,31.69,17.25,32.75c1.57,0.2,3.22-0.11,4.91-1.01C430.05,206.5,433.83,194.81,442.24,191.74z"/>
		<path class="st8" d="M442.24,191.74v71.55h-21.96v-53.22c1.57,0.2,3.22-0.11,4.91-1.01C430.05,206.5,433.83,194.81,442.24,191.74z
			"/>
		<path class="st4" d="M438.67,96.9c0,6.98-4.66,20.38-13.47,28.43c0-2.64-0.13-5.31-0.13-7.75l1.97-1.81
			c1.43-1.34,2.08-3.34,1.67-5.27c-0.32-1.48-1.02-2.9-2.45-3.02c-3.12-0.3-2.85,7.86-5.3,8.53c-2.47,0.68,0-9.02,0-9.02l-2.27-3.1
			c0.05-0.3,0.06-0.6,0.06-0.91c0-3.23-2.32-6.05-5.58-6.63c-3.64-0.65-8.18-1.59-11.84-2.74c-1.67-0.51-3.15-1.07-4.28-1.65
			c-6.11-3.2-3.39-11.72,0.4-12.9c3.79-1.16,9.7,4.28,13.78,3.4c4.07-0.87,8.14-1.85,11.06-0.87c2.91,0.97,2.61,5.42,6.2,6.7
			C432.06,89.53,438.67,89.91,438.67,96.9z"/>
		<path class="st3" d="M427.04,115.76l-1.97,1.81c0,2.43,0.13,5.11,0.13,7.75c0,4.31,0.32,12.74,0.32,12.74s-2.94,3.01-7.22,3.77
			c-2.2,0.4-4.39,0.51-6.24,0.33c-1.11-0.1-2.1-0.29-2.88-0.6c-0.32-1.67-0.49-2.62-0.49-2.62s1.54-14.48,1.54-15
			c0-0.38-1.69-3.98-5.82-5.79c-0.03,0-0.05-0.02-0.08-0.03c-0.46-0.19-0.95-0.37-1.5-0.51c-0.05-0.02-0.08-0.03-0.13-0.05
			c-1-0.25-2.12-0.41-3.34-0.41c-0.59,0-1.13,0.06-1.64,0.17c-0.94-10.85,2.13-20.03,3.61-23.72c3.66,1.15,8.19,2.08,11.84,2.74
			c3.26,0.59,5.58,3.4,5.58,6.63c0,0.3-0.02,0.6-0.06,0.91l2.27,3.1c0,0-2.47,9.7,0,9.02c2.45-0.67,2.18-8.83,5.3-8.53
			c1.43,0.13,2.13,1.54,2.45,3.02C429.12,112.42,428.47,114.43,427.04,115.76z"/>
		<path class="st6" d="M403.25,406.22v14.9h-26.39c-2.03,0-3.33-1.75-3.17-3.48c0.07-0.71,0.37-1.41,0.98-1.98l9.84-9.43H403.25z"/>
		<path class="st3" d="M374.81,217.08l-0.52,17.52c-4.41,1.18-8.96-0.24-9.24-1.26c-0.3-1.02,5.39-2.34,5.09-3.64
			c-0.16-0.73-2.72-0.65-4.98-0.45c-2,0.19-3.93-0.75-4.96-2.43c-0.06-0.08-0.1-0.14-0.14-0.22l-1.13-2c0,0-1.73-1.38-4.37-3.6
			c-3.96-3.31-9.97-8.48-15.26-13.59c0.1-3.36,1.65-6.49,4.3-8.61c1.69-1.34,3.63-2.15,5.7-2.39c2.22,2.89,6.71,11.18,11.92,16.07
			c0.97,0.76,2.04,1.57,3.17,2.39c0,0,2.18-0.83,4.65-0.57C370.53,214.46,373.52,215.63,374.81,217.08z"/>
		<path class="st3" d="M358.9,182.54l-2.16,2.07l-4.02,3.87c-5.07-0.51-10.1,0.92-14.08,4.1c-2.69,2.15-4.69,4.88-5.93,7.95
			c-1.77-2.04-3.12-3.9-3.85-5.39c-3.07-6.32,14.02-22.37,16.34-24.53c0.18-0.16,0.27-0.24,0.27-0.24L358.9,182.54z"/>
		<path class="st2" d="M358.92,224.59c0,0-1.73-1.38-4.37-3.6c-5.06,7.02-7.79,15.1-7.79,23.31v2.69c0,2.2,1.78,3.98,3.98,3.98
			s3.98-1.78,3.98-3.98v-2.69c0-6.08,1.92-12.11,5.49-17.48c-0.06-0.08-0.1-0.14-0.14-0.22L358.92,224.59z M369.63,203.26
			c-1.59-6.97-7.05-12.54-13.95-14.27c-0.14-0.05-0.29-0.08-0.43-0.11c-5.9-1.35-11.96,0-16.61,3.71c-2.69,2.15-4.69,4.88-5.93,7.95
			c-0.91,2.27-1.38,4.72-1.38,7.24c0,2.2,1.78,3.98,3.98,3.98c2.2,0,3.98-1.78,3.98-3.98c0-0.13,0-0.24,0.02-0.37
			c0.1-3.36,1.65-6.49,4.3-8.61c1.69-1.34,3.63-2.15,5.7-2.39c1.35-0.19,2.77-0.11,4.2,0.21c4.15,0.95,7.45,4.25,8.4,8.4
			c0.59,2.61,0.33,5.2-0.68,7.46c0.97,0.76,2.04,1.57,3.17,2.39c0,0,2.18-0.83,4.65-0.57C370.23,210.83,370.48,207.01,369.63,203.26
			z M351.33,254.78c-2.35,0-4.26,1.91-4.26,4.26s1.91,4.25,4.26,4.25s4.25-1.89,4.25-4.25S353.69,254.78,351.33,254.78z"/>
		<g>
			<path class="st1" d="M351.33,254.78c-0.1,0-0.19,0.02-0.28,0.03c1.03,0.78,1.7,2,1.7,3.39c0,2.26-1.75,4.08-3.97,4.22
				c0.71,0.54,1.6,0.87,2.56,0.87c2.35,0,4.25-1.89,4.25-4.25S353.69,254.78,351.33,254.78z"/>
			<path class="st1" d="M352.63,196.47c-0.64-0.28-1.3-0.53-1.99-0.69c-1.43-0.32-2.85-0.4-4.2-0.21c-2.07,0.24-4.01,1.05-5.7,2.39
				c-2.64,2.12-4.2,5.25-4.3,8.61c-0.02,0.13-0.02,0.24-0.02,0.37c0,2.07-1.59,3.75-3.61,3.94c0.68,0.54,1.53,0.88,2.46,0.88
				c2.2,0,3.98-1.78,3.98-3.98c0-0.13,0-0.24,0.02-0.37c0.1-3.36,1.65-6.49,4.3-8.61c1.69-1.34,3.63-2.15,5.7-2.39
				C350.36,196.26,351.49,196.29,352.63,196.47z"/>
			<path class="st1" d="M369.63,203.26c-1.59-6.97-7.05-12.54-13.95-14.27c-0.14-0.05-0.29-0.08-0.43-0.11
				c-0.11-0.02-0.22-0.04-0.32-0.06c5.9,2.24,10.44,7.35,11.87,13.6c0.86,3.75,0.6,7.57-0.62,11.04c-1.32-0.14-2.55,0.04-3.42,0.23
				c0.52,0.39,1.05,0.79,1.61,1.18c0,0,2.18-0.83,4.65-0.57C370.23,210.83,370.48,207.01,369.63,203.26z"/>
			<path class="st1" d="M358.92,224.59c0,0-1.73-1.38-4.37-3.6c-0.23,0.32-0.45,0.64-0.67,0.96c1.37,1.13,2.21,1.8,2.21,1.8l1.13,2
				c0.05,0.08,0.08,0.14,0.14,0.22c-3.56,5.38-5.49,11.41-5.49,17.48v2.69c0,2.07-1.59,3.75-3.61,3.94
				c0.68,0.54,1.53,0.88,2.46,0.88c2.2,0,3.98-1.78,3.98-3.98v-2.69c0-6.08,1.92-12.11,5.49-17.48c-0.06-0.08-0.1-0.14-0.14-0.22
				L358.92,224.59z"/>
		</g>
		<path class="st7" d="M412.05,142.17c-1.11-0.1-2.1-0.29-2.88-0.6c-0.32-1.67-0.49-2.62-0.49-2.62s1.54-14.48,1.54-15
			c0-0.38-1.69-3.98-5.82-5.79c3.83,1.45,6.73,3.25,8.02,5.2C413.5,125,412.59,136.36,412.05,142.17z"/>
		<path class="st7" d="M358.9,182.54l-2.16,2.07c-2.21-2.67-7.87-9.54-11.55-14c0.18-0.16,0.27-0.24,0.27-0.24L358.9,182.54z"/>
		<path class="st3" d="M444.19,189.57c-0.26,0.54-0.58,1.16-0.96,1.87c-1.31,2.38-3.39,5.59-6.51,8.87
			c-2.89,3.07-6.67,6.19-11.53,8.75c-11.3,5.96-21.69-12.85-23.98-30.39c-1.02-7.86,0.85-33.12-1.85-36.18
			c-1.15-1.3-2.15-3.26-2.82-5.34c-0.92-2.77-1.24-5.75-0.55-7.67c0.57-1.55,2.27-4.8,0.57-5.47c-1.7-0.67-2.21,4.38-4.58,3.77
			c-1.16-0.29-0.55-9.15,5.74-10.47c0.51-0.11,1.05-0.18,1.64-0.18c7.84,0,10.86,6.29,10.86,6.8c0,0.52-1.54,15-1.54,15
			s0.17,0.95,0.49,2.63c1.97,10.4,12.8,48.67,12.8,48.67s2.78-2.26,4.87-4.41c0.41-0.43,0.79-0.85,1.12-1.26l0.01,0.08
			L444.19,189.57z"/>
		<path class="st8" d="M425.95,184.02l2.03,0.62c-1.18,2.36-2.97,5.92-6,5.6c-0.11-0.01-0.22-0.07-0.34-0.16
			c0.84-5.32,2.69-15.71,4.96-20.9c3.03-6.93,7.39-9.71,7.67-9.88L425.95,184.02z"/>
		<path class="st7" d="M444.19,189.57c-0.26,0.54-0.58,1.16-0.96,1.87l-16.39-5.62c0.41-0.43,0.79-0.85,1.12-1.26l0.01,0.08
			L444.19,189.57z"/>
		<polygon class="st8" points="436.72,263.29 436.72,406.22 431.13,406.22 426.53,265.87 373.44,263.29 		"/>
		<polygon class="st8" points="403.25,268.53 403.25,406.22 397.9,406.22 396.67,268.53 		"/>
		<path class="st9" d="M373.69,417.64h29.56v3.48h-26.39C374.84,421.12,373.54,419.37,373.69,417.64z"/>
		<path class="st9" d="M436.72,417.64v3.48h-26.41c-1.92,0-3.18-1.56-3.18-3.19c0-0.1,0-0.19,0.01-0.29H436.72z"/>
		<path class="st7" d="M425.07,117.58c-0.88,0.67-3.09,0.57-3.09,0.57s0.88,1.01,1.55,1.14
			C424.19,119.42,425.07,117.58,425.07,117.58z"/>
		<polygon class="st8" points="375.98,163.67 375.98,177.49 363.5,186.71 361.34,184.76 		"/>
	</g>
	<g>
		<path class="st2" d="M139.62,335.07l-23.46,64.68c-6,0.24-10.93-2-14.79-6.73l13.35-61.52l-10.85-58.35h-5.3l-3.23,132.96
			c-4.53,1.88-12.57,1.67-17.72,0.1l-8-136.91l-0.18-3.1h62.15l0.4,2.35l8.84,53.28C141.57,326.28,141.14,330.84,139.62,335.07z"/>
		<path class="st3" d="M139.57,223.86c0,0,3.07,9.04,0.68,12.62c-0.51,0.75-1.11,1.46-1.77,2.13c-2.32,2.34-5.14,3.95-5.41,4.1
			c-1.69-8.65-2.91-16.83-3.5-24.9c0,0,3.95,2.47,5.98,6.05H139.57z"/>
		<path class="st4" d="M123.73,417.81c-0.19,0.48-0.42,0.88-0.72,1.21c-1.13,1.32-3.12,1.44-6.62,0.51c-2.2-0.59-6.26-3.47-9.9-6.86
			c-4.08-3.82-7.69-7.85-7.69-7.85l0.63-2.89l1.93-8.9c3.87,4.73,8.79,6.97,14.79,6.73l3.38,11.09
			C119.53,410.84,124.7,415.4,123.73,417.81z"/>
		<path class="st3" d="M117.49,136.19c-1.3,1.53-7.65,0.94-7.65,0.94v2.75c-0.45,5.31-4.9,9.48-10.32,9.48
			c-5.38,0-9.77-4.09-10.31-9.31v-7.87c5.93,0.21,5.63-4.65,5.63-4.65s-3.28-1.89-3.48-5.15c-0.21-3.26,3.58-5.79,5.12-5.19
			c1.54,0.6,0.95,9.07,3.83,8.24c0.8-0.24,1-3.64,1.03-5.52c0.03-0.8,0.35-1.56,0.92-2.12l0.86-0.87c0.37-0.35,0.64-0.81,0.78-1.3
			l1.67-5.57c5.63-0.32,10.29-2.43,13.2-4.53C123.68,118.02,118.81,134.66,117.49,136.19z"/>
		<path class="st4" d="M106.8,421.12H78.49l-0.19-3.15l-0.69-11.75c5.16,1.57,13.18,1.78,17.72-0.1l9.31,8.58l3.43,3.15
			c0.04,0.03,0.08,0.08,0.11,0.12C109.27,419.14,108.47,421.12,106.8,421.12z"/>
		<path class="st10" d="M166.53,195.94c-2.55-14.68-29-45.27-34.36-49.04c-4.72-3.34-19.01-6.35-22.34-7.02
			c-0.45,5.31-4.9,9.48-10.32,9.48c-5.38,0-9.77-4.09-10.31-9.31c-5.35,1.46-28.32,7.87-32.31,10.07
			c-4.52,2.48-27.01,25.34-30.7,54.85c-2.31,18.5,13.16,32.53,34.08,35.9v9.23l4.76,4.76v11.34h66.56v-12.89l3.04-3.04
			c-0.56-2.58-1.07-5.09-1.54-7.57c-1.69-8.65-2.91-16.83-3.5-24.9c-0.76-10.42-0.48-20.68,1.23-31.66c0,0,14.27,5.25,15.14,14.68
			c0.35,3.71-0.84,6.94-2.42,9.48c-2.45,3.93-5.81,6.25-5.81,6.25v4.34l-2.16,2.94h4.01c0,0,3.07,9.04,0.68,12.62
			c-0.51,0.75-1.11,1.46-1.77,2.13c3.45,0,5.01-2.94,5.01-2.94s5.15-1.19,8.53-2.78C155.41,231.29,169.7,214.27,166.53,195.94z
			 M60.27,216.67c-4.25-1.19-7.84-3.31-9.32-6.94c-0.68-1.69-1.08-3.29-1.23-4.82c-0.05-0.3-0.06-0.59-0.08-0.87
			c-0.02-0.02-0.02-0.03,0-0.05c-0.06-1.35,0.05-2.62,0.32-3.83c1.75-8.69,10.31-14,10.31-14V216.67z M103.46,254.04
			c-2.35,0-4.26-1.91-4.26-4.26c0-2.35,1.91-4.25,4.26-4.25c2.35,0,4.25,1.89,4.25,4.25C107.71,252.13,105.81,254.04,103.46,254.04z
			 M117.77,212.91c-0.41,2.64-2.33,7.63-2.33,7.63v3.29c0,3.66-2.97,6.62-6.63,6.62h-1.61c-0.24,1.51-0.37,3.05-0.37,4.58v2.7
			c0,2.2-1.78,3.98-3.98,3.98c-2.2,0-3.98-1.78-3.98-3.98v-2.7c0-1.53,0.1-3.07,0.3-4.58h-6.05v-10.83h3.15l1.92-6.25
			c0.41-1.37,1.43-2.47,2.77-2.99l10.21-4.01c2.69-2.83,3.71-6.68,2.82-10.61c-0.95-4.15-4.25-7.44-8.4-8.38
			c-3.58-0.83-7.09-0.05-9.89,2.18c-2.74,2.18-4.31,5.46-4.31,8.96c0,2.2-1.78,3.98-3.98,3.98c-2.2,0-3.98-1.78-3.98-3.98
			c0-5.93,2.66-11.47,7.32-15.18c4.65-3.71,10.71-5.07,16.61-3.72c7.11,1.62,12.76,7.27,14.38,14.38c1.4,6.12-0.13,12.41-4.1,17.07
			C118.24,211.37,118,212.08,117.77,212.91z"/>
		<path class="st11" d="M93.13,219.61v-1.21h-4.19c0,0-1.47-0.78-2.38-1.13c-0.91-0.35-19.05,0-19.05,0s17.43-1.26,20.59-1.12
			c3.15,0.14,6.44,1.73,6.97,2.25c0.53,0.52,0.77,1.21,0.77,1.21H93.13"/>
		<path class="st12" d="M118.78,105.52c-2.91,2.1-7.57,4.22-13.2,4.53l-1.67,5.57c-0.14,0.49-0.41,0.95-0.78,1.3l-0.86,0.87
			c-0.57,0.56-0.89,1.32-0.92,2.12c-0.03,1.88-0.24,5.28-1.03,5.52c-2.88,0.83-2.29-7.64-3.83-8.24c-1.54-0.6-5.33,1.92-5.12,5.19
			c0.21,3.26,3.48,5.15,3.48,5.15s0.3,4.85-5.63,4.65c-0.73-0.03-2.37-3.69-2.63-4.22c-3.51-6.96-4.41-15.03-1.36-22.3
			c0.56-1.35,1.32-2.9,2.24-4.03c0.62-0.76,1.31-1.06,2.23-1.37c0.87-0.29,2.23-0.1,2.98-0.45c0.68-0.32,0.84-1.3,1.46-1.82
			c0.86-0.73,2.28-0.98,3.36-1.24c4.83-1.18,10.42-1.45,15.34-0.86c2.54,0.3,6.25,1.02,7.69,3.38
			C122.03,101.74,120.87,104.02,118.78,105.52z"/>
		<path class="st2" d="M121.75,193.99c-1.62-7.11-7.27-12.76-14.38-14.38c-5.9-1.35-11.96,0.02-16.61,3.72
			c-4.66,3.71-7.32,9.24-7.32,15.18c0,2.2,1.78,3.98,3.98,3.98c2.2,0,3.98-1.78,3.98-3.98c0-3.5,1.57-6.78,4.31-8.96
			c2.8-2.23,6.32-3.01,9.89-2.18c4.15,0.94,7.44,4.23,8.4,8.38c0.89,3.93-0.13,7.78-2.82,10.61c-0.03,0.05-0.08,0.1-0.13,0.14
			c-1.65,1.7-3.15,3.5-4.49,5.36c2.94-0.91,8.49-2.29,11.07-0.81C121.63,206.39,123.15,200.11,121.75,193.99z M102.85,241.71
			c2.2,0,3.98-1.78,3.98-3.98v-2.7c0-1.53,0.13-3.07,0.37-4.58h-8.02c-0.21,1.51-0.3,3.05-0.3,4.58v2.7
			C98.88,239.93,100.66,241.71,102.85,241.71z M103.46,245.53c-2.35,0-4.26,1.89-4.26,4.25s1.91,4.26,4.26,4.26s4.25-1.91,4.25-4.26
			S105.81,245.53,103.46,245.53z"/>
		<g>
			<path class="st1" d="M86.61,198.09c0-5.93,2.66-11.47,7.32-15.18c2.36-1.89,5.1-3.16,7.98-3.79c-4.04,0.2-7.93,1.64-11.15,4.21
				c-4.66,3.71-7.32,9.24-7.32,15.18c0,2.2,1.78,3.98,3.98,3.98c0.76,0,1.46-0.22,2.06-0.59C87.83,201.41,86.61,199.9,86.61,198.09z
				"/>
			<path class="st1" d="M114.35,205.94c2.69-2.83,3.71-6.68,2.82-10.61c-0.95-4.15-4.25-7.45-8.4-8.38
				c-1.99-0.46-3.95-0.41-5.79,0.1c0.87,0.01,1.75,0.12,2.63,0.32c4.15,0.94,7.44,4.23,8.4,8.38c0.89,3.93-0.13,7.78-2.82,10.61
				c-0.03,0.05-0.08,0.1-0.13,0.14c-1.65,1.7-3.15,3.5-4.49,5.36c0.97-0.3,2.22-0.65,3.56-0.93c1.24-1.68,2.59-3.31,4.09-4.85
				C114.27,206.04,114.32,205.99,114.35,205.94z"/>
			<path class="st1" d="M102.85,241.71c0.76,0,1.46-0.22,2.06-0.59c-1.66-0.48-2.88-1.99-2.88-3.8v-2.7c0-1.39,0.09-2.79,0.26-4.16
				h-3.12c-0.21,1.51-0.3,3.05-0.3,4.58v2.7C98.88,239.93,100.66,241.71,102.85,241.71z"/>
			<path class="st1" d="M102.36,249.36c0-1.59,0.88-2.95,2.17-3.68c-0.34-0.09-0.69-0.15-1.06-0.15c-2.35,0-4.26,1.89-4.26,4.25
				s1.91,4.26,4.26,4.26c0.77,0,1.47-0.22,2.09-0.57C103.72,252.99,102.36,251.34,102.36,249.36z"/>
			<path class="st1" d="M113.74,210.43c1.53-0.08,2.93,0.07,3.91,0.63c0.29-0.34,0.56-0.68,0.82-1.04
				C117.03,209.91,115.34,210.11,113.74,210.43z"/>
		</g>
		<path class="st3" d="M100.98,210.37l10.21-4.01c-0.03,0.05-0.08,0.1-0.13,0.14c-1.65,1.7-3.15,3.5-4.49,5.36
			c2.94-0.91,8.49-2.29,11.07-0.81c0.59,0.32,1.02,0.8,1.24,1.46c0.13,1.99-2.09,4.92-2.09,4.92l-1.36,6.39
			c0,3.66-2.97,6.62-6.63,6.62h-1.61h-8.02h-6.04v-10.83h3.15l1.92-6.25C98.62,211.99,99.64,210.9,100.98,210.37z"/>
		<path class="st11" d="M99.18,230.45c0,0-1.96,5.04-12.68,9.61c-10.74,4.58-26.23,5.41-26.23,5.41v-4.58
			c15.79,0,21.39-2.93,23.56-4.28c2.45-1.52,3.72-4.06,4.54-4.2c0.84-0.14,4.76-0.35,4.76-0.35v-1.61H99.18z"/>
		<path class="st11" d="M85.98,142.83c0.05,1.4,3.31,5.79,6.49,7.47c0,0-3.5-0.79-5.27-2.8C85.42,145.49,85.98,142.83,85.98,142.83z
			"/>
		<path class="st11" d="M49.64,204.04c0.02,0.29,0.03,0.57,0.08,0.87l-0.1-0.1C49.63,204.56,49.63,204.29,49.64,204.04z"/>
		<path class="st11" d="M63.89,177.55l-2.61,39.12h-1.02v-30.51c0,0-8.56,5.31-10.31,14C52.08,186.1,63.89,177.55,63.89,177.55z"/>
		<path class="st11" d="M143.53,210.32c1.57-2.55,2.77-5.77,2.42-9.48c-0.87-9.43-15.14-14.68-15.14-14.68l2.74-11.12
			c0,0,16.07,11.95,15.69,22.96C149.04,203.88,146.16,207.87,143.53,210.32z"/>
		<polygon class="st11" points="131.98,268.56 69.61,269.31 69.43,266.21 131.58,266.21 		"/>
		<path class="st7" d="M94.84,127.54c2.02,0.61,3.63,0,3.63,0s-0.41,2.29-1.82,2.22C95.25,129.68,94.84,127.54,94.84,127.54z"/>
		<path class="st7" d="M117.49,136.19c-1.3,1.53-7.65,0.94-7.65,0.94v2.31c-4.09-1.08-5.9-3.52-5.9-3.52
			S114.23,136.62,117.49,136.19z"/>
		<path class="st10" d="M106.8,421.12H78.49l-0.19-3.15h29.88C109.27,419.14,108.47,421.12,106.8,421.12z"/>
		<path class="st10" d="M123.01,419.02c-1.13,1.32-3.12,1.44-6.62,0.51c-2.2-0.59-6.26-3.47-9.9-6.86
			c-4.08-3.82-7.69-7.85-7.69-7.85l0.63-2.89c2.55,3.03,8.56,9.97,12.16,12.72C115.36,417.52,119.6,420.2,123.01,419.02z"/>
		<path class="st11" d="M131.58,253.32c0,0-11.43,1.27-22.23,2.21c-10.8,0.94-17.84,0.65-17.84,0.65s15.08,0.97,27.05,0.04
			c11.97-0.92,13.02-1.25,13.02-1.25V253.32z"/>
	</g>
</g>
<g id="Designed_By_Freepik">
</g>
</svg>
